<svg xmlns="http://www.w3.org/2000/svg" viewBox="0 0 774.87 709.02"><defs><style>.cls-1{fill:#fff;}</style></defs><g id="Livello_2" data-name="Livello 2"><g id="Livello_1-2" data-name="Livello 1"><path class="cls-1" d="M342.21,462.62C250.12,384.16,162.51,301.69,92.08,201.8a54.39,54.39,0,0,0-2.92,5.63c-4.09,11.1-8.18,22.2-12,33.4a6.57,6.57,0,0,0,1.08,5.24c46.9,60.09,97,117.37,152.32,169.85,23.78,22.56,48.69,43.93,73.09,65.84l8.47,7.62L179.55,610.75c-10.67-10.74-21-20.43-30.5-30.81-42.79-46.55-69.49-101.48-82.72-163a333,333,0,0,1-2.86-124.79C65.88,277.51,69.55,263,73,248.54a9.57,9.57,0,0,0-1.6-8.75C52.66,213.36,35.14,186.17,21,157c-9.09-18.74-17.49-37.8-20-58.67A99.22,99.22,0,0,1,.84,72.06c2.91-19.71,16.42-32.23,37-36.18C54,32.78,70,34.22,85.91,37.13c28.32,5.17,55.15,15,81.53,26.27,7.22,3.08,14.45,6.16,21.57,9.46,2.22,1,3.74.94,5.71-.57A347.16,347.16,0,0,1,328,9.16,343.52,343.52,0,0,1,424.79.47c49.82,2.6,97,15,141.22,38,64.18,33.39,114.14,81.44,148.06,145.72a352.54,352.54,0,0,1,35.64,103,344.63,344.63,0,0,1,3.75,92.4C749.38,424,736.89,466,717.2,505.92a8.41,8.41,0,0,1-.9,1.77c-5,5.65-3,10.35.83,16,17.25,25.36,33,51.67,44.46,80.21,7.44,18.45,13.75,37.25,13.26,57.58-.64,26.31-16.82,43.13-42.91,46.55-24.66,3.23-48-2.37-71.25-8.63-32.55-8.75-62.84-23.3-93.24-37.48a11.23,11.23,0,0,0-10.42-.19c-30,13.44-61.11,23.44-93.59,28.93A328.7,328.7,0,0,1,401.5,695l82.38-80.76c17.81,10.42,35.07,20.69,52.5,30.66,7.73,4.43,15.77,8.33,23.76,12.3,1.24.61,3.27.91,4.38.31C576,651.33,587.36,645,599.4,638.33c-2.19-1.24-3.52-2-4.85-2.76q-40.35-23.21-80.67-46.44c-4.5-2.59-4.43-2.78-1.78-7.43,12.77-22.36,22.52-45.88,27.07-71.33C550.06,449.5,542,392,507.87,339.43c-25-38.48-59.56-64.66-104-76.91A77.09,77.09,0,0,1,364,236.94c-22.33-26.56-48.23-49.37-75.95-70.1-10.45-7.81-21.46-15-34.74-17.31-21.37-3.8-41.3.07-59.91,11.16-10,6-19.61,12.39-27.14,21.45-.43.52-.87,1-1.26,1.56-6.54,9.15-4.21,16.25,6.62,19.25a59,59,0,0,0,11.82,1.62c8.89.61,17.82.77,26.7,1.51,14.78,1.23,27.57,7.5,38.15,17.53,12.27,11.62,23.92,23.91,35.54,36.2a24.36,24.36,0,0,1,5.57,10c8.67,32.09,26.17,59.22,46.7,84.76a319,319,0,0,1,20.23,27.28,105.13,105.13,0,0,1,11.07,22.86c3.39,9.93,1.75,20-2.81,29.48C360.14,443.48,350.75,455.48,342.21,462.62ZM695,251.74a20.93,20.93,0,0,0-4.73-14.21q-12.56-14.73-25.74-28.9c-7.66-8.27-31.08-7.81-38.91-1-17.76,15.5-36.4,30-54.47,45.16-10.32,8.65-20.65,17.33-30.22,26.77-11.59,11.43-14.22,28.62-5.71,40.57a231.91,231.91,0,0,0,25.55,30.07c10.42,10.35,29,10.2,40.53,1,6.37-5,12.84-10,19-15.3,21.77-18.83,43.38-37.84,65.13-56.69C693.32,272.42,695.23,263.5,695,251.74ZM633.57,172c.11-7-.77-13.73-5-19.69a159.45,159.45,0,0,0-26.3-28.86c-9.23-7.85-28.76-7.88-37.12-.86-8.66,7.29-17.81,14-26.38,21.38-20.27,17.49-40.49,35-60.37,52.95-9.28,8.36-12,22.88-6.75,34.22,6.41,13.92,16.63,25,28.26,34.74s28.24,10.3,39.78.7c28.05-23.32,55.54-47.32,83.28-71C630.2,189.39,633.82,181.62,633.57,172Zm-32.21,466.9c8.58,3.86,16.28,7.48,24.1,10.82,19.83,8.47,39.67,17,61,21,11.3,2.11,22.62,3.66,34.15,2,14.32-2.11,23.61-11.42,25.47-25.64,1.55-11.85-1.4-23-5.34-34-9.1-25.27-23.08-47.91-38.24-69.89-1-1.47-2.3-2.77-3.76-4.51C673.14,578.75,639.45,610.33,601.36,638.93ZM707.68,378.74c.27-6.34-.8-12.92-5.19-18.07-7.68-9-15.42-18-24-26s-26.8-9.45-35.59-2.47c-15.93,12.65-31.66,25.67-46.39,39.68-11.84,11.27-12.85,26.83-3.89,40.5A177,177,0,0,0,610,434.13c15.19,16.71,35.63,14.66,49.27,2.93,13-11.2,25.8-22.66,38.69-34C705.13,396.69,707.77,388.45,707.68,378.74ZM169.56,92.83c-12.85-5-25-9.77-37.11-14.43-18.81-7.21-38.35-9.75-58.39-8.9-15.14.64-25.64,11-26.57,26a75.92,75.92,0,0,0,2.95,25.65C56,140.69,65.38,158.41,75.67,175.7c4.93,8.29,10.19,16.37,15.82,25.38C111,159.91,137.77,125,169.56,92.83Z"/></g></g></svg>