<?xml version="1.0" encoding="utf-8"?>
<!-- Generator: Adobe Illustrator 24.0.0, SVG Export Plug-In . SVG Version: 6.00 Build 0)  -->
<svg version="1.1" id="Layer_1" xmlns="http://www.w3.org/2000/svg" xmlns:xlink="http://www.w3.org/1999/xlink" x="0px" y="0px"
	 viewBox="0 0 96.27 103.73" enable-background="new 0 0 96.27 103.73" xml:space="preserve">
<g>
	<g>
		<path d="M-16.23,120.11c9.36-8.31,18.36-17.02,27.48-25.59c2.83-2.66,6.25-4.79,8.58-7.9c2.6-3.48,6.2-6.09,8.33-9.98
			c0.36-0.65,1.17-4.45,3.19-0.78c0.28,0.51,1.33,0.93,1.92,0.38c0.7-0.65-0.25-1.05-0.58-1.53c-0.67-0.99-1.33-1.98-1.94-3.01
			c-0.12-0.2,0.05-0.56,0.09-0.85c0.3,0.11,0.69,0.13,0.9,0.33c0.88,0.84,1.53,2.96,2.88,1.89c1.18-0.94-0.79-1.91-1.42-2.74
			c-3.27-4.29-3.76-9.32-3.97-14.41c-0.2-4.97,0.2-10.01-0.47-14.91c-0.4-2.94-0.97-6.12-2.92-8.74c-2.09-2.82-3.93-5.83-5.95-8.7
			c-1.56-2.21-3.67-3.85-5.87-5.4c-0.23-0.16-0.47-0.49-0.49-0.75c-0.39-5.38-1.36-6.63-6.49-8.4C6.63,8.87,6.29,8.53,5.91,8.27
			C6.19,7.91,6.4,7.46,6.75,7.21c3.52-2.56,8.37-1.74,11.42,1.26c4.61,4.53,6.42,10.84,10.53,15.64c4.02,4.71,8.18,9.22,13.33,12.8
			c3.85,2.68,7.74,5.47,9.79,9.99c0.23,0.5,0.56,1.15,1.22,0.91c0.9-0.32,0.22-1,0.04-1.39c-0.53-1.11-1.2-2.14-1.8-3.21
			c-0.22-0.4-0.76-0.86-0.25-1.25c0.52-0.4,0.79,0.3,1.14,0.57c0.69,0.52,1.01,2.3,1.92,1.55c0.92-0.76-0.74-1.45-1.14-2.24
			c-0.77-1.56-2.42-1.82-3.77-2.51c-0.74-0.38-1.21-0.83-0.32-1.32c6.57-3.67,11.7-9.4,18.3-12.98c4.05-2.19,7.68-5.23,12.2-6.5
			c2.22-0.63,4.67-1.13,6.23,1.12c1.55,2.22,0.95,4.72-0.34,6.87c-1.77,2.94-4.55,4.97-6.97,7.33c-3.22,3.15-6.51,6.29-8.82,10.28
			c-1.12,1.93-2.61,3.65-3.95,5.45c-0.28,0.38-0.64,0.59-1.13,0.24c-3.73-2.71-5.51-1.95-6.33,2.71c-0.12,0.66-0.13,1.35-0.08,2.01
			c0.05,0.54,0.89,1.05,0.29,1.59c-0.3,0.27-1.18,0.35-1.43,0.12c-0.55-0.52-1.26-1.32-1.2-1.94c0.46-4.39,2.32-8.09,5.43-11.34
			c4.31-4.51,9.26-8.49,12.22-14.16c0.34-0.66,0.57-1.38,0.77-2.1c0.04-0.15-0.22-0.54-0.38-0.57c-0.51-0.08-0.82,0.26-0.93,0.73
			c-0.24,0.98-0.38,1.8-1.79,0.97c-0.81-0.47-1.07,0.6-1.15,1.22c-0.43,3.11-2.1,5.28-4.38,7.46c-4.99,4.77-10.75,9.23-11.11,17.05
			c-0.06,1.41-0.22,3,1.58,3.72c0.66,0.26,0.4,0.73,0.24,1.29c-0.63,2.26-1.58,4.58-0.5,6.91c1.53,3.29,5.62,2.79,7.48,0.01
			c1.32-1.97,3.07-3.5,4.69-4.94c5.62-5,9.84-11.21,15.09-16.49c1.38-1.39,3.73-1.87,4.05-4.26c0.02-0.15,0-0.3,0-0.55
			c-1.55,0.04-1.88,1.48-2.8,2.16c-4.52,3.33-7.7,7.95-11.48,11.98c-1.9,2.02-3.58,4.24-5.69,6.11c-1.49,1.32-2.81,0.1-4.19,0.12
			c-2.03,0.02-4.57,3.2-3.92,5.15c0.15,0.46,0.93,1.13,0.05,1.34c-0.73,0.18-1.49-0.23-1.9-1.22c-2.15-5.2,1.78-6.9,4.99-9.22
			c3.3-2.38,5.08-6.06,7.31-9.35c1.29-1.91,2.56-3.9,4.19-5.5c3.26-3.18,6.41-6.47,9.8-9.55c1.89-1.72,3.08-2.67,5.14-0.98
			c1.85,1.51,2.1,5.67,0.94,7.92c-2.98,5.72-7.86,9.78-12.05,14.47c-2.24,2.51-4.19,5.38-6.16,8.17c-3.42,4.84-5.42,10.53-9.72,14.9
			c-2.42,2.46-4.61,4.85-7.82,6.26c-1.8,0.79-3.54,1.03-5.41,0.73c-0.41-0.07-0.93-0.4-1.07,0.27c-0.11,0.52,0.35,0.76,0.8,0.88
			c1.67,0.43,2.09,0.77,0.97,2.7c-2.89,4.94-5.68,9.95-7.66,15.42c-1,2.76-3.63,4.9-5.32,7.46c-2.29,3.47-4.39,7.06-6.57,10.6
			C14.17,120.11-1.03,120.11-16.23,120.11z"/>
		<path d="M59.4,53.35c-0.04-1.64,0.47-3.36,1.93-3.82c1.34-0.43,2.19,1.2,1.9,2.35c-0.35,1.39-1.21,2.88-2.88,3.13
			C59.21,55.17,59.48,54.06,59.4,53.35z"/>
		<path d="M12.67,14.8c-0.27,0.83-0.63,1.47-1.47,1.04c-1.84-0.93-3.26-2.35-4.36-4.08c-0.15-0.23-0.09-0.59-0.13-0.89
			c0.29-0.03,0.63-0.17,0.86-0.07C9.57,11.75,11.44,12.9,12.67,14.8z"/>
		<path d="M60.35,63.42c0.54-1.01,1.27-2.03,2.66-2.33c0.48-0.11,0.77,0.19,0.71,0.69c-0.2,1.59-1.29,2.42-2.67,2.84
			C60.32,64.83,60.46,64.07,60.35,63.42z"/>
	</g>
</g>
</svg>
