<?xml version="1.0" encoding="utf-8"?>
<!-- Generator: Adobe Illustrator 24.0.0, SVG Export Plug-In . SVG Version: 6.00 Build 0)  -->
<svg version="1.1" id="Layer_1" xmlns="http://www.w3.org/2000/svg" xmlns:xlink="http://www.w3.org/1999/xlink" x="0px" y="0px"
	 viewBox="0 0 37.08 38.31" enable-background="new 0 0 37.08 38.31" xml:space="preserve">
<g>
	<g>
		<path d="M11.62,24.79c-0.09-0.18-0.28-0.11-0.41-0.15c-0.25-0.08-0.5-0.17-0.76-0.22c-0.41-0.08-0.67-0.36-0.93-0.65
			c-0.04-0.05-0.07-0.11-0.01-0.16c0.03-0.04,0.08-0.03,0.13-0.01c0.09,0.06,0.22,0.09,0.27,0.17c0.28,0.41,0.71,0.5,1.15,0.52
			c0.92,0.03,1.83,0.16,2.75,0.12c0.61-0.03,1.2-0.12,1.85-0.23c-0.21-0.08-0.37-0.05-0.53-0.05c-0.71,0-1.42,0.03-2.13,0.01
			c-0.83-0.02-1.64-0.14-2.43-0.4c-0.1-0.03-0.21-0.08-0.31-0.09c-0.48-0.05-0.73-0.37-0.89-0.79c-0.01-0.02,0.02-0.06,0.03-0.09
			c0.15,0.01,0.31,0.03,0.41,0.16c0.33,0.42,0.82,0.47,1.3,0.53c0.09,0.01,0.19,0.01,0.28,0.01c0.12,0,0.11,0.05,0.07,0.14
			c-0.03,0.07,0.02,0.1,0.1,0.12c0.3,0.06,0.61,0.12,0.91,0.17c0.02,0,0.06-0.02,0.07-0.04c0.01-0.05-0.03-0.08-0.08-0.09
			c-0.24-0.04-0.49-0.08-0.73-0.13c-0.04-0.01-0.09-0.02-0.08-0.09c0.01-0.06,0.05-0.07,0.1-0.08c0.18-0.03,0.38,0,0.55,0.03
			c0.76,0.12,1.52,0.01,2.27-0.05c0.13-0.01,0.27-0.08,0.41-0.12c-0.12-0.1-0.25-0.05-0.36-0.05c-0.63-0.01-1.25-0.01-1.88-0.01
			c-0.36,0-0.71-0.04-1.01-0.26c-0.04-0.03-0.12-0.12-0.19-0.01c-0.12,0.19-0.32,0.11-0.47,0.08c-0.39-0.08-0.79-0.18-1.17-0.3
			c-0.23-0.07-0.41-0.23-0.53-0.44c-0.04-0.07-0.14-0.16-0.04-0.24c0.08-0.06,0.2,0.01,0.25,0.06c0.5,0.59,1.23,0.56,1.89,0.62
			c0.82,0.08,1.66,0.09,2.49,0.02c0.17-0.01,0.34-0.02,0.5-0.08c0.21-0.09,0.42-0.11,0.64-0.11c0.15,0.01,0.3-0.01,0.41-0.15
			c-0.61-0.08-1.21-0.01-1.8,0.03c-0.96,0.06-1.91-0.01-2.86-0.18c-0.3-0.05-0.62-0.05-0.92-0.16c-0.24-0.08-0.45-0.21-0.63-0.38
			c-0.05-0.05-0.1-0.12-0.13-0.19c-0.03-0.09-0.05-0.2,0.04-0.26c0.11-0.06,0.17,0.03,0.21,0.12c0.13,0.29,0.37,0.39,0.67,0.43
			c0.22,0.03,0.43,0.09,0.65,0.08c0.21-0.01,0.39,0.02,0.56,0.17c0.17,0.15,0.4,0.13,0.68,0.07c-0.24-0.07-0.43-0.12-0.68-0.19
			c0.3-0.1,0.56-0.12,0.8-0.1c0.39,0.04,0.78,0,1.16,0.04c0.42,0.04,0.84-0.04,1.25-0.12c0.23-0.04,0.46-0.03,0.71-0.08
			c-0.16-0.19-0.36-0.18-0.57-0.18c-0.94,0-1.88,0.03-2.81-0.01c-0.76-0.03-1.51-0.16-2.25-0.32c-0.32-0.07-0.39-0.32-0.51-0.55
			c-0.01-0.02,0.01-0.06,0.02-0.09c0.03-0.05,0.08-0.05,0.12-0.03c0.11,0.05,0.23,0.1,0.32,0.19c0.25,0.25,0.56,0.34,0.89,0.34
			c1.2,0.01,2.41,0,3.61-0.01c0.05,0,0.09-0.01,0.16-0.02c-0.06-0.16-0.19-0.14-0.3-0.14c-0.69-0.01-1.38,0-2.06-0.03
			c-0.79-0.03-1.57-0.1-2.33-0.36C9.33,20.5,9.13,20.45,9,20.28c-0.04-0.05-0.1-0.13-0.02-0.21c0.06-0.06,0.11-0.02,0.17,0
			c0.06,0.03,0.12,0.04,0.17,0.08c0.45,0.4,0.99,0.38,1.53,0.36c0.14-0.01,0.28,0.02,0.4,0.08c0.11,0.06,0.22,0.06,0.35,0.01
			c-0.05-0.02-0.08-0.04-0.1-0.05c-0.04-0.02-0.08-0.03-0.12-0.05c0.02-0.03,0.03-0.06,0.05-0.07c0.05-0.03,0.11-0.06,0.17-0.06
			c0.59-0.01,1.16-0.18,1.8-0.2c-0.36-0.17-0.68-0.19-1.03-0.14c-0.9,0.13-1.81,0.24-2.72,0.06c-0.28-0.06-0.54-0.14-0.71-0.4
			c-0.02-0.03-0.03-0.1-0.01-0.13c0.03-0.06,0.1-0.07,0.17-0.04c0.03,0.01,0.06,0.02,0.08,0.05c0.34,0.41,0.82,0.39,1.26,0.3
			c0.52-0.1,1.04-0.15,1.56-0.23c0.29-0.05,0.59-0.01,0.97-0.01c-0.54-0.26-1.31-0.3-2.11-0.13c0.18-0.33,0.18-0.33,0.49-0.34
			c0.23-0.01,0.47,0,0.74,0c-0.09-0.22-0.24-0.19-0.36-0.19c-0.64-0.01-1.28-0.01-1.92,0c-0.25,0-0.49-0.05-0.74-0.09
			c-0.12-0.02-0.16-0.07-0.11-0.19c0.03-0.06-0.01-0.08-0.06-0.09c-0.07-0.02-0.18-0.01-0.16-0.12c0.03-0.12,0.15-0.09,0.23-0.08
			c0.07,0.01,0.15,0.05,0.21,0.09c0.23,0.14,0.47,0.21,0.76,0.16c0.14-0.03,0.3,0.04,0.45,0.08c0.16,0.04,0.31,0.08,0.44-0.05
			c0.07-0.07,0.14-0.03,0.22-0.02c0.21,0.03,0.42,0.06,0.69-0.01c-0.42-0.15-0.79-0.25-1.18-0.25c-0.51,0-1.02-0.12-1.54-0.09
			c-0.27,0.01-0.3-0.06-0.32-0.34c-0.01-0.08-0.12-0.18,0.05-0.2c0.13-0.02,0.28,0.05,0.25,0.2c-0.03,0.13,0,0.12,0.1,0.17
			c0.23,0.12,0.28-0.27,0.49-0.14c0.43-0.08,0.86-0.05,1.3-0.06c0.12,0,0.25,0.04,0.34-0.1c-0.06-0.11-0.16-0.06-0.24-0.06
			c-0.62,0.03-1.24-0.06-1.87-0.09c-0.12-0.01-0.3,0.02-0.32-0.12c-0.02-0.15,0.21-0.09,0.28-0.23c0.05-0.09,0.24-0.05,0.35-0.01
			c0.39,0.13,0.81-0.02,1.2,0.12c0.01,0,0.05-0.04,0.04-0.05c-0.01-0.02-0.03-0.06-0.05-0.06c-0.24,0.01-0.47-0.09-0.73-0.06
			c-0.27,0.04-0.55-0.06-0.81-0.13c-0.15-0.04-0.24-0.13-0.37-0.3c0.33,0.07,0.61,0.13,0.97,0.2c-0.22-0.18-0.4-0.26-0.59-0.28
			C9,16.72,8.92,16.71,8.85,16.69c-0.22-0.06-0.37-0.22-0.3-0.29c0.12-0.13,0.26-0.04,0.39,0.01c0.34,0.12,0.68,0.21,1.03,0.28
			c0.09,0.02,0.19,0.01,0.28,0c0.05-0.01,0.06-0.08,0.02-0.11c-0.1-0.07-0.22-0.11-0.34-0.14c-0.3-0.07-0.61-0.12-0.89-0.25
			c-0.17-0.08-0.35-0.15-0.46-0.31c-0.02-0.03-0.05-0.09-0.03-0.13c0.03-0.06,0.1-0.08,0.16-0.05c0.15,0.08,0.34,0.07,0.46,0.21
			c0.11,0.14,0.28,0.13,0.4,0.22c0.19,0.13,0.3-0.18,0.49-0.08c0.03,0.02,0.01-0.09-0.02-0.1c-0.16-0.06-0.32-0.11-0.48-0.16
			c-0.35-0.09-0.67-0.25-0.92-0.52c-0.14-0.15-0.14-0.16-0.2-0.48c0.68,0.25,1.34,0.6,2.15,0.51c-0.23-0.11-0.42-0.06-0.6-0.12
			c-0.2-0.08-0.43-0.08-0.63-0.15c-0.19-0.06-0.37-0.15-0.6-0.36c0.31,0.06,0.53,0.11,0.83,0.17c-0.27-0.27-0.55-0.32-0.81-0.42
			c-0.13-0.05-0.26-0.1-0.39-0.16c-0.06-0.03-0.08-0.1-0.05-0.16c0.04-0.09,0.1-0.03,0.15-0.01c0.35,0.18,0.72,0.28,1.09,0.4
			c0.26,0.09,0.51,0.08,0.85,0.06c-0.61-0.24-1.26-0.12-1.72-0.59c0.15-0.09,0.27-0.04,0.39,0c0.18,0.06,0.37,0.05,0.56,0.04
			c0.02,0,0.05-0.04,0.04-0.06c-0.01-0.03-0.04-0.07-0.05-0.07c-0.29,0.03-0.54-0.1-0.78-0.22c-0.1-0.05-0.21-0.04-0.32-0.03
			c-0.24,0.02-0.31-0.01-0.35-0.2c-0.02-0.1,0.04-0.16,0.13-0.13c0.16,0.05,0.32,0.12,0.48,0.19C8.9,13.53,9,13.53,9.12,13.5
			c-0.45-0.17-0.83-0.42-1.11-0.81c-0.02-0.03-0.04-0.1-0.03-0.13c0.03-0.07,0.1-0.05,0.16-0.02c0.04,0.02,0.09,0.04,0.13,0.06
			C8.64,12.79,9.02,12.9,9.41,13c0.19,0.05,0.37,0.04,0.65,0.06c-0.17-0.12-0.27-0.16-0.38-0.18c-0.2-0.03-0.4-0.06-0.59-0.11
			c-0.53-0.14-0.97-0.42-1.28-0.87c0.07-0.11,0.17-0.07,0.25-0.05c0.31,0.09,0.63,0.16,0.93,0.28c0.26,0.1,0.52,0.08,0.78,0.03
			c-0.38-0.08-0.76-0.14-1.13-0.24c-0.41-0.1-0.73-0.33-0.98-0.67c-0.03-0.04-0.09-0.11-0.01-0.16c0.03-0.02,0.09-0.02,0.13-0.01
			c0.46,0.18,0.95,0.29,1.42,0.43c0.04,0.01,0.11,0.02,0.12-0.03c0.03-0.08-0.03-0.1-0.1-0.11c-0.29-0.06-0.58-0.12-0.86-0.2
			c-0.37-0.11-0.66-0.33-0.86-0.66c-0.03-0.05-0.03-0.09,0-0.13c0.03-0.04,0.08-0.03,0.13-0.01c0.14,0.05,0.26,0.17,0.5,0.12
			c-0.21-0.11-0.37-0.19-0.53-0.28c-0.07-0.04-0.14-0.07-0.2-0.12C7.36,10.06,7.29,10,7.35,9.92c0.05-0.07,0.11-0.02,0.16,0.01
			c0.11,0.06,0.22,0.11,0.33,0.17c0.09,0.05,0.17,0.06,0.35,0.04C7.87,9.99,7.66,9.81,7.37,9.79c-0.04,0-0.1-0.02-0.12-0.05
			C7.23,9.7,7.22,9.65,7.22,9.6c0.01-0.05,0.04-0.06,0.1-0.05c0.16,0.03,0.31,0.15,0.5,0.12C7.81,9.5,7.76,9.39,7.58,9.4
			c-0.11,0-0.22,0.01-0.31-0.08C7.21,9.25,7.1,9.18,7.14,9.09c0.05-0.11,0.15-0.05,0.24-0.03c0.36,0.1,0.72,0.2,1.07,0.3
			c0.08,0.02,0.15,0.04,0.22-0.01C8.42,9.15,8.1,9.14,7.82,9.03C7.69,8.98,7.53,8.95,7.63,8.74c0.05-0.1-0.06-0.08-0.11-0.1
			c-0.16-0.09-0.34-0.15-0.48-0.3c0.2-0.16,0.36,0,0.53,0.04c0.14,0.03,0.26,0.11,0.41,0.07c0.08-0.02,0.13-0.08,0.14-0.17
			c0.01-0.1-0.07-0.08-0.13-0.09C7.72,8.15,7.45,8.12,7.18,8.07C7.1,8.05,7.04,8.03,6.98,8.1C6.88,8.2,6.81,8.14,6.75,8.06
			C6.7,8,6.64,7.94,6.69,7.85C6.73,7.8,6.81,7.8,6.87,7.82C7.08,7.86,7.29,7.9,7.5,7.96C7.64,8,7.77,8,7.94,7.96
			C7.81,7.87,7.7,7.8,7.59,7.73C7.49,7.66,7.4,7.62,7.25,7.68C7.01,7.79,6.8,7.68,6.64,7.47C6.59,7.41,6.54,7.35,6.6,7.26
			c0.05-0.08,0.12-0.07,0.2-0.04c0.05,0.02,0.12,0.03,0.19-0.01C6.84,7.08,6.62,7.05,6.51,6.87C6.43,6.74,6.44,6.63,6.6,6.6
			c0.14-0.02,0.17-0.19,0.32-0.15C6.96,6.46,7,6.48,7.01,6.41c0-0.06-0.05-0.08-0.09-0.09C6.87,6.32,6.82,6.31,6.78,6.31
			C6.38,6.35,6.38,6.35,6.21,5.94c0.43,0.04,0.8,0.27,1.24,0.27C7.34,6.04,7.2,6.04,7.06,6.03C6.78,5.99,6.52,5.89,6.27,5.75
			C6.13,5.66,6.03,5.56,5.96,5.41c-0.02-0.04-0.06-0.08,0-0.12c0.03-0.01,0.06-0.03,0.09-0.02c0.13,0.04,0.27,0.08,0.39,0.14
			C6.6,5.49,6.45,5.55,6.41,5.6C6.53,5.66,6.72,5.78,6.78,5.7c0.13-0.22,0.35-0.08,0.51-0.17C6.98,5.31,6.63,5.29,6.3,5.23
			C5.91,5.16,5.76,4.84,5.5,4.64C5.46,4.61,5.46,4.56,5.48,4.51C5.6,4.29,5.52,4.13,5.29,4.03c-0.26-0.11-0.04-0.3-0.05-0.45
			C5.23,3.42,5.32,3.34,5.47,3.42c0.27,0.14,0.55,0.06,0.83,0.06C6.13,3.21,6.06,3.15,5.77,3.25c-0.21,0.07-0.37,0-0.54-0.05
			C5.1,3.17,4.98,3.08,4.97,2.96C4.94,2.69,4.74,2.7,4.57,2.65C4.48,2.5,4.37,2.38,4.22,2.29C4.24,2.2,4.13,2.06,4.29,2.04
			C4.39,2.03,4.5,2.1,4.61,2.07C4.4,1.92,4.4,1.92,4.26,1.91c-0.14-0.01-0.28,0-0.42-0.02C3.77,1.88,3.73,1.81,3.77,1.75
			c0.13-0.2,0.31-0.35,0.55-0.4c0.08-0.01-0.03,0.21,0.14,0.14C4.52,1.47,4.6,1.45,4.67,1.43C4.76,1.4,4.85,1.36,4.94,1.36
			C5.33,1.33,5.71,1.21,6.1,1.25C6.22,1.26,6.42,1.2,6.33,1.46C6.3,1.54,6.41,1.51,6.46,1.52c0.15,0.02,0.31-0.03,0.46,0.05
			c0.02,0.01,0.04,0.05,0.07,0.09c-0.15,0.1-0.33,0-0.5,0.09C6.63,1.83,6.76,1.79,6.88,1.8c0.17,0.01,0.34,0,0.43,0.2
			c0.06,0.14,0.25,0.12,0.37,0.15c0.21,0.06,0.11,0.1,0.02,0.18C7.68,2.36,7.7,2.42,7.75,2.44c0.1,0.04,0.21,0.07,0.3,0.11
			c0.16,0.08-0.15,0.1-0.02,0.17C8.11,2.78,8.2,2.8,8.29,2.83c0.09,0.03,0.18,0.04,0.27,0.08c0.13,0.05,0.25,0.1,0.38,0.24
			C8.75,3.17,8.6,3.07,8.41,3.19C8.81,3.3,8.99,3.67,9.36,3.77c0.06,0.02,0.11,0.07,0.16,0.09c0.16,0.06,0.14,0.2,0.1,0.31
			C9.59,4.27,9.46,4.26,9.38,4.24C9.2,4.17,9.03,4.12,8.83,4.18C9.04,4.33,9.28,4.32,9.5,4.39c0.18,0.06,0.35,0.12,0.51,0.22
			C10.15,4.7,10.31,4.76,10.25,5c-0.02,0.08,0.2,0.16,0.11,0.34c-0.02,0.03,0.23,0.08,0.22,0.23C9.97,5.64,9.36,5.68,8.75,5.68
			c0.62,0.19,1.29,0.04,1.89,0.35c-0.34,0-0.68,0-1.06,0c0.14,0.15,0.29,0.06,0.4,0.12c0.13,0.07,0.28,0.04,0.41,0.08
			c0.13,0.04,0.28,0.06,0.35,0.2c-0.03,0.08-0.1,0.07-0.15,0.05c-0.16-0.06-0.32-0.11-0.49-0.01C9.98,6.53,9.88,6.46,9.78,6.43
			c-0.04-0.01-0.09,0-0.1,0.06c-0.01,0.06,0.04,0.07,0.08,0.1c0.11,0.08,0.24,0.05,0.35,0.05c0.6-0.04,0.7,0.01,0.97,0.54
			c0.03,0.05,0.07,0.1,0.1,0.15c0.04,0.05,0.08,0.1,0.03,0.16c-0.05,0.06-0.12,0.04-0.17,0.02c-0.1-0.04-0.19-0.11-0.33-0.03
			c0.14,0.08,0.27,0.15,0.4,0.22c0.12,0.07,0.27,0.11,0.19,0.31c-0.04,0.1,0.07,0.08,0.1,0.11c0.06,0.05,0.14,0.1,0.11,0.19
			c-0.03,0.09-0.12,0.07-0.2,0.05c-0.23-0.05-0.45-0.11-0.68-0.16c-0.06-0.01-0.12-0.02-0.19,0.04c0.27,0.16,0.56,0.25,0.83,0.39
			c0.29,0.15,0.36,0.47,0.64,0.66c-0.35,0.09-0.6-0.16-0.99-0.14c0.32,0.14,0.54,0.27,0.78,0.34c0.34,0.11,0.48,0.43,0.74,0.61
			c0.03,0.02,0.03,0.09-0.01,0.12c-0.04,0.03-0.08,0.03-0.13,0c-0.18-0.12-0.36-0.25-0.54-0.37c-0.18-0.12-0.37-0.2-0.61-0.2
			c0.08,0.18,0.26,0.12,0.36,0.21c0.12,0.1,0.19,0.15-0.04,0.16c-0.04,0-0.02,0.08,0.03,0.11c0.23,0.1,0.45,0.21,0.69,0.29
			c0.21,0.07,0.36,0.19,0.45,0.38c0.04,0.09,0.09,0.18,0.17,0.21c0.21,0.07-0.01,0.31,0.18,0.4c0.15,0.08,0.25,0.23,0.37,0.35
			c0.06,0.06,0.08,0.14,0.04,0.22c-0.03,0.06-0.1,0.06-0.17,0.06c-0.11-0.01-0.21-0.02-0.32-0.05c-0.13-0.05-0.27-0.08-0.42-0.01
			c0.24,0.19,0.54,0.16,0.8,0.23c0.23,0.07,0.44,0.15,0.58,0.36c0.02,0.04,0.04,0.1,0.08,0.11c0.45,0.17,0.68,0.59,1.03,0.88
			c0.12,0.1,0.24,0.2,0.39,0.25c0.06,0.02,0.13,0.04,0.17-0.02c0.04-0.06,0-0.12-0.06-0.15c-0.21-0.09-0.24-0.35-0.45-0.46
			c-0.07-0.04-0.13-0.11-0.23-0.12c-0.04,0-0.1-0.01-0.13-0.04c-0.12-0.1,0.06-0.22,0-0.28c-0.08-0.09-0.23-0.12-0.22-0.27
			c0.01-0.11,0.05-0.21,0.08-0.32c0.03-0.12,0.13-0.16,0.22-0.23c0.23-0.17,0.44-0.35,0.66-0.52c0.41-0.32,0.87-0.54,1.33-0.77
			c0.2-0.1,0.39-0.2,0.58-0.29c0.55-0.24,0.95-0.69,1.46-1c0.34-0.2,0.33-0.21,0.47-0.48c0.05-0.1,0.1-0.21,0.18-0.27
			c0.42-0.36,0.68-0.85,1.04-1.26c0.32-0.37,0.72-0.69,1.15-0.94c0.2-0.12,0.4-0.23,0.61-0.35c0.69-0.38,1.45-0.32,2.19-0.26
			c0.08,0.01,0.36-0.07,0.3,0.22c0.09,0.01,0.18,0.04,0.27,0.04c0.27-0.01,0.52,0.05,0.78,0.13c0.05,0.02,0.11,0.06,0.11,0.14
			c0,0.09-0.07,0.09-0.13,0.1c-0.05,0-0.09,0-0.14,0.01c-0.02,0-0.04,0.03-0.1,0.07c0.41,0.05,0.84-0.04,1.1,0.34
			c-0.06,0.06-0.12,0.05-0.18,0.06c-0.04,0-0.09,0.01-0.17,0.03c0.26,0.12,0.53,0.17,0.72,0.36c0.1,0.1,0.17,0.19,0.03,0.31
			c-0.05,0.04-0.09,0.09,0.01,0.12c0.1,0.03,0.14,0.11,0.17,0.2c0.03,0.12-0.04,0.18-0.18,0.14C26.96,8.04,26.92,8,26.87,8.03
			c-0.02,0.09,0.07,0.11,0.12,0.16c0.09,0.09,0.23,0.11,0.28,0.24c0.05,0.15-0.13,0.25-0.11,0.32c0.05,0.21-0.07,0.34-0.16,0.5
			c-0.03,0.05-0.07,0.13-0.12,0.14c-0.3,0.06-0.37,0.33-0.5,0.53c-0.17,0.25-0.38,0.36-0.67,0.32c-0.41-0.05-0.8,0.14-1.2,0.11
			c-0.05,0-0.09,0.02-0.1,0.07c-0.01,0.07,0.04,0.07,0.08,0.09c0.33,0.09,0.67,0.15,1.01,0c0.05-0.02,0.11-0.03,0.17-0.04
			c0.04,0.05,0.03,0.09,0,0.13c-0.12,0.18-0.47,0.21-0.39,0.53c-0.19,0.16-0.37,0.34-0.57,0.48c-0.12,0.08-0.2,0.16-0.24,0.31
			c-0.05,0.18-0.22,0.29-0.39,0.38c-0.07,0.04-0.14,0.06-0.21-0.01c-0.08-0.09-0.19-0.12-0.3-0.1c-0.48,0.09-0.94,0.25-1.4,0.43
			c0.58,0.08,1.13-0.19,1.71-0.14c-0.01,0.18-0.14,0.27-0.21,0.37c-0.17,0.24-0.21,0.23-0.54,0.12c-0.15-0.05-0.31-0.03-0.46,0
			c-0.45,0.11-0.9,0.24-1.37,0.27c-0.09,0.01-0.17,0.07-0.33,0.15c0.34,0.02,0.59,0.01,0.85-0.03c0.41-0.07,0.84-0.02,1.25-0.13
			c0.06-0.02,0.13-0.01,0.17,0.05c0.03,0.06-0.01,0.12-0.06,0.16c-0.07,0.07-0.13,0.13-0.2,0.2c-0.05,0.04-0.11,0.08-0.17,0.02
			c-0.29-0.29-0.64-0.12-0.96-0.1c-0.17,0.01-0.38,0.02-0.52,0.2c0.22,0.05,0.43,0.01,0.65,0.02c0.19,0,0.38,0,0.56,0
			c0.06,0,0.13,0.02,0.15,0.08c0.03,0.1-0.02,0.18-0.09,0.25c-0.05,0.04-0.12,0.08-0.17,0.02c-0.24-0.29-0.5-0.08-0.72-0.01
			c-0.32,0.09-0.62,0.19-0.95,0.07c-0.03-0.01-0.06,0-0.09,0c-0.78-0.02-1.56-0.01-2.33-0.11c-0.15-0.02-0.31,0-0.46,0.02
			c0.89,0.28,1.82,0.21,2.72,0.39c-0.66,0.04-1.32,0.09-1.98,0.1c0.71,0.18,1.44,0.24,2.27,0.24c-0.44,0.3-0.84,0.18-1.19,0.14
			c-0.36-0.04-0.74,0.01-1.11-0.15c0.05,0.16,0.13,0.24,0.24,0.26c0.66,0.1,1.32,0.23,1.99,0.04c0.06-0.02,0.13-0.03,0.17,0.03
			c0.05,0.09-0.02,0.15-0.08,0.19c-0.08,0.05-0.16,0.12-0.25,0.09c-0.35-0.1-0.71-0.03-1.07-0.05c-0.14-0.01-0.27-0.08-0.41-0.08
			c-0.11,0-0.26-0.07-0.32,0.1c-0.01,0.05-0.04,0.07-0.09,0.08c-0.09-0.03-0.15-0.08-0.18-0.17c-0.09-0.48-0.4-0.71-0.86-0.79
			c-0.16-0.03-0.33-0.07-0.46-0.2c-0.06-0.06-0.11,0.02-0.14,0.07c-0.04,0.06-0.01,0.12,0.06,0.14c0.06,0.01,0.12,0,0.19,0.01
			c0.07,0.01,0.17,0,0.18,0.11c0.01,0.09-0.08,0.14-0.14,0.16c-0.1,0.03-0.18,0.14-0.3,0.07c-0.18-0.1-0.14-0.01-0.13,0.13
			c0.01,0.13-0.13,0.1-0.21,0.1c-0.12,0-0.2,0.03-0.22,0.17c-0.03,0.17-0.05,0.17-0.32,0.16c-0.03,0-0.06,0-0.08,0.02
			c-0.12,0.19-0.35,0.07-0.51,0.16c0.09,0.07,0.19,0.03,0.28,0.04c0.14,0.01,0.28,0.02,0.35,0.18c0.01,0.03,0.02,0.06,0.05,0.08
			c0.08,0.04,0.18,0.06,0.25,0.12c0.1,0.08,0.07,0.16-0.04,0.21c-0.08,0.04-0.15,0.08-0.23,0.13c0.05,0.06,0.1,0.05,0.14,0.04
			c0.2-0.08,0.39-0.17,0.45,0.16c0,0.02,0.08,0.03,0.12,0.05c0.13,0.06,0.11,0.12,0,0.19c-0.15,0.1-0.34,0.06-0.49,0.14
			c-0.07,0.04-0.14,0.05-0.26,0.09c0.3,0.09,0.52-0.08,0.75-0.11c0.13-0.02,0.3-0.13,0.35,0.05c0.04,0.15-0.15,0.14-0.26,0.2
			c-0.16,0.08-0.29,0.25-0.48,0.27c-0.17,0.02-0.33,0.08-0.53,0.16c0.35,0.09,0.62-0.07,0.91-0.15c0.12-0.03,0.22-0.12,0.34-0.15
			c0.15-0.03,0.31-0.15,0.47-0.03c0.03,0.02-0.23,0.45-0.3,0.48c-0.41,0.23-0.84,0.41-1.29,0.54c-0.08,0.02-0.15,0.04-0.21,0.15
			c0.36-0.05,0.69-0.11,1.02-0.21c0.36-0.11,0.71-0.23,1.06-0.35c0.06-0.02,0.12-0.05,0.15,0.03c0.01,0.04,0.02,0.1,0,0.13
			c-0.18,0.24-0.3,0.5-0.65,0.59c-0.4,0.09-0.79,0.27-1.18,0.44c-0.15,0.06-0.3,0.05-0.5,0.09c0.42,0.08,0.47,0.08,1.05-0.09
			c0.42-0.12,0.83-0.26,1.25-0.39c0.09-0.03,0.18-0.07,0.27-0.08c0.06-0.01,0.12,0.05,0.13,0.12c0,0.04-0.03,0.11-0.05,0.11
			c-0.21,0.01-0.32,0.13-0.46,0.27c-0.13,0.13-0.36,0.16-0.56,0.22c-0.1,0.03-0.22,0.02-0.28,0.14c0.08,0.1,0.16,0.04,0.24,0.01
			c0.38-0.11,0.73-0.27,1.08-0.44c0.08-0.04,0.17-0.13,0.23,0.01c0.05,0.11-0.03,0.17-0.12,0.22c-0.12,0.07-0.23,0.16-0.36,0.22
			c-0.3,0.16-0.61,0.32-0.96,0.34c-0.11,0.01-0.21,0.06-0.34,0.17c0.58-0.08,1.09-0.19,1.57-0.4c0.11-0.05,0.22-0.11,0.34-0.15
			c0.05-0.02,0.12-0.01,0.14,0.08c0.02,0.14,0.07,0.2,0.23,0.23c-0.62,0.43-1.36,0.49-1.99,0.82c0.11,0.12,0.21,0.09,0.29,0.06
			c0.59-0.18,1.2-0.31,1.78-0.55c0.07-0.03,0.14-0.07,0.22-0.08c0.09-0.01,0.2-0.04,0.24,0.08c0.04,0.11-0.04,0.16-0.13,0.21
			c-0.45,0.26-0.94,0.4-1.44,0.54c-0.12,0.03-0.24,0.07-0.34,0.13c0.24,0.06,0.24,0.06,0.49-0.02c0.18-0.05,0.36-0.09,0.54-0.14
			c0.18-0.05,0.36-0.09,0.54-0.14c0.07,0.11-0.11,0.13-0.06,0.24c0.19-0.07,0.39-0.14,0.59-0.22c0.06-0.02,0.13-0.06,0.17,0.01
			c0.04,0.06-0.01,0.1-0.07,0.15c-0.32,0.23-0.68,0.38-1.06,0.47c-0.42,0.11-0.83,0.24-1.25,0.37c-0.08,0.02-0.15,0.04-0.2,0.18
			c0.9-0.19,1.77-0.41,2.64-0.65c-0.41,0.36-0.95,0.42-1.4,0.68c0.36,0,0.69-0.13,1.02-0.28c0.22-0.1,0.46-0.19,0.69-0.29
			c0.04-0.02,0.09,0.01,0.1,0.06c0,0.03,0,0.07-0.02,0.08c-0.09,0.06-0.18,0.13-0.27,0.18c-0.5,0.3-1.05,0.45-1.67,0.64
			c0.39,0.11,0.69-0.02,0.97-0.12c0.37-0.13,0.73-0.11,1.11-0.12c0.06,0,0.13,0.01,0.15,0.08c0.03,0.1-0.05,0.15-0.12,0.17
			c-0.77,0.3-1.54,0.58-2.38,0.6c-0.06,0-0.13,0.01-0.19,0.02c-0.03,0-0.05,0.03-0.08,0.05c0.01,0.13,0.09,0.08,0.16,0.08
			c0.57-0.04,1.13-0.13,1.68-0.29c0.15-0.04,0.29-0.08,0.48,0c-0.33,0.27-0.76,0.24-1.1,0.48c0.11,0.07,0.21,0.04,0.3,0.01
			c0.4-0.14,0.79-0.29,1.16-0.48c0.06-0.03,0.12-0.06,0.16,0.01c0.03,0.06-0.01,0.12-0.06,0.16c-0.07,0.06-0.14,0.13-0.22,0.16
			c-0.73,0.33-1.45,0.72-2.28,0.76c-0.08,0-0.15,0.03-0.19,0.14c0.18,0.04,0.35,0.03,0.53-0.01c0.63-0.15,1.26-0.32,1.88-0.53
			c0.06-0.02,0.11-0.05,0.17-0.07c0.06-0.02,0.14-0.02,0.17,0.04c0.04,0.09-0.02,0.15-0.09,0.19c-0.11,0.06-0.23,0.1-0.34,0.15
			c-0.18,0.07-0.36,0.14-0.64,0.25c0.38,0.05,0.59-0.2,0.92-0.15c-0.22,0.25-0.48,0.35-0.73,0.42c-0.49,0.14-1,0.23-1.5,0.32
			c-0.14,0.03-0.26,0.05-0.44,0.17c0.38,0,0.68,0,0.99-0.05c0.32-0.05,0.64-0.11,0.94-0.2c0.28-0.08,0.6,0.05,0.91-0.28
			c-0.11,0.37-0.32,0.46-0.51,0.57c-0.71,0.41-1.46,0.69-2.29,0.72c-0.03,0-0.06,0-0.09,0.01c-0.04,0.01-0.1,0.02-0.08,0.09
			c0.01,0.05,0.05,0.08,0.1,0.07c0.22-0.03,0.43-0.05,0.64-0.09c0.38-0.07,0.75-0.17,1.15-0.18c0.13,0,0.26-0.09,0.45-0.16
			c-0.12,0.22-0.2,0.37-0.42,0.47c-0.74,0.33-1.52,0.52-2.32,0.64c-0.2,0.03-0.38,0.16-0.59,0.12c0.26,0.06,0.51,0.07,0.77,0.02
			c0.75-0.13,1.49-0.28,2.22-0.5c0.2-0.06,0.25,0.06,0.26,0.24c0.22-0.38,0.42-0.74,0.62-1.11c0.23-0.43,0.36-0.88,0.38-1.37
			c0.01-0.21,0.05-0.24,0.26-0.23c0.16,0,0.31,0.02,0.42,0.17c0.05,0.06,0.11,0.11,0.19,0.12c0.08,0.01,0.17,0.04,0.14,0.14
			c-0.02,0.06-0.1,0.07-0.16,0.07c-0.14,0-0.28,0-0.41-0.06c-0.04-0.02-0.09,0.02-0.1,0.06c-0.02,0.07,0.05,0.06,0.09,0.06
			c0.11,0,0.21,0.07,0.31,0.08c0.23,0.03,0.31,0.17,0.35,0.4c-0.32,0-0.63,0-0.94,0c0.57,0.11,1.11,0.29,1.65,0.47
			c0.55,0.18,1.12,0.32,1.72,0.62c-0.74,0.16-1.27-0.29-1.96-0.32c0.16,0.09,0.26,0.15,0.37,0.17c0.11,0.02,0.23,0.03,0.31,0.1
			c0.31,0.29,0.71,0.29,1.08,0.37c0.24,0.05,0.49,0.09,0.71,0.2c0.16,0.08,0.32,0.09,0.57,0.08c-0.2-0.15-0.43-0.12-0.54-0.3
			c0.07-0.1,0.13-0.02,0.19-0.01c0.65,0.16,1.29,0.34,1.94,0.47c0.29,0.06,0.59,0.02,0.89,0.03c0.04,0,0.1,0.03,0.11,0.06
			c0.02,0.08-0.04,0.11-0.1,0.12c-0.5,0.03-1,0.04-1.5-0.03c-0.57-0.07-1.13-0.16-1.7-0.25c-0.46-0.07-0.9-0.23-1.35-0.36
			c-0.48-0.14-0.95-0.29-1.42-0.44c-0.11-0.03-0.21-0.06-0.37,0.01c0.71,0.19,1.33,0.48,1.95,0.77c0.29,0.14,0.63,0.17,0.95,0.2
			c0.32,0.04,0.65,0.08,0.97,0.11c0.11,0.01,0.2,0.08,0.3,0.13c-0.02,0.1-0.2,0-0.18,0.13c0.04,0.21,0.02,0.25-0.15,0.2
			c-0.28-0.09-0.58-0.09-0.86-0.22c-0.21-0.1-0.46-0.02-0.69-0.1c-0.51-0.17-1.04-0.32-1.56-0.46c-0.25-0.07-0.5-0.17-0.79-0.13
			c0.23,0.18,0.5,0.19,0.75,0.25c0.77,0.19,1.49,0.53,2.25,0.76c0.03,0.01,0.08,0.02,0.08,0.04c0.1,0.35,0.38,0.22,0.61,0.23
			c0.2,0.01,0.41,0.01,0.61,0.01c0.23,0,0.46,0.02,0.69-0.07c0.14-0.05,0.31-0.01,0.46-0.01c0.05,0,0.09,0.02,0.1,0.07
			c0.03,0.08-0.03,0.12-0.08,0.15c-0.07,0.03-0.15,0.06-0.22,0.06c-0.51,0-1.02,0.03-1.52,0.08c-0.23,0.02-0.46-0.03-0.69-0.06
			c-0.87-0.12-1.7-0.36-2.52-0.66c-0.32-0.12-0.65-0.17-1-0.2c0,0.1,0.05,0.15,0.11,0.15c0.48,0.02,0.9,0.21,1.35,0.36
			c0.43,0.14,0.85,0.29,1.28,0.43c0.12,0.04,0.23,0.08,0.36,0.08c0.11,0,0.28-0.01,0.2,0.2c-0.03,0.08,0.04,0.07,0.08,0.07
			c0.6,0.12,1.2,0.17,1.79-0.06c0.08-0.03,0.18-0.03,0.27-0.05c0.06-0.01,0.12-0.05,0.15,0.04c0.02,0.07,0,0.13-0.04,0.17
			c-0.11,0.12-0.26,0.16-0.42,0.19c-0.84,0.16-1.66,0.11-2.48-0.14c-0.43-0.13-0.86-0.26-1.37-0.21c0.25,0.2,0.51,0.2,0.75,0.25
			c0.2,0.04,0.39,0.11,0.58,0.16c0.26,0.07,0.01,0.18,0.02,0.29c0.36,0.04,0.72,0.08,1.08,0.11c0.16,0.02,0.3-0.01,0.45-0.07
			c0.23-0.1,0.48-0.13,0.73-0.11c0.04,0,0.1,0.03,0.11,0.06c0.03,0.07-0.03,0.11-0.09,0.14c-0.26,0.13-0.54,0.09-0.82,0.14
			c-0.96,0.15-1.88-0.05-2.8-0.27c-0.24-0.06-0.48-0.1-0.73-0.12c0.23,0.24,0.57,0.22,0.85,0.34c0.28,0.12,0.6,0.14,0.86,0.33
			c-0.13,0.1-0.26,0.03-0.38,0.07c-0.04,0.01-0.06,0.04-0.04,0.07c0.01,0.02,0.03,0.06,0.05,0.06c0.47,0.04,0.94,0.07,1.4-0.02
			c0.22-0.05,0.46-0.03,0.66-0.2c0.08-0.06,0.24-0.03,0.36-0.03c0.05,0,0.09,0.02,0.1,0.07c0.02,0.06-0.03,0.08-0.07,0.1
			c-0.31,0.15-0.64,0.24-0.98,0.27c-1.14,0.1-2.26,0.02-3.35-0.37c-0.13-0.05-0.25-0.13-0.4-0.05c0.15,0.17,0.34,0.25,0.55,0.31
			c0.6,0.17,1.16,0.44,1.78,0.52c0.34,0.05,0.67,0,1-0.09c0.22-0.07,0.45-0.13,0.67-0.19c0.06-0.02,0.13-0.01,0.15,0.07
			c0.01,0.04-0.01,0.09-0.04,0.12c-0.06,0.08-0.13,0.14-0.23,0.15c-0.63,0.05-1.25,0.26-1.9,0.21c-0.48-0.04-0.95-0.14-1.42-0.26
			c-0.75-0.2-1.51-0.39-2.21-0.73c-0.05-0.03-0.12-0.04-0.18-0.05c-0.08-0.01-0.15,0-0.34,0c0.34,0.12,0.55,0.26,0.81,0.3
			c0.15,0.02,0.31,0.09,0.42,0.19c0.52,0.42,1.18,0.53,1.79,0.74c0.41,0.14,0.85,0.17,1.29,0.17c0.24,0,0.45-0.03,0.67-0.15
			c0.17-0.1,0.38-0.15,0.59-0.12c0.07,0.01,0.11,0.05,0.12,0.12c0.01,0.07-0.03,0.13-0.09,0.14c-0.15,0.04-0.3,0.09-0.46,0.09
			c-0.35,0-0.67,0.1-1.01,0.17c-0.25,0.05-0.5,0.05-0.74,0.01c-0.44-0.07-0.86-0.23-1.31-0.3c-0.41-0.06-0.79-0.27-1.17-0.47
			c-0.55-0.29-1.12-0.54-1.73-0.68c-0.05-0.01-0.11-0.03-0.12,0.03c-0.02,0.07,0.04,0.12,0.1,0.11c0.35-0.03,0.62,0.2,0.92,0.32
			c0.51,0.2,0.99,0.45,1.49,0.68c0.06,0.03,0.13,0.04,0.17,0.08c0.24,0.27,0.56,0.3,0.88,0.34c0.14,0.02,0.27,0.05,0.41,0.09
			c0.57,0.14,1.13,0.17,1.69-0.06c0.16-0.06,0.33-0.09,0.5-0.13c0.06-0.01,0.14-0.01,0.17,0.05c0.03,0.06-0.02,0.11-0.07,0.15
			c-0.27,0.21-0.59,0.26-0.92,0.28c-1.59,0.08-3.09-0.27-4.51-0.98c-0.67-0.34-1.37-0.59-2.09-0.77c-0.07-0.02-0.15-0.02-0.23-0.03
			c-0.03,0-0.05,0.02-0.08,0.03c0.14,0.14,0.34,0.17,0.51,0.21c0.53,0.13,1.03,0.35,1.53,0.56c0.17,0.07,0.33,0.15,0.46,0.3
			c0.15,0.17,0.4,0.22,0.62,0.28c0.42,0.11,0.83,0.26,1.23,0.43c0.52,0.22,1.07,0.28,1.63,0.32c0.16,0.01,0.31-0.01,0.45-0.09
			c0.23-0.13,0.49-0.08,0.73-0.07c0.04,0,0.09,0.02,0.08,0.09c-0.01,0.06-0.04,0.07-0.09,0.08c-0.68,0.16-1.37,0.23-2.07,0.17
			c-0.32-0.03-0.63-0.17-0.94-0.26c-0.58-0.17-1.17-0.31-1.73-0.56c-0.09-0.04-0.18-0.06-0.26-0.11c-0.78-0.54-1.7-0.74-2.58-1.05
			c-0.04-0.01-0.06-0.02-0.08,0.02c-0.01,0.13,0.12,0.13,0.19,0.16c0.23,0.09,0.47,0.16,0.71,0.24c0.62,0.2,1.22,0.43,1.79,0.78
			c0.69,0.42,1.45,0.72,2.24,0.92c0.1,0.03,0.2,0.06,0.28,0.16c-0.44,0.07-0.84,0-1.25-0.13c-0.43-0.14-0.86-0.27-1.27-0.46
			c-0.06-0.03-0.13-0.04-0.15,0.04c-0.01,0.03,0.02,0.09,0.05,0.12c0.07,0.06,0.15,0.12,0.24,0.15c0.9,0.3,1.79,0.62,2.75,0.7
			c0.11,0.01,0.22,0,0.28,0.14c-0.2,0.14-0.41,0.17-0.65,0.08c-0.4-0.15-0.81-0.2-1.23-0.21c-0.42-0.01-0.8-0.09-1.13-0.36
			c-0.03-0.03-0.09-0.02-0.13-0.03c-0.07-0.22-0.3-0.25-0.44-0.4c-0.4-0.44-0.97-0.56-1.49-0.79c0.12,0.19,0.33,0.25,0.52,0.34
			c0.28,0.13,0.55,0.28,0.77,0.52c0.17,0.18,0.4,0.29,0.65,0.33c0.09,0.23,0.31,0.29,0.51,0.37c0.51,0.2,1.04,0.31,1.58,0.37
			c0.12,0.02,0.12,0.01,0.34,0.16c-0.16,0.04-0.3,0.09-0.45,0.12c-0.09,0.01-0.22,0.02-0.27-0.03c-0.2-0.23-0.48-0.18-0.72-0.22
			c-0.49-0.06-0.9-0.25-1.2-0.65c-0.04-0.06-0.09-0.13-0.22-0.09c0.11,0.29,0.23,0.56,0.46,0.79c0.1,0.1,0.2,0.19,0.3,0.29
			c0.03,0.03,0.06,0.07,0.05,0.12c-0.02,0.05-0.05,0.08-0.1,0.08c-0.27,0.02-0.53-0.01-0.78-0.11c-0.04-0.01-0.05-0.04-0.03-0.08
			c0.01-0.03,0.03-0.06,0.05-0.07c0.11-0.05,0.25,0.02,0.35-0.07c-0.02-0.03-0.04-0.08-0.04-0.08c-0.41,0.08-0.79-0.07-1.17-0.18
			c-0.12-0.03-0.23-0.09-0.35-0.12c-0.16-0.05-0.33-0.06-0.5-0.05c-0.04,0.15,0.08,0.2,0.14,0.22c0.41,0.13,0.76,0.37,1.09,0.65
			c0.44,0.37,0.96,0.62,1.57,0.78c-0.24,0.21-0.47,0.32-0.71,0.4c-0.14,0.05-0.3,0.06-0.45,0.08c-0.02,0-0.06-0.02-0.07-0.05
			c-0.01-0.02,0.01-0.07,0.03-0.08c0.21-0.06,0.4-0.16,0.63-0.28c-0.26-0.12-0.47-0.22-0.73-0.15c-0.34,0.09-0.68,0.2-1.12,0.23
			c0.28,0.14,0.45,0.31,0.72,0.19c0.12-0.05,0.22,0.05,0.33,0.13c-0.35,0.12-0.69,0.14-1.06,0.07c-0.36-0.07-0.75,0.05-1.11-0.08
			c-0.02-0.01-0.06,0.02-0.08,0.04c-0.04,0.05-0.01,0.09,0.03,0.11c0.21,0.09,0.41,0.21,0.66,0.11c0.16-0.06,0.35-0.05,0.51,0.01
			c0.34,0.12,0.67,0.1,1.01,0.01c0.18-0.05,0.34-0.02,0.48,0.08c0.02,0.01,0.03,0.05,0.03,0.08c0,0.03-0.03,0.06-0.05,0.07
			c-0.06,0.02-0.12,0.02-0.19,0.02c-0.28,0.01-0.56-0.02-0.83,0.08c-0.14,0.05-0.31,0.03-0.46-0.03c-0.15-0.06-0.3-0.07-0.49-0.06
			c0.09,0.2,0.21,0.29,0.4,0.29c0.11,0,0.23,0.02,0.33-0.02c0.43-0.16,0.88-0.06,1.33-0.08c-0.23,0.11-0.45,0.22-0.63,0.4
			c-0.05,0.05-0.16,0.07-0.22,0.05c-0.26-0.08-0.51-0.05-0.77,0.02c-0.12,0.03-0.24,0-0.36-0.05c-0.41-0.16-0.84-0.21-1.27-0.06
			c-0.12,0.04-0.28,0.02-0.42-0.01c-0.75-0.19-1.51-0.37-2.23-0.65c-0.34-0.13-0.7-0.26-0.96-0.68c1.35,0.44,2.65,0.77,4,0.86
			c-0.21-0.1-0.43-0.16-0.67-0.19c-0.23-0.03-0.45-0.1-0.68-0.16c-0.81-0.2-1.63-0.39-2.44-0.59c-0.51-0.13-0.94-0.38-1.32-0.76
			c0.91,0.21,1.71,0.62,2.58,0.71c-0.49-0.16-0.97-0.33-1.46-0.49c-0.48-0.16-0.96-0.31-1.37-0.62c0.46-0.04,0.88,0.14,1.32,0.2
			c-0.26-0.19-0.57-0.26-0.86-0.34c-0.42-0.12-0.84-0.24-1.21-0.47c-0.08-0.05-0.15-0.1-0.23-0.16c-0.05-0.04-0.08-0.1-0.04-0.16
			c0.03-0.05,0.08-0.03,0.13-0.02c0.39,0.09,0.79,0.17,1.18,0.26c0.03,0.01,0.06,0.02,0.09,0.03c0.06,0.02,0.12,0.04,0.15-0.04
			c0.02-0.06-0.04-0.07-0.09-0.09c-0.31-0.1-0.62-0.21-0.93-0.29c-0.39-0.11-0.76-0.27-1.11-0.48c-0.04-0.02-0.09-0.05-0.07-0.11
			c0.02-0.07,0.09-0.08,0.15-0.06c0.32,0.07,0.64,0.14,0.95,0.22c0.17,0.04,0.33,0.05,0.61,0.04c-0.87-0.37-1.72-0.48-2.52-0.9
			c0.41-0.19,0.72,0.1,1.06,0.08c0.33-0.02,0.63,0.23,1.03,0.14c-0.35-0.14-0.65-0.22-0.98-0.26c-0.45-0.06-0.89-0.17-1.21-0.54
			c-0.03-0.03-0.05-0.09-0.04-0.12c0.02-0.08,0.08-0.06,0.15-0.05c0.36,0.07,0.72,0.15,1.09,0.13c-0.38-0.16-0.79-0.19-1.19-0.25
			c-0.08-0.01-0.16-0.01-0.23-0.02c-0.07-0.01-0.11-0.06-0.11-0.12c0-0.07,0.03-0.13,0.1-0.13c0.16-0.01,0.31-0.02,0.47-0.03
			c0.08,0,0.15,0,0.23-0.02c-0.21-0.09-0.44-0.03-0.66-0.06c-0.09-0.01-0.15-0.06-0.1-0.16c0.05-0.1,0.07-0.22,0.17-0.27
			c0.12-0.05,0.28-0.06,0.17-0.26c-0.01-0.01,0.03-0.06,0.05-0.06c0.35-0.07,0.42-0.48,0.74-0.56c-0.02-0.09-0.07-0.08-0.11-0.09
			c-0.04-0.01-0.11-0.04-0.11-0.07c-0.02-0.07,0.03-0.11,0.1-0.12c0.41-0.09,0.82-0.2,1.24-0.04c-0.16-0.2-0.38-0.22-0.6-0.25
			c-0.12-0.01-0.25,0-0.37-0.01c-0.04,0-0.09-0.02-0.08-0.09c0-0.03,0.02-0.07,0.04-0.08c0.07-0.04,0.15-0.1,0.21-0.09
			c0.33,0.04,0.67,0,0.95,0.28c0.46,0.48,1.04,0.78,1.66,1.01c0.44,0.16,0.88,0.32,1.32,0.45c0.3,0.09,0.6,0.14,0.91,0.2
			c0.38,0.07,0.76,0.18,1.12,0.31c0.12,0.04,0.23,0.09,0.4,0.06c-0.16-0.15-0.34-0.2-0.52-0.27c-0.51-0.19-1.06-0.25-1.58-0.37
			c-0.84-0.19-1.63-0.53-2.37-0.95c-0.23-0.13-0.43-0.31-0.63-0.48c-0.14-0.12-0.26-0.26-0.46-0.45c0.28,0.04,0.39,0.15,0.52,0.25
			c0.5,0.37,1.01,0.74,1.61,0.94c0.07,0.02,0.15,0.06,0.24,0c-0.08-0.15-0.25-0.17-0.38-0.24c-0.55-0.29-1.11-0.57-1.6-0.96
			c-0.22-0.17-0.46-0.33-0.56-0.61c-0.02-0.04-0.03-0.09,0.03-0.11c0.03-0.01,0.07-0.01,0.09,0c0.09,0.06,0.18,0.12,0.25,0.2
			c0.35,0.39,0.78,0.66,1.31,0.81c-0.02-0.18-0.19-0.18-0.28-0.25c-0.12-0.09-0.27-0.16-0.39-0.25c-0.11-0.08-0.22-0.16-0.3-0.34
			c0.29,0.08,0.51,0.21,0.72,0.35c0.63,0.38,1.29,0.68,2.02,0.82c0.17,0.03,0.34,0.06,0.51,0.06c0.8,0,1.59,0.02,2.39-0.02
			c0.52-0.02,1.04-0.14,1.54-0.38c-0.14-0.09-0.23-0.02-0.33,0.01c-0.38,0.13-0.79,0.17-1.19,0.19c-0.53,0.03-1.06,0.02-1.59,0.02
			c-0.53,0-1.05-0.1-1.56-0.24c-0.66-0.18-1.31-0.4-1.93-0.7c-0.38-0.18-0.74-0.4-0.95-0.79c-0.02-0.04-0.03-0.09,0.02-0.12
			c0.02-0.01,0.07-0.01,0.09,0c0.13,0.11,0.26,0.23,0.4,0.33c0.54,0.38,1.16,0.61,1.8,0.74c0.64,0.13,1.29,0.21,1.94,0.21
			c0.06,0,0.13,0.02,0.2-0.06c-0.51-0.04-0.97-0.17-1.42-0.37c-0.21-0.09-0.46-0.07-0.68-0.13c-0.65-0.18-1.25-0.46-1.82-0.82
			c-0.09-0.06-0.17-0.11-0.29-0.14c-0.26-0.05-0.26-0.07-0.23-0.44c0.51,0.35,1.03,0.66,1.62,0.83c0.46,0.13,0.93,0.24,1.41,0.3
			c0.5,0.07,0.99,0.05,1.49,0.07c0.17,0.01,0.34-0.01,0.51,0.04c0.31,0.09,0.61,0.05,0.9-0.14c-0.53,0-1.06,0.03-1.58-0.01
			c-1.08-0.06-2.13-0.23-3.1-0.75c-0.18-0.1-0.35-0.21-0.52-0.31c-0.12-0.07-0.24-0.16-0.39-0.15c-0.3,0.03-0.43-0.14-0.49-0.39
			c-0.01-0.05-0.07-0.12,0-0.16c0.06-0.03,0.12-0.02,0.17,0.02c0.49,0.37,1.05,0.6,1.63,0.77c0.48,0.13,0.98,0.18,1.47,0.21
			c0.74,0.05,1.49,0.1,2.23,0.17c0.18,0.02,0.36-0.09,0.57-0.04c-0.07-0.15-0.17-0.11-0.24-0.11c-0.63,0.02-1.24-0.06-1.85-0.19
			c-0.56-0.12-1.13-0.13-1.69-0.27c-0.35-0.09-0.69-0.17-0.98-0.41c-0.13-0.11-0.3-0.17-0.44-0.27c-0.11-0.08-0.23-0.08-0.36-0.08
			c-0.09,0-0.17,0.11-0.26,0.02c-0.1-0.1-0.21-0.19-0.26-0.33c-0.01-0.04,0-0.09,0.02-0.13c0.03-0.05,0.08-0.04,0.12-0.02
			c0.37,0.2,0.79,0.29,1.18,0.43C11.12,24.77,11.37,24.81,11.62,24.79c0.33,0.2,0.7,0.21,1.05,0.25c0.85,0.11,1.7,0.14,2.55,0.11
			c0.1,0,0.21,0.03,0.3-0.04c-0.05-0.12-0.15-0.12-0.24-0.12c-0.26,0-0.53-0.01-0.79-0.01c-0.51-0.01-1.02-0.02-1.53-0.07
			C12.51,24.87,12.07,24.76,11.62,24.79z M19.45,10.86c-0.45-0.1-0.86-0.29-1.24-0.56c0.2,0.43,0.71,0.5,1,0.86
			c-0.53,0.14-0.92-0.23-1.42-0.36c0.19,0.27,0.44,0.35,0.63,0.51c0.02,0.02,0.03,0.05,0.03,0.08c0,0.02-0.03,0.07-0.05,0.07
			c-0.27,0.01-0.54,0.12-0.79-0.08c-0.19-0.16-0.4-0.29-0.61-0.44c-0.09,0.27,0.03,0.49,0.12,0.72c0.21,0.51,0.22,0.51,0.2,1.17
			c-0.54-0.25-0.42-0.27-1.04-0.16c0.16,0.04,0.31,0.13,0.49,0.15c0.1,0.01,0.2,0.08,0.3,0.13c0.05,0.03,0.09,0.09,0.07,0.16
			c-0.03,0.07-0.09,0.09-0.15,0.06c-0.12-0.04-0.22-0.11-0.34-0.15c-0.1-0.03-0.2-0.1-0.35-0.05c0.14,0.13,0.27,0.18,0.4,0.21
			c0.17,0.04,0.2,0.19,0.22,0.37c0.17-0.17,0.3-0.3,0.43-0.44c0.59-0.67,1.24-1.27,2-1.74c0.19-0.12,0.4-0.25,0.43-0.52
			c0.08-0.65,0.35-1.26,0.62-1.84c0.4-0.87,1.04-1.58,1.79-2.18c-0.2-0.06-0.19-0.06-0.37,0.11c-0.04,0.04-0.11,0.09-0.16,0.09
			c-0.15-0.01-0.32-0.09-0.21,0.2c0.04,0.1-0.23,0.08-0.23,0.25c0,0.15-0.11,0.17-0.23,0.17c-0.08,0-0.16-0.01-0.23,0
			c-0.07,0-0.12,0.04-0.15,0.1c-0.04,0.1,0.06,0.08,0.11,0.1c0.07,0.02,0.11,0.07,0.11,0.13c0,0.09-0.07,0.13-0.16,0.13
			c-0.08,0-0.16,0-0.23,0.01c-0.06,0.01-0.14,0.08-0.12,0.12c0.1,0.21-0.03,0.23-0.19,0.25c-0.11,0.02-0.17,0.09-0.04,0.18
			c0.08,0.06,0.24,0.09,0.16,0.23c-0.06,0.1-0.2,0.06-0.3,0.03c-0.04-0.01-0.09-0.04-0.13-0.05c-0.06-0.02-0.13-0.01-0.16,0.05
			c-0.03,0.06,0,0.12,0.05,0.16c0.11,0.08,0.23,0.16,0.34,0.25c0.02,0.02,0.03,0.09,0.02,0.13c-0.02,0.05-0.08,0.05-0.12,0.03
			c-0.03-0.01-0.05-0.03-0.08-0.05c-0.11-0.07-0.19-0.22-0.35-0.14c-0.1,0.05,0.02,0.23,0.26,0.37c0.04,0.02,0.09,0.02,0.13,0.04
			c0.05,0.02,0.08,0.05,0.06,0.1c-0.02,0.07-0.08,0.09-0.15,0.08c-0.13-0.01-0.21-0.17-0.37-0.12c0.05,0.18,0.32,0.16,0.31,0.37
			c-0.14,0.13-0.26-0.11-0.4-0.02c0.03,0.04,0.05,0.08,0.08,0.11c0.09,0.07,0.31,0.1,0.23,0.24c-0.11,0.19-0.17-0.09-0.28-0.09
			c-0.3,0-0.51-0.21-0.76-0.32c-0.04-0.02-0.08-0.06-0.15,0.01C18.71,10.41,19.19,10.5,19.45,10.86z M11.17,29.31
			c0.19,0.16,0.36,0.26,0.54,0.35c0.57,0.3,1.17,0.48,1.79,0.63c0.76,0.18,1.53,0.36,2.26,0.67c0.01,0,0.03-0.01,0.04-0.02
			c-0.01-0.02-0.02-0.06-0.04-0.07c-0.76-0.46-1.61-0.72-2.47-0.9c-0.57-0.12-1.11-0.25-1.63-0.52
			C11.52,29.38,11.4,29.27,11.17,29.31z M17.11,29.01c-0.47,0-0.86,0.01-1.25,0c-0.37-0.01-0.74,0.01-1.12-0.05
			c-0.38-0.06-0.77-0.09-1.15-0.17c-0.37-0.08-0.7-0.24-1.06-0.35c-0.35-0.11-0.69-0.29-1.06-0.33c1.14,0.62,2.33,1.04,3.64,1
			c0.28-0.01,0.56,0.02,0.83,0.06C16.3,29.2,16.69,29.28,17.11,29.01z M15.22,34.49c0.05-0.07,0.18-0.01,0.19-0.1
			c0.01-0.06-0.07-0.1-0.13-0.11c-0.22-0.03-0.43-0.04-0.65-0.01c-0.03,0-0.07,0.03-0.07,0.04c0,0.04,0,0.1,0.03,0.12
			c0.07,0.06,0.15,0.11,0.23,0.16c0.53,0.28,1.1,0.25,1.68,0.17c0.02,0,0.04-0.05,0.08-0.11C16.1,34.64,15.65,34.67,15.22,34.49z
			 M16.4,34.16c0.06,0,0.13-0.01,0.19,0c0.21,0.03,0.48-0.11,0.57,0.23c0.01,0.05,0.11,0.04,0.17,0.01
			c0.09-0.05,0.12-0.13,0.11-0.23c-0.01-0.08-0.03-0.15-0.12-0.18c-0.16-0.05-0.32-0.1-0.5-0.11c-0.36-0.02-0.71,0.06-1.06,0.1
			c-0.05,0.01-0.09,0.02-0.09,0.08c0,0.08,0.07,0.1,0.12,0.1C16,34.16,16.2,34.16,16.4,34.16z M5.81,4.21
			c0.04,0.18,0.2,0.24,0.19,0.41C5.98,4.73,5.98,4.87,6.13,4.92c0.12,0.04,0.23,0.09,0.35,0.11c0.06,0.01,0.04-0.05,0.03-0.1
			C6.5,4.89,6.34,4.87,6.44,4.83c0.19-0.07,0.19-0.29,0.4-0.34C6.5,4.28,6.17,4.25,5.81,4.21z M26.51,7.84
			c-0.01-0.03-0.01-0.07-0.03-0.08C26.33,7.7,26.17,7.61,26,7.63c-0.45,0.05-0.87,0.19-1.27,0.38c-0.05,0.02-0.06,0.07-0.03,0.11
			c0.01,0.02,0.06,0.03,0.08,0.03c0.54-0.13,1.08-0.21,1.63-0.25C26.45,7.9,26.49,7.88,26.51,7.84z M17.41,32.15
			c-0.16-0.05-0.3-0.1-0.45-0.13c-0.64-0.17-1.32-0.16-1.93-0.45c-0.04-0.02-0.1,0-0.1,0.05c0,0.04,0.02,0.1,0.05,0.12
			c0.22,0.18,0.47,0.29,0.77,0.28c0.45-0.01,0.9-0.01,1.32,0.16C17.16,32.22,17.28,32.22,17.41,32.15z M26.38,9.53
			c-0.58,0.19-1.12,0.1-1.59,0.39c0.32,0.04,0.64,0.03,0.95,0.04C26.01,9.97,26.19,9.87,26.38,9.53z M25.11,10.96
			c-0.4,0.05-0.79,0.15-1.19,0.15c-0.13,0-0.27,0.06-0.4,0.1c-0.02,0.01-0.05,0.04-0.05,0.06c-0.02,0.07,0.04,0.08,0.08,0.08
			c0.42,0.04,0.83-0.06,1.25-0.1C24.92,11.24,25.09,11.16,25.11,10.96z M23.5,12.02c0.25-0.05,0.5-0.11,0.75-0.16
			c0.07-0.02,0.16-0.06,0.11-0.16c-0.03-0.07-0.1-0.13-0.18-0.11c-0.12,0.03-0.23,0.06-0.36,0.06c-0.2,0-0.39,0.08-0.57,0.16
			c-0.02,0.01-0.06,0.05-0.05,0.07c0.02,0.04,0.05,0.08,0.08,0.1C23.35,12.03,23.42,11.98,23.5,12.02z M25.22,8.71
			c0.31,0.08,0.55-0.09,0.81-0.08c0.2,0.01,0.4-0.06,0.59-0.1c0.02,0,0.05-0.03,0.06-0.05c0.02-0.05-0.02-0.08-0.06-0.11
			c-0.18-0.12-0.36,0-0.54,0C25.78,8.38,25.49,8.48,25.22,8.71z M26.29,7.33c-0.34-0.3-0.68-0.2-0.98-0.15
			c-0.3,0.05-0.59,0.19-0.89,0.29C25.03,7.49,25.62,7.32,26.29,7.33z M20.1,13.3c-0.16-0.08-0.32-0.08-0.46-0.1
			c-0.45-0.06-0.9-0.04-1.35-0.02c-0.02,0-0.05,0.03-0.06,0.06c-0.02,0.06,0.03,0.09,0.07,0.09C18.9,13.32,19.5,13.37,20.1,13.3z
			 M15.6,32.34c0.41,0.26,0.81,0.56,1.32,0.29C16.48,32.56,16.09,32.24,15.6,32.34z M17.67,27.37c0.53,0.04,1.39-0.2,1.91-0.5
			c-0.11-0.01-0.19-0.03-0.26-0.01C18.8,27.03,18.29,27.23,17.67,27.37z M14.32,33.98c0.05,0.02,0.1,0.05,0.14,0.04
			c0.04,0,0.09-0.03,0.11-0.06c0.05-0.06-0.04-0.06-0.06-0.09c-0.2-0.28-0.48-0.28-0.78-0.25c-0.07,0.01-0.12,0.05-0.12,0.12
			c0,0.03,0.05,0.09,0.09,0.1C13.91,33.92,14.11,34,14.32,33.98z M8.76,29.24c0.66,0.24,1.35,0.41,2.06,0.49
			C10.16,29.47,9.46,29.39,8.76,29.24z"/>
		<path d="M26.97,12.37c0.71-0.12,1.42-0.05,2.1-0.17c0.34-0.06,0.68-0.1,1.02-0.09c0.16,0.01,0.22,0.08,0.2,0.23
			c-0.01,0.08-0.06,0.16-0.15,0.12c-0.37-0.18-0.7,0.02-1.05,0.07c-0.3,0.05-0.6,0.14-0.9,0.23c-0.34,0.1-0.7,0.1-1.05,0.15
			c0.54,0,1.08,0.09,1.62-0.04c0.23-0.05,0.46-0.02,0.69-0.09c0.2-0.06,0.44,0,0.61-0.19c0.02-0.02,0.1-0.01,0.12,0.01
			c0.14,0.14,0,0.29-0.01,0.43c-0.01,0.09-0.11,0.11-0.19,0.07c-0.27-0.15-0.54-0.06-0.81,0c-0.45,0.1-0.9,0.27-1.38,0.22
			c-0.08-0.01-0.15,0.02-0.21,0.14c0.21,0.06,0.43,0.04,0.62,0c0.22-0.05,0.43-0.07,0.65-0.07c0.36,0,0.71-0.07,1.06-0.14
			c0.06-0.01,0.12-0.04,0.16,0.03c0.03,0.05,0.03,0.12-0.01,0.18c-0.07,0.1-0.14,0.18-0.16,0.32c-0.04,0.25-0.22,0.37-0.47,0.32
			c-0.29-0.06-0.55-0.04-0.83,0.03c-0.15,0.04-0.31,0.03-0.47,0.03c-0.4,0-0.81,0.01-1.2,0.15c0.72,0.02,1.44,0.1,2.16-0.04
			c0.06-0.01,0.12-0.02,0.18-0.02c0.1,0,0.25-0.07,0.3,0.04c0.06,0.15-0.09,0.2-0.2,0.26c-0.05,0.03-0.13,0.08-0.13,0.12
			c-0.01,0.24-0.16,0.31-0.36,0.35c-0.05,0.01-0.12,0.05-0.08,0.14c0.05,0.12-0.06,0.16-0.1,0.23c-0.11,0.18-0.41,0.14-0.44,0.34
			c-0.04,0.24-0.24,0.3-0.36,0.45c-0.13,0.15-0.31,0.2-0.5,0.15c-0.16-0.04-0.3-0.01-0.46,0.05c-0.35,0.13-0.7,0.25-1.09,0.22
			c-0.1-0.01-0.18,0.03-0.25,0.15c0.41,0.03,0.79,0.09,1.17-0.05c0.07-0.03,0.16-0.03,0.23-0.01c0.07,0.01,0.1,0.09,0.05,0.14
			c-0.17,0.15-0.36,0.35-0.6,0.28c-0.22-0.07-0.43-0.04-0.65-0.04c-0.53-0.01-1.06,0-1.59,0.04c0.7,0.28,1.42,0.32,2.19,0.14
			c-0.25,0.35-0.48,0.46-0.79,0.35c-0.16-0.05-0.31-0.07-0.46-0.04c-0.64,0.11-1.27,0.1-1.89-0.09c-0.05-0.01-0.09,0-0.09,0.06
			c0,0.06,0.04,0.07,0.09,0.08c0.47,0.11,0.94,0.22,1.43,0.2c0.29-0.01,0.59,0.04,0.88-0.08c0.06-0.02,0.13-0.03,0.17,0.04
			c0.04,0.06,0.01,0.13-0.05,0.16c-0.21,0.13-0.39,0.39-0.69,0.17c-0.54,0-1.08,0-1.63,0c0.48,0.23,0.96,0.35,1.48,0.22
			c0.06-0.02,0.13-0.03,0.15,0.05c0.02,0.07-0.04,0.12-0.09,0.15c-0.26,0.19-0.57,0.2-0.85,0.12c-0.31-0.08-0.6-0.08-0.91-0.08
			c-0.42,0-0.83-0.08-1.25-0.11c-0.48-0.04-0.9-0.3-1.39-0.29c-0.06,0-0.14-0.07-0.19-0.13c-0.08-0.09-0.15-0.2-0.22-0.3
			c-0.25-0.4-0.66-0.41-1.07-0.43c-0.02,0-0.04,0.04-0.05,0.07c0,0.01,0.03,0.04,0.05,0.05c0.03,0.01,0.06,0.01,0.09,0.01
			c0.48-0.05,0.81,0.17,0.99,0.61c0.02,0.04,0.04,0.08,0.06,0.13c0.04,0.09,0.2,0.15,0.11,0.27c-0.09,0.11-0.2,0.01-0.3-0.03
			c-0.02-0.01-0.06,0.01-0.09,0.02c0.06,0.2,0.28,0.19,0.38,0.18c0.34-0.03,0.4,0.24,0.55,0.42c0.06,0.07-0.02,0.09-0.07,0.13
			c-0.13,0.09-0.26,0.11-0.38-0.02c-0.09-0.1-0.17-0.07-0.21,0.04c-0.04,0.1-0.09,0.17-0.2,0.16c-0.61-0.1-1.15-0.31-1.42-0.92
			c-0.18-0.41-0.22-0.81,0.07-1.23c0.43-0.62,0.98-1.01,1.68-1.24c0.53-0.17,1.06-0.37,1.5-0.73c0.07-0.06,0.15-0.11,0.22-0.17
			c0.71-0.68,1.38-1.39,1.97-2.18c0.37-0.5,0.82-0.94,1.24-1.4c0.23-0.25,0.5-0.47,0.72-0.74c0.36-0.45,0.87-0.62,1.38-0.82
			c0.21-0.08,0.43-0.07,0.64-0.11c0.24-0.04,0.47-0.04,0.68-0.21c0.05-0.04,0.15-0.04,0.22-0.03c0.25,0.07,0.43,0.22,0.48,0.51
			c-1.01-0.33-1.86,0.02-2.67,0.55c-0.05,0.03-0.05,0.08-0.02,0.11c0.01,0.02,0.06,0.03,0.08,0.02c0.11-0.05,0.23-0.09,0.34-0.16
			c0.47-0.29,0.99-0.35,1.51-0.37c0.19-0.01,0.37-0.01,0.56-0.01c0.51,0,0.65,0.1,0.87,0.61c0.06,0.13,0.21,0.18,0.24,0.33
			c0.01,0.06,0.01,0.13-0.05,0.17c-0.03,0.02-0.1,0.03-0.13,0.01c-0.41-0.31-0.88-0.19-1.31-0.15c-0.59,0.04-1.16,0.2-1.72,0.38
			c-0.04,0.01-0.08,0.05-0.11,0.08c0.03,0.1,0.09,0.04,0.14,0.04c0.99-0.12,1.97-0.28,2.97-0.23c0.28,0.01,0.4,0.18,0.29,0.43
			c-0.04,0.09-0.13,0.18-0.22,0.08c-0.2-0.2-0.44-0.15-0.66-0.13c-0.68,0.08-1.35,0.19-2.03,0.27
			C27.24,12.16,27.16,12.4,26.97,12.37z M29.93,10.91c-0.41-0.34-0.57-0.43-0.89-0.37c-0.65,0.12-1.31,0.27-1.93,0.5
			c-0.1,0.04-0.24,0.05-0.27,0.27C27.85,11.01,28.85,10.81,29.93,10.91z M20.17,17.49c0.08,0.15,0.19,0.18,0.29,0.22
			c0.72,0.25,1.47,0.37,2.21,0.51c0.09,0.02,0.24,0.08,0.28-0.07c0.03-0.12-0.1-0.18-0.18-0.25c-0.06-0.06-0.14-0.05-0.22-0.05
			C21.76,17.81,20.99,17.64,20.17,17.49z M28.16,15.64c-0.63,0.29-1.2,0.24-1.77,0.25c-0.12,0-0.25,0-0.37,0.01
			c-0.06,0-0.13,0.02-0.12,0.1c0.01,0.05,0.06,0.06,0.11,0.06c0.49,0.03,0.97,0.09,1.46,0.03C27.73,16.05,27.94,15.99,28.16,15.64z
			 M26.94,14.76c0.04,0.11,0.1,0.15,0.15,0.15c0.4,0.01,0.79,0.12,1.2,0.12c0.29,0,0.51-0.07,0.67-0.36
			C28.29,14.82,27.62,14.71,26.94,14.76z M19.6,16.72c0.08,0.17,0.2,0.2,0.29,0.23c0.66,0.23,1.35,0.33,2.01,0.59
			c0.04,0.02,0.09,0,0.1-0.05c0-0.02-0.01-0.07-0.03-0.08c-0.25-0.12-0.5-0.24-0.78-0.3C20.68,16.99,20.16,16.9,19.6,16.72z
			 M27.61,15.49C27.61,15.49,27.61,15.49,27.61,15.49c0.17,0.01,0.34,0.01,0.51,0.01c0.16,0,0.3-0.07,0.41-0.18
			c0.03-0.03,0.04-0.09,0.03-0.12c-0.01-0.05-0.07-0.05-0.12-0.04c-0.45,0.1-0.91,0.17-1.37,0.17c-0.06,0-0.13-0.01-0.15,0.07
			c-0.01,0.09,0.06,0.1,0.12,0.1C27.24,15.49,27.43,15.49,27.61,15.49z M29.8,13.64c-0.36-0.05-0.67,0.08-0.98,0.14
			c-0.31,0.05-0.62,0.05-0.94,0.06c0.39,0.19,0.8,0.08,1.18,0.04C29.3,13.85,29.59,13.91,29.8,13.64z"/>
		<path d="M31.6,15.44c0.33,0.15,0.63,0.21,0.94,0.25c0.06,0.01,0.13,0,0.19,0.02c0.13,0.05,0.27,0.14,0.25,0.3
			c-0.02,0.15-0.17,0.16-0.3,0.16c-0.15,0-0.31,0-0.47,0.06c0.19,0.05,0.39,0.1,0.58,0.14c0.07,0.02,0.11,0.06,0.12,0.12
			c0.01,0.09-0.02,0.16-0.1,0.19c-0.05,0.03-0.12,0.04-0.18,0.04c-0.17,0.01-0.34,0.02-0.51,0c-0.67-0.07-1.33,0.02-2,0.01
			c-0.11,0-0.22,0-0.27,0.16c0.22,0,0.44,0,0.66,0c0.37,0,0.74-0.02,1.11,0.09c0.19,0.06,0.43,0.11,0.61-0.1
			c0.14-0.16,0.28,0.05,0.43,0.04c0.01,0,0.04,0.05,0.04,0.07c0.02,0.17-0.24,0.48-0.41,0.48c-0.14,0-0.32,0.04-0.41-0.03
			c-0.27-0.19-0.53-0.08-0.8-0.08c-0.37,0.01-0.74,0-1.18,0c0.65,0.34,1.28,0.29,1.91,0.27c0.09,0,0.19,0,0.28,0
			c0.06,0,0.13,0,0.16,0.07c0.03,0.08-0.03,0.15-0.08,0.2c-0.07,0.07-0.14,0.12-0.24,0.13c-0.14,0.02-0.12,0.09-0.07,0.2
			c0.04,0.09-0.16,0.3-0.31,0.33c-0.07,0.02-0.16,0.03-0.23,0.01c-0.45-0.09-0.89-0.09-1.34-0.04c-0.22,0.02-0.46-0.04-0.69-0.05
			c-0.08,0-0.15,0.01-0.23,0.03c0.66,0.22,1.31,0.38,2,0.17c0.06-0.02,0.14-0.01,0.17,0.04c0.04,0.09-0.03,0.16-0.1,0.18
			c-0.21,0.04-0.41,0.13-0.63,0.14c-0.64,0.03-1.27-0.02-1.9-0.15c-0.13-0.03-0.25-0.05-0.31,0.11c0.54,0.24,1.11,0.27,1.69,0.24
			c0.14-0.01,0.28-0.02,0.42-0.01c0.07,0,0.17,0,0.17,0.11c0,0.1-0.1,0.13-0.16,0.14c-0.4,0.08-0.8,0.05-1.21,0
			c-0.75-0.1-1.47-0.37-2.21-0.49c-0.09-0.01-0.18-0.05-0.32,0.01c0.24,0.16,0.49,0.2,0.73,0.26c0.27,0.06,0.53,0.16,0.8,0.23
			c0.26,0.06,0.52,0.08,0.78,0.14c0.25,0.06,0.51,0.05,0.83,0.22c-0.35,0.1-0.63,0.12-0.86,0.05c-0.48-0.14-0.97-0.14-1.46-0.16
			c-0.38-0.02-0.76-0.18-1.24-0.07c0.93,0.19,1.77,0.43,2.64,0.51c0.05,0,0.1,0,0.14,0.02c0.02,0.01,0.05,0.04,0.05,0.07
			c0,0.02-0.01,0.07-0.03,0.08c-0.16,0.06-0.31,0.14-0.49,0.13c-0.29-0.01-0.58,0-0.88-0.07c-0.44-0.11-0.91-0.16-1.36-0.24
			c-0.01,0.12,0.08,0.1,0.15,0.13c0.5,0.17,1,0.33,1.53,0.38c0.05,0,0.1,0.01,0.13,0.03c0.04,0.02,0.09,0.06,0.09,0.1
			c0,0.06-0.05,0.12-0.12,0.12c-0.12,0.01-0.25,0.04-0.37,0.01c-0.36-0.09-0.75-0.07-1.09-0.25c-0.03-0.02-0.09,0.01-0.18,0.02
			c0.32,0.17,0.6,0.34,0.93,0.35c0.04,0,0.09,0.04,0.08,0.1c-0.01,0.03-0.03,0.06-0.05,0.07c-0.25,0.13-0.5,0.14-0.77,0.07
			c-0.52-0.14-1.05-0.27-1.58-0.4c-0.09-0.02-0.18-0.04-0.31,0.03c0.52,0.36,1.14,0.36,1.66,0.62c-0.03,0.15-0.14,0.18-0.25,0.16
			c-0.63-0.11-1.26-0.21-1.77-0.64c-0.06-0.05-0.09-0.08-0.03-0.13c0.13-0.11,0.07-0.19-0.05-0.24c-0.17-0.07-0.35-0.12-0.53-0.16
			c-0.19-0.05-0.39-0.07-0.62-0.11c0.23,0.28,0.62,0.23,0.83,0.49c-0.13,0.08-0.24,0.04-0.36,0c-0.35-0.12-0.71-0.22-1.02-0.44
			c-0.15-0.11-0.33-0.16-0.53-0.15c0.02,0.09,0.07,0.14,0.12,0.14c0.52,0.06,0.73,0.43,0.87,0.85c0.03,0.08,0.13,0.19,0.04,0.25
			c-0.13,0.09-0.12-0.08-0.18-0.14c-0.03-0.03-0.08-0.09-0.11-0.08c-0.48,0.12-0.8-0.24-1.2-0.37c-0.03-0.01-0.06,0-0.13,0
			c0.17,0.21,0.4,0.26,0.59,0.35c0.19,0.1,0.41,0.16,0.55,0.34c0.14,0.18,0.43,0.18,0.56,0.46c-0.51-0.05-0.85-0.4-1.36-0.53
			c0.19,0.3,0.42,0.44,0.7,0.5c0.02,0,0.04,0.05,0.04,0.07c0,0.06-0.04,0.08-0.09,0.08c-0.05,0-0.1,0-0.13-0.02
			c-0.12-0.07-0.2-0.07-0.17,0.1c-0.27,0.16-0.8-0.06-0.89-0.38c-0.09-0.33-0.17-0.67-0.05-1.01c0.02-0.06,0.05-0.14,0.03-0.18
			c-0.2-0.3,0.03-0.46,0.21-0.63c0.3-0.28,0.65-0.46,1.07-0.51c0.46-0.06,0.92-0.08,1.36-0.26c0.41-0.17,0.79-0.39,1.13-0.65
			c0.64-0.49,1.32-0.94,1.97-1.41c0.63-0.46,1.2-0.99,1.81-1.48c0.59-0.46,1-1.07,1.42-1.66c0.17-0.24,0.38-0.36,0.67-0.34
			c0.22,0.02,0.47-0.07,0.7,0.14c-0.2,0.07-0.37,0.12-0.6,0.19c0.26,0.05,0.46,0.1,0.67,0.12c0.13,0.02,0.24,0.07,0.35,0.13
			c0.05,0.03,0.11,0.07,0.09,0.14c-0.02,0.06-0.08,0.09-0.15,0.1c-0.17,0.01-0.34,0.02-0.51,0.06c0.24,0.05,0.49,0.09,0.72,0.16
			c0.15,0.04,0.29,0.12,0.38,0.26c0.04,0.07,0.08,0.14,0.05,0.22c-0.03,0.09-0.12,0.08-0.2,0.08C32.16,15.42,31.9,15.38,31.6,15.44z
			 M30.31,16.35c0.41,0,0.78,0,1.15,0c0.06,0,0.13,0,0.18-0.02c0.08-0.03,0.11-0.13,0.1-0.19c0-0.08-0.09-0.02-0.14-0.03
			c-0.36-0.05-0.72,0.06-1.08,0.06C30.44,16.17,30.37,16.2,30.31,16.35z M31.13,18.24c0.15-0.01,0.31-0.02,0.46-0.04
			c0.04,0,0.09-0.03,0.07-0.09c-0.01-0.02-0.04-0.05-0.06-0.05c-0.43-0.01-0.85-0.14-1.29-0.1c-0.02,0-0.04,0-0.04,0.01
			c-0.02,0.02-0.05,0.04-0.05,0.07c0,0.02,0.03,0.06,0.04,0.06C30.56,18.12,30.83,18.25,31.13,18.24z"/>
		<path d="M31.42,19.82c0.23,0,0.45,0,0.66,0c0.31,0.01,0.5,0.15,0.54,0.46c0.02,0.12,0.07,0.2,0.13,0.28
			c0.05,0.07,0.05,0.14-0.01,0.21c-0.05,0.05-0.1,0.09-0.16,0.06c-0.43-0.19-0.92-0.09-1.34-0.33c-0.12-0.07-0.3-0.04-0.49,0.02
			c0.37,0.17,0.75,0.2,1.09,0.32c0.25,0.09,0.51,0.14,0.78,0.1c0.1-0.02,0.19,0.04,0.19,0.16c0,0.12-0.09,0.15-0.19,0.15
			c-0.08,0-0.15,0-0.25,0c0.05,0.17,0.18,0.15,0.29,0.17c0.06,0.01,0.12,0.04,0.12,0.12c0,0.09-0.06,0.15-0.14,0.16
			c-0.07,0.01-0.15-0.02-0.23-0.04c-0.23-0.05-0.46-0.07-0.69-0.01c0.31,0.06,0.56,0.31,0.9,0.26c0.08-0.01,0.08,0.07,0.06,0.14
			c-0.07,0.2-0.13,0.23-0.35,0.17c-0.08-0.02-0.15-0.05-0.23-0.02c0.05,0.1,0.14,0.13,0.23,0.15c0.1,0.02,0.19,0.04,0.17,0.17
			c-0.01,0.12-0.07,0.21-0.2,0.23c-0.03,0.01-0.06,0.01-0.09,0c-0.42-0.06-0.86-0.02-1.26-0.25c-0.18-0.11-0.43-0.03-0.65-0.19
			c0.03,0.18,0.13,0.19,0.19,0.21c0.49,0.16,0.97,0.34,1.49,0.31c0.11-0.01,0.24-0.01,0.23,0.15c0,0.16-0.14,0.33-0.27,0.31
			c-0.29-0.03-0.58-0.08-0.87-0.14c-0.32-0.08-0.62-0.18-0.94-0.28c-0.07-0.02-0.14-0.06-0.24,0c0.58,0.39,1.26,0.36,1.91,0.55
			c-0.07,0.19-0.2,0.26-0.39,0.26c-0.16,0-0.3-0.06-0.46-0.09c-0.61-0.11-1.22-0.24-1.78-0.53c-0.04-0.02-0.09-0.03-0.13-0.04
			c-0.03,0-0.06,0.02-0.11,0.03c0.63,0.57,1.43,0.63,2.3,0.7c-0.28,0.25-0.46,0.29-0.72,0.23c-0.57-0.13-1.16-0.21-1.72-0.39
			c-0.39-0.12-0.73-0.34-1.13-0.49c-0.03,0.13,0.06,0.18,0.13,0.22c0.63,0.39,1.31,0.66,2.03,0.81c0.18,0.04,0.37,0.06,0.55-0.05
			c0.04-0.02,0.1-0.03,0.12,0.02c0.03,0.06,0.01,0.12-0.05,0.16c-0.15,0.09-0.29,0.18-0.48,0.16c-0.1-0.01-0.17,0-0.15,0.15
			c0.01,0.04-0.13,0.03-0.13-0.03c-0.01-0.14-0.06-0.19-0.19-0.21c-0.29-0.05-0.56-0.17-0.86-0.21c-0.4-0.05-0.76-0.25-1.12-0.45
			c-0.07-0.04-0.14-0.06-0.23-0.1c0.15,0.2,0.35,0.35,0.64,0.47c0.47,0.2,0.93,0.44,1.45,0.48c0.02,0,0.03,0,0.05,0.01
			c0.07,0.03,0.15,0.07,0.14,0.16c-0.02,0.11-0.12,0.1-0.18,0.08c-0.4-0.12-0.82-0.19-1.21-0.35c-0.26-0.1-0.52-0.19-0.8-0.29
			c0.01,0.15,0.11,0.17,0.18,0.2c0.36,0.18,0.7,0.4,1.11,0.48c0.17,0.03,0.32,0.13,0.49,0.02c0.01-0.01,0.08,0.04,0.1,0.07
			c0.03,0.07-0.04,0.08-0.08,0.07c-0.15-0.03-0.27,0.07-0.4,0.11c-0.21,0.07-0.33,0.07-0.52-0.12c-0.27-0.27-0.67-0.38-1.03-0.54
			c-0.32-0.14-0.67-0.23-0.97-0.45c-0.16-0.12-0.08,0.09-0.12,0.12c-0.12,0.08-0.24,0.02-0.35-0.04c-0.41-0.23-0.83-0.43-1.2-0.72
			c-0.22-0.17-0.44-0.34-0.66-0.52C23.9,22.92,24,22.96,24.04,23c0.55,0.53,1.18,0.96,1.86,1.33c0.34,0.19,0.68,0.38,1.02,0.56
			c0.18,0.09,0.26,0.33,0.5,0.32c-0.18,0.07-0.35,0.12-0.48-0.05c-0.19-0.25-0.48-0.33-0.74-0.45c-0.61-0.27-1.2-0.6-1.76-0.96
			c-0.12-0.08-0.23-0.16-0.26-0.32c-0.04-0.23-0.23-0.24-0.41-0.3c0.2,0.24,0.36,0.5,0.51,0.76c0.04,0.07,0.11,0.14,0.08,0.21
			c-0.15,0.36,0.13,0.45,0.35,0.58c0.05,0.03,0.11,0.06,0.16,0.1c0.04,0.03,0.06,0.07,0.04,0.12c-0.02,0.05-0.07,0.06-0.11,0.05
			c-0.21-0.09-0.44-0.09-0.62-0.28c-0.15-0.16-0.4-0.23-0.61-0.33c-0.11-0.06-0.23-0.12-0.24,0.1c0,0.06-0.09,0.08-0.15,0.04
			c-0.12-0.08-0.22-0.18-0.29-0.3c-0.06-0.11-0.12-0.22-0.17-0.33c-0.24-0.52-0.08-0.93,0.46-1.1c0.56-0.17,1.13-0.33,1.7-0.46
			c1.09-0.26,2.14-0.65,3.14-1.14c0.56-0.28,1.09-0.61,1.62-0.92c0.54-0.31,1.07-0.63,1.6-0.95c0.11-0.06,0.21-0.15,0.26,0.07
			c0.04,0.17,0.19,0.11,0.3,0.06c0.17-0.08,0.26,0.01,0.34,0.14c0.05,0.09-0.01,0.19-0.12,0.19c-0.11,0.01-0.21-0.03-0.32-0.06
			C31.61,19.63,31.49,19.64,31.42,19.82z"/>
		<path d="M2.2,36.28c-0.13-0.12-0.22-0.18-0.09-0.39c0.86-1.39,1.74-2.76,2.82-4c0.31-0.35,0.6-0.71,0.91-1.07
			c0.03-0.04,0.07-0.12,0.15-0.07c0.06,0.03,0.09,0.08,0.05,0.15C5.99,30.98,6,31.06,6.08,31.1c0.15,0.06,0.2,0.18,0.24,0.32
			c0.05,0.17,0.22,0.05,0.3,0.1c0.11,0.08-0.09,0.23,0.02,0.34c0.04,0.04,0.1,0.13,0.13,0.12c0.22-0.05,0.26,0.05,0.27,0.25
			c0.01,0.18,0.14,0.22,0.34,0.13c0.05-0.02,0.08-0.03,0.12,0.01c0.03,0.03,0.07,0.07,0.03,0.12c-0.14,0.12-0.16,0.31-0.3,0.45
			c-0.24,0.23-0.41,0.54-0.6,0.83C6.23,34.38,5.85,35,5.46,35.62c-0.03,0.05-0.06,0.11-0.1,0.16c-0.07,0.1-0.13,0.01-0.2-0.01
			c-0.09-0.03-0.07-0.08-0.04-0.14c0.09-0.15,0.18-0.29,0.27-0.44c0.47-0.77,0.96-1.53,1.5-2.25c0.05-0.06,0.1-0.12,0.12-0.2
			c0.03-0.12-0.07-0.16-0.15-0.2c-0.07-0.04-0.1,0.01-0.14,0.06c-0.42,0.63-0.85,1.27-1.27,1.9c-0.07,0.1-0.14,0.2-0.2,0.31
			c-0.08,0.16-0.2,0.1-0.35,0.09c0.22-0.43,0.48-0.81,0.74-1.19c0.29-0.42,0.58-0.84,0.88-1.27c0.03-0.04,0.04-0.08,0.07-0.12
			c0.08-0.14-0.04-0.2-0.12-0.26C6.37,32,6.33,32.1,6.3,32.16c-0.53,0.86-1.05,1.73-1.58,2.59c-0.03,0.05-0.06,0.11-0.09,0.16
			c-0.06,0.09-0.12,0.04-0.19,0.02c-0.11-0.04-0.1-0.09-0.05-0.17c0.14-0.22,0.28-0.45,0.42-0.67c0.46-0.71,0.92-1.41,1.37-2.11
			c0.03-0.05,0.09-0.09,0.08-0.16c0-0.07-0.04-0.12-0.1-0.15C6.09,31.62,6.04,31.65,6,31.7c-0.32,0.44-0.65,0.87-0.97,1.32
			c-0.59,0.82-1.2,1.63-1.74,2.48c-0.13,0.21-0.26,0.42-0.39,0.64C2.86,36.2,2.83,36.3,2.75,36.3c-0.07,0-0.13-0.07-0.21-0.11
			c0.27-0.48,0.57-0.93,0.88-1.38c0.74-1.08,1.57-2.09,2.36-3.13c0.07-0.1,0.14-0.2,0.19-0.31c0.03-0.06-0.03-0.12-0.08-0.16
			c-0.05-0.04-0.09,0-0.12,0.04c-0.19,0.22-0.39,0.45-0.58,0.68C4.09,33.29,3.1,34.74,2.2,36.28z"/>
		<path d="M8.28,37.12c0.07-0.74,0.35-1.43,0.36-2.18c-0.12,0.23-0.25,0.46-0.37,0.68c-0.33,0.59-0.65,1.17-0.98,1.75
			c-0.03,0.05-0.07,0.11-0.12,0.14c-0.06,0.04-0.13,0.01-0.13-0.07c-0.01-0.06,0.02-0.12,0.03-0.18c0.26-1.05,0.48-2.11,0.77-3.15
			c-0.2,0.15-0.3,0.37-0.41,0.57c-0.53,0.99-1.06,1.98-1.59,2.97c-0.03,0.05-0.06,0.11-0.09,0.17c-0.05,0.09-0.1,0.08-0.18,0.04
			c-0.08-0.04-0.13-0.07-0.07-0.17c0.23-0.41,0.45-0.82,0.67-1.23c0.41-0.73,0.82-1.47,1.24-2.2c0.12-0.2,0.25-0.4,0.38-0.59
			c0.12-0.18,0.15-0.17,0.34-0.07c0.08,0.04,0.07,0.07,0.05,0.14c-0.03,0.1-0.04,0.22-0.07,0.32c-0.29,0.75-0.41,1.55-0.61,2.34
			c-0.01,0.02,0.02,0.06,0.03,0.09c0.09-0.02,0.11-0.09,0.15-0.16C8,35.7,8.33,35.08,8.65,34.46c0.02-0.04,0.04-0.09,0.06-0.13
			c0.03-0.04,0.06-0.07,0.11-0.05c0.05,0.02,0.07,0.06,0.07,0.11c0,0.23,0.03,0.48-0.02,0.7C8.74,35.78,8.56,36.47,8.28,37.12z"/>
		<path d="M18.57,15.33c0.03,0.09,0.09,0.14,0.18,0.17c0.06,0.18,0.2,0.34,0.1,0.55c-0.07,0.06-0.16,0.11-0.21,0.18
			c-0.26,0.31-0.31,0.32-0.68,0.14c-0.07-0.04-0.15-0.06-0.11-0.16c0.03-0.07,0.1-0.15,0.18-0.12c0.19,0.08,0.33-0.06,0.5-0.11
			c-0.21,0-0.43-0.02-0.64,0c-0.31,0.04-0.61-0.1-0.92-0.04c-0.08,0.02-0.18-0.05-0.26-0.1c-0.14-0.09-0.16-0.25-0.03-0.35
			c0.3-0.21,0.59-0.45,0.95-0.58c0.24-0.09,0.42-0.04,0.6,0.11C18.34,15.12,18.45,15.23,18.57,15.33z"/>
		<path d="M16.9,37.1c-1-0.05-1.82-0.28-2.63-0.54c-0.41-0.13-0.85-0.21-1.23-0.41c-0.05-0.03-0.12-0.04-0.16-0.08
			c-0.03-0.02-0.04-0.09-0.03-0.13c0.01-0.05,0.06-0.05,0.1-0.03c0.24,0.07,0.47,0.15,0.71,0.21c0.67,0.19,1.37,0.26,2.05,0.38
			c0.11,0.02,0.28-0.02,0.18,0.19c-0.03,0.07,0.04,0.07,0.07,0.08c0.36,0.07,0.72,0.14,1.1,0.03c0.42-0.13,0.89-0.11,1.27-0.37
			c0.03-0.02,0.09-0.01,0.13-0.01c0.02,0,0.05,0.03,0.06,0.06c0.01,0.02-0.01,0.07-0.03,0.08C17.92,36.73,17.43,37.22,16.9,37.1z"/>
		<path d="M18.34,37.4c-0.1,0.19-0.28,0.22-0.46,0.23c-1.22,0.06-2.42-0.04-3.58-0.46c-0.22-0.08-0.44-0.16-0.61-0.33
			c-0.03-0.03-0.03-0.08-0.05-0.12c0.04-0.01,0.1-0.03,0.13-0.02c0.39,0.15,0.79,0.28,1.21,0.31c0.49,0.04,0.96,0.24,1.44,0.3
			c0.57,0.07,1.16,0.19,1.74,0.03C18.22,37.34,18.28,37.34,18.34,37.4z"/>
		<path d="M5.3,37.24c-0.07-0.04-0.14-0.07-0.23-0.11c0.72-1.49,1.51-2.93,2.54-4.23c0.04-0.05,0.09-0.09,0.14-0.11
			c0.05-0.02,0.1,0.02,0.09,0.07c-0.02,0.09-0.06,0.18-0.11,0.25c-0.95,1.24-1.64,2.64-2.37,4.02C5.34,37.16,5.32,37.2,5.3,37.24z"
			/>
		<path d="M18.47,41.61c-0.14,0.08-0.21,0.05-0.28,0.01c-0.93-0.43-1.81-0.96-2.66-1.52c-0.28-0.19-0.57-0.37-0.85-0.56
			c-0.09-0.06-0.17-0.13-0.26-0.2c-0.05-0.04-0.09-0.1-0.05-0.16c0.04-0.07,0.11-0.04,0.16,0c0.51,0.32,1.02,0.65,1.53,0.97
			c0.6,0.39,1.21,0.76,1.84,1.09C18.08,41.35,18.26,41.47,18.47,41.61z"/>
		<path d="M17.96,38.01c-0.11,0.19-0.21,0.21-0.39,0.21c-0.55,0-1.09-0.04-1.63-0.11c-0.46-0.06-0.92-0.14-1.33-0.38
			c-0.04-0.02-0.08-0.06-0.06-0.11c0.01-0.05,0.05-0.07,0.1-0.07c0.25,0.04,0.5,0.05,0.73,0.12c0.17,0.05,0.34,0.05,0.51,0.06
			c0.09,0,0.2,0,0.27,0.04c0.46,0.23,0.96,0.25,1.46,0.24C17.73,38,17.84,38.01,17.96,38.01z"/>
		<path d="M18.1,42.1c-0.2-0.04-0.37-0.06-0.54-0.13c-0.99-0.42-1.89-1-2.79-1.59c-0.05-0.03-0.12-0.05-0.13-0.12
			c-0.01-0.03-0.01-0.06,0-0.09c0.02-0.05,0.06-0.06,0.11-0.04c0.08,0.04,0.17,0.08,0.25,0.13c0.45,0.27,0.9,0.56,1.35,0.83
			c0.45,0.27,0.9,0.55,1.41,0.71C17.88,41.83,18.06,41.87,18.1,42.1z"/>
		<path d="M17.69,42.43c-0.02,0.02-0.03,0.06-0.05,0.06c-0.03,0.01-0.06,0-0.09-0.01c-0.97-0.31-1.9-0.69-2.76-1.24
			c-0.07-0.04-0.12-0.09-0.19-0.14c-0.07-0.05-0.11-0.13-0.07-0.2c0.05-0.1,0.12-0.05,0.19,0c0.74,0.49,1.54,0.87,2.38,1.18
			c0.17,0.06,0.34,0.16,0.5,0.25C17.65,42.34,17.69,42.37,17.69,42.43z"/>
		<path d="M25.1,25.34c0.39-0.04,0.8,0.1,1.22,0.29c0.59,0.28,1.24,0.36,1.9,0.37c0.06,0,0.13,0,0.19,0.01
			c0.02,0,0.04,0.04,0.04,0.06c0,0.03-0.02,0.06-0.05,0.07c-0.04,0.02-0.1,0.04-0.13,0.03c-0.25-0.13-0.52-0.08-0.78-0.06
			c-0.38,0.02-0.74-0.08-1.11-0.11c-0.09-0.01-0.22-0.04-0.25-0.11c-0.18-0.34-0.52-0.28-0.81-0.34c-0.1-0.02-0.22,0-0.31-0.07
			c-0.04-0.03-0.14-0.01-0.12-0.1C24.9,25.32,24.96,25.27,25.1,25.34z"/>
		<path d="M14.34,41.41c0.03,0.01,0.08,0.03,0.11,0.05c0.4,0.24,0.8,0.48,1.2,0.72c0.45,0.27,0.97,0.41,1.45,0.62
			c0.04,0.02,0.08,0.03,0.12,0.06c0.01,0,0.01,0.03,0.01,0.04c-0.01,0.03-0.03,0.06-0.05,0.07c-0.04,0.01-0.09,0.01-0.14,0
			c-0.98-0.24-1.83-0.73-2.65-1.3c-0.05-0.03-0.09-0.09-0.12-0.14C14.25,41.49,14.27,41.44,14.34,41.41z"/>
		<path d="M23.33,19.11c-0.08,0.1-0.13,0.13-0.22,0.12c-0.4-0.05-0.79-0.12-1.18-0.21c-0.21-0.05-0.42-0.13-0.64-0.13
			c-0.29,0-0.44-0.2-0.64-0.35c-0.03-0.02-0.04-0.09-0.03-0.13c0.03-0.09,0.09-0.05,0.15-0.03c0.47,0.21,0.97,0.31,1.47,0.45
			c0.24,0.07,0.49,0.1,0.73,0.14C23.09,18.99,23.2,19.03,23.33,19.11z"/>
		<path d="M18.85,16.05c0.1-0.21-0.04-0.37-0.1-0.55c0.05-0.01,0.08-0.03,0.09-0.08c0.04,0.01,0.09,0.02,0.13,0.05
			c0.33,0.2,0.67,0.3,1.06,0.13c0.08-0.03,0.18,0,0.3,0c-0.18,0.19-0.34,0.31-0.57,0.31c-0.14,0.24-0.41,0.25-0.63,0.35
			C18.93,16.34,18.93,16.33,18.85,16.05z"/>
		<path d="M16.66,43.44c-0.33,0.05-0.59-0.1-0.84-0.2c-0.51-0.2-0.98-0.47-1.45-0.75c-0.08-0.05-0.14-0.12-0.2-0.19
			c-0.03-0.04-0.03-0.09,0.01-0.12c0.02-0.02,0.06-0.03,0.08-0.02c0.07,0.03,0.15,0.06,0.21,0.1c0.58,0.39,1.21,0.68,1.86,0.94
			C16.45,43.24,16.59,43.26,16.66,43.44z"/>
		<path d="M16.21,43.99c-0.74-0.29-1.45-0.57-2.1-0.98c-0.12-0.08-0.25-0.14-0.31-0.27c-0.01-0.02-0.01-0.06,0.01-0.08
			c0.01-0.02,0.06-0.04,0.08-0.03c0.07,0.02,0.15,0.05,0.21,0.09c0.58,0.36,1.21,0.64,1.82,0.95
			C16.03,43.74,16.19,43.76,16.21,43.99z"/>
		<path d="M23.14,20.87c0.03,0.01,0.07,0.02,0.11,0.04c0.46,0.32,1.02,0.45,1.5,0.73c0.12,0.07,0.24,0.05,0.36,0.04
			c0.06,0,0.12-0.05,0.17-0.04c0.1,0.03,0.21,0.07,0.26,0.18c0.01,0.02-0.01,0.06-0.03,0.08c-0.09,0.09-0.21,0.09-0.29,0.01
			c-0.12-0.12-0.29-0.08-0.42-0.11c-0.5-0.11-0.97-0.32-1.44-0.52c-0.14-0.06-0.23-0.16-0.28-0.29
			C23.07,20.95,23.07,20.9,23.14,20.87z"/>
		<path d="M4.22,2.29C4.37,2.38,4.48,2.5,4.57,2.65c0.13,0.21,0.33,0.37,0.41,0.62C5,3.32,5.04,3.37,5.04,3.43
			c0.01,0.06,0,0.12-0.08,0.14C4.91,3.59,4.85,3.56,4.85,3.52C4.81,3.27,4.5,3.19,4.48,2.93C4.47,2.83,4.36,2.79,4.28,2.74
			C4.06,2.6,3.9,2.38,3.71,2.2C3.67,2.15,3.64,2.09,3.69,2.03c0.06-0.07,0.14-0.06,0.21-0.01C4,2.11,4.11,2.2,4.22,2.29z"/>
		<path d="M10.09,19.53c-0.27,0.06-0.56-0.06-0.85-0.09c-0.22-0.02-0.31-0.19-0.41-0.34c-0.03-0.05,0.01-0.13,0.09-0.12
			c0.12,0.02,0.27,0.03,0.35,0.1c0.25,0.23,0.55,0.17,0.84,0.17c0.15,0,0.31-0.03,0.44,0.08c0.04,0.04,0.12,0.06,0.09,0.13
			c-0.01,0.03-0.07,0.06-0.11,0.06C10.4,19.53,10.26,19.53,10.09,19.53z"/>
		<path d="M13.72,43.29c0.04-0.01,0.1-0.04,0.13-0.02c0.61,0.31,1.21,0.63,1.81,0.94c0.04,0.02,0.08,0.06,0.06,0.11
			c-0.02,0.03-0.07,0.04-0.11,0.06c-0.01,0.01-0.03,0-0.05,0c-0.54-0.25-1.11-0.47-1.61-0.8C13.85,43.51,13.74,43.44,13.72,43.29z"
			/>
		<path d="M13.51,43.84c0.03,0.01,0.09,0,0.12,0.02c0.48,0.34,1.04,0.54,1.56,0.82c0.04,0.02,0.09,0.04,0.07,0.1
			c-0.02,0.08-0.08,0.07-0.14,0.05c-0.53-0.17-1.05-0.37-1.51-0.7c-0.06-0.04-0.13-0.09-0.17-0.15
			C13.39,43.92,13.42,43.87,13.51,43.84z"/>
		<path d="M28.86,25.53c0.31-0.04,0.7,0.06,1.08-0.08c0.05-0.02,0.13-0.01,0.14,0.08c0.01,0.09-0.07,0.09-0.13,0.11
			c-0.3,0.09-0.61,0.11-0.92,0.11c-0.39-0.01-0.78-0.01-1.17-0.02c-0.07,0-0.17,0.01-0.18-0.1c-0.01-0.12,0.1-0.1,0.17-0.1
			C28.16,25.53,28.47,25.53,28.86,25.53z"/>
		<path d="M28.58,9.41c-0.02,0.02-0.03,0.07-0.05,0.07c-0.52,0-1,0.17-1.47,0.38c-0.04,0.02-0.1,0.02-0.12-0.03
			c-0.01-0.03,0.01-0.1,0.04-0.12c0.34-0.24,0.71-0.42,1.13-0.47c0.16-0.02,0.31,0.01,0.44,0.1C28.56,9.35,28.57,9.38,28.58,9.41z"
			/>
		<path d="M9.35,35.49c-0.1,0.51-0.24,0.98-0.31,1.46c-0.02,0.17-0.02,0.34-0.05,0.5c-0.02,0.09,0.05,0.27-0.11,0.25
			c-0.13-0.01-0.07-0.18-0.08-0.28c-0.02-0.34,0.07-0.67,0.15-1c0.07-0.28,0.18-0.56,0.27-0.83C9.23,35.56,9.29,35.54,9.35,35.49z"
			/>
		<path d="M17.5,38.59c-0.04,0.16-0.14,0.17-0.26,0.17c-0.4,0.02-1.3-0.26-1.67-0.53c0.38-0.09,0.67,0.12,0.98,0.2
			C16.86,38.51,17.17,38.59,17.5,38.59z"/>
		<path d="M28.19,25.1c-0.02,0.03-0.03,0.05-0.04,0.05c-0.59-0.01-1.05-0.29-1.48-0.66c-0.04-0.03-0.04-0.09-0.01-0.12
			c0.03-0.04,0.08-0.03,0.13-0.01c0.15,0.08,0.32,0.14,0.46,0.23C27.55,24.78,27.86,24.95,28.19,25.1z"/>
		<path d="M25.74,24.85c-0.32-0.11-0.63-0.22-0.95-0.33c-0.09-0.03-0.19-0.06-0.21-0.16c-0.02-0.1-0.12-0.22-0.05-0.29
			c0.1-0.1,0.2,0.01,0.28,0.08C25.1,24.41,25.5,24.48,25.74,24.85z"/>
		<path d="M18.96,33.79c0.19,0,0.37-0.04,0.56,0.02c0.02,0.01,0.04,0.05,0.04,0.07c0,0.02-0.02,0.07-0.04,0.07
			c-0.36,0.11-0.73,0.16-1.1,0.11c-0.09-0.01-0.15-0.05-0.14-0.15c0.01-0.09,0.08-0.13,0.17-0.13
			C18.62,33.79,18.79,33.79,18.96,33.79z"/>
		<path d="M21.28,32.33c0.51-0.09,0.95,0.05,1.39,0.07c0.04,0,0.1,0.02,0.08,0.09c-0.01,0.03-0.03,0.06-0.05,0.06
			c-0.43,0-0.87,0.13-1.28-0.1C21.38,32.43,21.35,32.39,21.28,32.33z"/>
		<path d="M16.72,39.8c0.32,0.22,0.62,0.42,0.91,0.61c0.09,0.06,0.05,0.11,0.02,0.19c-0.04,0.09-0.07,0.11-0.16,0.05
			c-0.23-0.16-0.45-0.32-0.69-0.46C16.64,40.09,16.68,39.98,16.72,39.8z"/>
		<path d="M9.75,36.35c0.02,0.02,0.06,0.04,0.06,0.06c-0.13,0.46-0.02,0.93-0.06,1.39c0,0.05-0.03,0.09-0.08,0.09
			c-0.06,0.01-0.09-0.03-0.09-0.08c-0.04-0.48-0.05-0.96,0.11-1.42C9.69,36.37,9.73,36.37,9.75,36.35z"/>
		<path d="M26.85,27.22c-0.04-0.01-0.1-0.01-0.16-0.03c-0.04-0.01-0.05-0.04-0.04-0.07c0.01-0.03,0.03-0.06,0.05-0.07
			c0.27,0,0.53-0.2,0.81-0.04c0.11,0.06,0.21-0.01,0.3-0.06c0.06-0.03,0.11-0.06,0.17-0.07c0.06,0,0.12,0.05,0.12,0.12
			c0,0.03-0.04,0.1-0.07,0.1c-0.15,0.02-0.31,0.01-0.46,0.02C27.34,27.16,27.11,27.19,26.85,27.22z"/>
	</g>
</g>
</svg>
