<?xml version="1.0" encoding="utf-8"?>
<!-- Generator: Adobe Illustrator 24.0.0, SVG Export Plug-In . SVG Version: 6.00 Build 0)  -->
<svg version="1.1" id="Layer_1" xmlns="http://www.w3.org/2000/svg" xmlns:xlink="http://www.w3.org/1999/xlink" x="0px" y="0px"
	 viewBox="0 0 169.1 149.43" enable-background="new 0 0 169.1 149.43" xml:space="preserve">
<g>
	<g>
		<path d="M19.83,130.48c-0.82,0-1.65-0.02-2.47,0c-2.69,0.08-5.16-0.61-7.61-1.69c-2.22-0.98-4.25-2.25-6-3.82
			c-1.95-1.75-3.55-3.86-3.24-6.76c0.02-0.16,0.09-0.32,0.14-0.48c0.11,0.13,0.22,0.26,0.32,0.39c2.46,3.23,5.72,5.32,9.62,6.47
			c1.23,0.36,2.48,0.64,3.78,0.61c1.12-0.03,2.24,0.01,3.35,0.04c3.51,0.09,6.81-0.81,10.07-1.98c2.26-0.81,4.34-2,6.49-3.02
			c1.66-0.79,2.97-2.04,4.27-3.26c0.47-0.44,1.26-0.35,1.5-1.07c0.19-0.57,0.77-0.82,1.19-1.21c0.76-0.7,1.48-1.49,1.97-2.38
			c0.74-1.33,1.39-2.77,2.25-3.99c1.13-1.61,1.33-3.84,3.32-4.87c1.22-1.8,3.13-3.05,4.1-5.07c0.23-0.47,0.8-0.91,1.32-1.09
			c1.07-0.38,1.87-1.04,2.74-1.72c0.78-0.61,1.49-1.27,2.23-1.91c0.76-0.65,1.52-1.33,2.36-1.89c0.99-0.65,1.82-1.4,2.47-2.41
			c0.43-0.66,1.04-1.24,1.66-1.75c0.59-0.48,1.13-0.22,1.26,0.5c0.03,0.17,0,0.35,0.02,0.52c0.09,1.09,0.34,1.53,1.36,1.69
			c0.85,0.14,1.56,0.45,2.22,0.95c0.72,0.56,1.66,0.51,2.47,0.83c0.29,0.11,0.56-0.03,0.65-0.38c0.04-0.14,0.13-0.28,0.2-0.41
			c0.05,0.1,0.11,0.19,0.15,0.3c0.35,0.93,0.99,1.36,2,1.68c0.94,0.3,1.76,1.09,2.52,1.78c1,0.9,2.18,1.55,3.34,2.12
			c1.28,0.62,2.45,1.57,3.97,1.7c0.44,0.04,0.84,0.39,1.27,0.58c0.24,0.1,0.5,0.4,0.77,0.06c0.31-0.37,0-0.77-0.21-0.89
			c-0.86-0.51-1.39-1.41-2.35-1.8c-0.86-0.35-1.65-0.91-2.54-1.19c-1.38-0.45-2.38-1.66-3.91-1.8c-0.18-0.02-0.48-0.27-0.5-0.44
			c-0.1-1.19-1.13-1.36-1.93-1.77c-0.46-0.24-0.93-0.47-1.46-0.58c-0.32-0.06-0.82-0.31-0.85-0.53c-0.16-1.07-1.13-1.29-1.8-1.76
			c-1.37-0.96-2.41-2.17-3.27-3.56c-0.14-0.23-0.32-0.47-0.13-0.79c0.67-1.08,1.21-2.26,2.51-2.8c0.27-0.11,0.59-0.35,0.82-0.18
			c0.84,0.61,2.06,0.8,2.44,1.92c0.19,0.54,0.61,0.83,0.95,1.21c0.16,0.17,0.37,0.32,0.61,0.18c0.27-0.16,0.15-0.42,0.02-0.6
			c-0.44-0.6-0.37-1.46-1.08-1.91c-0.04-1.24-0.94-2.5,0.23-3.7c1.02-1.04,0.73-2.48,1.02-3.74c0.24-1.03,0.14-1.07,1.14-1.08
			c1.17-0.01,2.35-0.07,3.48,0.35c0.16,0.06,0.39,0.02,0.5,0.12c1.97,1.64,4.57,2.01,6.75,3.25c2.83,1.62,5.81,3,8.72,4.49
			c0.31,0.16,0.64,0.32,0.88,0.55c2.02,1.94,4.45,3.37,6.7,5.02c1.39,1.02,2.42,2.32,3.65,3.46c1.08,1,2.33,1.73,3.52,2.57
			c0.49,0.35,1.07,0.5,1.67,0.24c0.28-0.12,0.51-0.17,0.83-0.07c0.64,0.21,1.26,0.37,1.09,1.26c-0.16,0.83,0.25,1.34,1.04,1.55
			c0.6,0.15,0.92,0.7,1.48,0.92c0.39,0.16,0.79,0.4,1.17,0.24c0.51-0.2,1.01-0.49,1.43-0.85c0.27-0.23,0.23-0.67,0.02-0.96
			c-0.23-0.32-0.52-0.72-0.86-0.82c-1.2-0.33-1.89-1.33-2.81-2c-1.34-0.98-2.1-2.44-2.62-4c-0.16-0.47-0.57-0.94-0.09-1.44
			c0.64-0.68,1.26-1.38,2.22-1.64c0.05-0.02,0.13-0.03,0.17,0c0.5,0.3,0.96,0.72,1.5,0.87c0.49,0.13,1-0.25,1.58,0.23
			c0.55,0.46,1.2,0.73,1.04,1.6c-0.08,0.46,0.24,0.74,0.53,1.03c0.79,0.78,1.52,1.63,2.36,2.34c0.97,0.81,1.57,1.87,2.16,2.92
			c1.12,2-0.47,5.58-2.71,6.26c-0.11,0.03-0.31,0.01-0.33,0.06c-0.5,1.15-1.62,0.43-2.39,0.78c-0.85,0.38-1.71,0.22-2.55-0.11
			c-0.2-0.08-0.52-0.08-0.69,0.02c-1.31,0.83-2.71,0.3-4.07,0.29c-0.6,0-1.04-0.21-1.14-0.85c-0.11-0.74-0.59-0.96-1.26-0.9
			c-0.62,0.05-1.24-0.19-1.66-0.47c-0.67-0.44-1.41-0.5-2.09-0.79c-0.16-0.07-0.35-0.18-0.46,0c-0.04,0.08,0.09,0.29,0.19,0.4
			c0.68,0.73,1.54,1.23,2.42,1.7c0.72,0.38,1.48,0.71,2.2,1.1c0.95,0.52,1.04,1.31,0.29,2.04c-0.61,0.59-1.3,0.95-2.19,0.91
			c-0.94-0.04-1.88-0.01-2.82,0c-0.82,0-1.61,0.02-2.43,0.24c-1.01,0.26-2.03,0.09-3.07-0.35c-1.75-0.74-3.36-1.86-5.34-2.05
			c-1.11-0.1-1.41,0.19-1.11,1.27c0.35,1.27,1.34,1.95,2.47,2.14c1.44,0.24,2.33,1.2,3.41,1.93c0.25,0.17,0.14,0.42,0,0.61
			c-0.72,0.99-1.13,2.13-1.52,3.24c-0.18,0.51-0.69,0.3-0.72,0.58c-0.03,0.31,0.23,0.64,0.27,0.97c0.08,0.54-0.06,1.02-0.49,1.42
			c-0.64,0.6-1.21,1.23-2.02,1.65c-1.28,0.66-2.64,1.3-3.03,2.9c-0.04,0.15-0.22,0.27-0.34,0.39c-0.11,0.1-0.22,0.3-0.4,0.11
			c-0.06-0.07-0.08-0.25-0.04-0.31c0.35-0.46,0.38-1.05,0.75-1.54c0.87-1.17,1.34-2.53,1.29-4.01c-0.03-0.89-0.28-1.03-1.06-0.66
			c-0.77,0.36-1.06,0.27-1.01-0.52c0.06-1.01-0.39-1.92-0.42-2.9c-0.01-0.22-0.09-0.45-0.17-0.66c-0.15-0.4-0.38-0.68-0.89-0.66
			c-0.44,0.02-0.59,0.27-0.77,0.59c-0.26,0.43-0.22,0.89-0.23,1.35c-0.01,1.22,0,2.43-0.03,3.65c-0.07,2.76-0.9,5.29-2.53,7.55
			c-0.38,0.52-0.6,1.12-0.77,1.73c-0.43,1.58-1.44,2.69-2.82,3.56c-0.47,0.3-0.92,0.74-1.35,1.03c-1.71,1.13-2.65,3.18-4.76,3.83
			c-0.68,0.21-1.32,0.55-2.02,0.27c-0.62-0.24-1.16,0.08-1.69,0.19c-0.57,0.11-0.98,0.58-1.02,1.26c-0.05,0.81,0.09,1.01,0.95,1.05
			c0.87,0.04,1.76-0.09,2.59,0.32c0.25,0.12,0.57,0.1,0.8,0.32c0.94,0.95,2.17,1.05,3.4,1.06c2.35,0.04,4.71,0,7.06,0.02
			c0.98,0.01,1.9-0.31,2.92-0.21c4.79,0.49,9.6,0.13,14.4,0.21c0.85,0.01,1.61,0.29,2.35,0.64c0.97,0.47,2.04,0.47,3.05,0.73
			c0.37,0.09,0.82,0,1.21-0.09c0.16-0.03,0.55-0.25,0.25-0.46c-0.5-0.35-0.59-1.21-1.42-1.14c-0.81,0.07-1.47-0.3-2.15-0.66
			c-0.36-0.19-0.73-0.32-1.15-0.38c-2.27-0.35-4.55-0.36-6.84-0.34c-0.88,0.01-1.73-0.02-2.56-0.44c-0.81-0.41-1.7-0.25-2.58-0.11
			c-1.1,0.18-2.21,0.78-3.33-0.01c-0.37-0.26-0.78-0.02-1.16,0.16c-1.08,0.53-2.18,0.73-3.34,0.2c-0.55-0.25-1.23-0.29-1.73-0.08
			c-0.98,0.42-1.97,0.17-2.95,0.26c-0.67,0.06-1.31-0.23-1.38-0.8c-0.07-0.55,0.03-1.32,0.75-1.6c0.55-0.21,0.9-0.72,1.53-0.82
			c0.43-0.07,0.85-0.3,1.1-0.78c0.33-0.62,0.99-0.83,1.64-0.85c0.99-0.02,2-0.2,2.97,0.18c0.51,0.2,1.04,0.21,1.55,0.02
			c1.03-0.38,2.11-0.33,3.14-0.2c3.54,0.46,7.09,0.3,10.63,0.31c1.06,0,2.12,0.06,3.18-0.02c1.66-0.14,3.24,0.48,4.89,0.42
			c0.27-0.01,0.57,0.14,0.81,0.29c1.61,0.95,3.28,1.71,5.11,2.2c0.71,0.19,1.35,0.68,1.97,1.12c1.17,0.83,2.3,1.72,3.43,2.6
			c0.18,0.14,0.34,0.32,0.49,0.5c0.79,0.95,0.47,1.95-0.71,2.38c-1.05,0.38-2.01,0.53-2.95-0.3c-0.37-0.32-0.82-0.46-1.44-0.26
			c-0.94,0.29-1.9,0.24-2.81-0.43c-0.73-0.54-1.67-0.86-2.64-0.82c-0.42,0.02-1.05-0.24-1.18,0.25c-0.06,0.23,0.52,0.74,0.91,0.95
			c0.66,0.36,1.43,0.52,2.08,0.89c1.17,0.66,2.22,1.49,3.02,2.57c0.27,0.37,0.41,0.72,0.04,1.22c-0.85,1.17-1.7,1.51-3.11,1.12
			c-1.05-0.29-1.95-0.77-2.56-1.66c-0.54-0.77-1.47-1.09-2.04-1.84c-0.23-0.31-0.95-0.78-1.3-0.39c-0.23,0.26,0.5,0.65,0.81,0.99
			c0.88,0.97,1.91,1.8,2.34,3.15c0.25,0.79,0.9,1.46,1.36,2.2c0.11,0.17,0.26,0.36,0.01,0.59c-1.48,1.38-3.57,1.05-4.1-0.69
			c-0.44-1.44-1.66-2.31-2.49-3.47c-0.09-0.12-0.27-0.28-0.41-0.1c-0.09,0.11-0.11,0.35-0.05,0.48c0.47,0.99,0.88,1.98,1.1,3.08
			c0.11,0.56-0.03,0.85-0.36,1.2c-0.46,0.49-1.07,0.7-1.65,0.97c-0.81,0.37-1.83-0.29-1.56-1.08c0.94-2.65-0.69-4.25-2.33-5.85
			c-0.37-0.36-0.84-0.62-1.28-0.91c-0.38-0.25-0.65-0.11-1.07,0.11c-1.02,0.52-1.76,1.3-2.55,2.05c-0.17,0.16-0.34,0.32-0.52,0.47
			c-0.51,0.43-1.09,0.41-1.65,0.19c-0.51-0.2-0.55-0.67-0.58-1.16c-0.08-1.18-0.3-1.34-1.47-1.16c-0.23,0.03-0.48,0.08-0.66,0.2
			c-1.2,0.8-2.64,0.87-3.97,1.25c-0.14,0.04-0.3,0.25-0.45,0.03c-0.12-0.18,0.01-0.35,0.16-0.41c0.78-0.31,0.88-1.21,1.5-1.66
			c0.31-0.22,0.39-0.57,0.05-0.89c-0.29-0.27-0.64-0.36-0.96-0.15c-0.63,0.42-1.33,0.8-1.79,1.36c-0.77,0.94-1.86,1.39-2.81,2.04
			c-0.24,0.17-0.48,0.35-0.79,0.14c-0.33-0.22-0.47-0.49-0.26-0.88c0.16-0.3,0.37-0.68-0.01-0.93c-0.41-0.27-1-0.27-1.34-0.01
			c-0.88,0.68-1.97,0.68-2.93,1.07c-0.26,0.11-0.55,0.17-0.84,0.22c-0.24,0.04-0.5-0.03-0.61-0.25c-0.12-0.23,0.05-0.45,0.21-0.61
			c0.28-0.29,0.6-0.56,0.87-0.86c0.15-0.17,0.3-0.38,0.06-0.6c-0.2-0.18-0.48-0.17-0.65-0.05c-0.67,0.46-1.33,0.95-1.96,1.46
			c-0.82,0.66-1.65,1.23-2.75,1.42c-0.57,0.1-0.86,0.08-1.36-0.3c-0.64-0.49-1.66-0.51-2.29,0.03c-0.72,0.61-1.57,0.35-2.33,0.67
			c-0.56,0.24-1.04-0.39-1.12-0.86c-0.13-0.74-0.55-0.79-1.12-0.75c-0.46,0.03-0.94-0.05-1.39,0.15c-0.73,0.31-1.48,0.34-2.21-0.01
			c-0.49-0.23-0.62,0.05-0.65,0.46c-0.01,0.12,0.03,0.24-0.01,0.35c-0.18,0.43,0.57,0.86,0.02,1.26c-0.57,0.41-1.26,0.33-1.86,0.14
			c-0.42-0.13-0.94-0.28-1.17-0.72c-0.25-0.5-0.65-0.53-1.14-0.61c-1.75-0.31-2.61-2.8-1.36-4.07c1.19-1.21,1.66-2.61,1.62-4.23
			c-0.03-1.27,0.15-2.54-0.15-3.8c-0.41-1.71-1.67-2.87-2.77-4.11c-0.57-0.64-1.24-1.21-1.99-1.69c-0.98-0.63-1.75-1.51-2.44-2.45
			c-0.48-0.66-1.08-1.17-1.81-1.57c-0.51-0.28-0.89,0-1.33,0.05c-0.16,0.02-0.24,0.1-0.26,0.34c-0.13,1.55-1.22,2.33-2.56,2.81
			c-1.48,0.53-2.96,1.07-4.39,1.74c-0.85,0.4-1.79,0.49-2.69,0.72c-2.59,0.66-5.17,1.28-7.87,1.44c-1.07,0.06-2.35-0.07-3.32,0.82
			c-0.21,0.19-0.67,0.13-1.02,0.13c-1.41,0.01-2.83,0.01-4.24,0.01C19.83,130.46,19.83,130.47,19.83,130.48z M77.74,100.82
			c-1.32-0.44-2.75,1.12-4.48,0.83c-0.19-0.03-0.51,0.18-0.5,0.41c0.02,0.26,0.16,0.55,0.33,0.75c0.26,0.29,0.66,0.17,1,0.17
			c1.47,0,2.94-0.04,4.41,0c1.2,0.03,2.48-0.32,3.53,0.63c0.14,0.12,0.45,0.04,0.69,0.07c1.88,0.26,3.43,1.01,4.34,2.77
			c0.32,0.63,0.8,1.15,1.5,1.38c0.63,0.2,1.08-0.17,0.97-0.8c-0.22-1.26-0.93-2.19-1.97-2.94c-1.11-0.8-2.48-1.03-3.62-1.68
			c-0.9-0.51-1.95-0.52-2.72-1C80.2,100.77,79.2,100.99,77.74,100.82z"/>
		<path d="M106.84,70.56c-0.12-0.78,0.01-1.62-0.2-2.5c-0.17-0.72,0.26-1.55,0.19-2.35c-0.04-0.46,0.06-0.93-0.19-1.36
			c-0.76-1.26-0.81-2.76-1.39-4.07c-0.42-0.96,0.17-1.56,0.7-2.15c0.55-0.6,1.28-0.45,1.96-0.17c0.61,0.25,1.1,0.64,1.42,1.24
			c1.1,2.1,2.74,3.4,5.26,3.42c0.69,0.01,1.28,0.29,1.55,0.94c1.14,2.76,2.56,5.45,2.4,8.56c-0.06,1.15-0.33,2.27-0.69,3.36
			c-0.44,1.32-0.29,2.73-0.7,4.06c-0.39,1.29-0.94,2.47-1.84,3.49c-0.58,0.65-1.09,1.36-1.72,1.96c-0.71,0.67-1.45,1.37-2.56,1.32
			c-0.39-0.02-0.71,0.15-0.87,0.48c-0.39,0.77-0.91,0.66-1.38,0.15c-1.08-1.17-2.43-1.98-3.7-2.9c-0.38-0.27-0.78-0.51-1.18-0.75
			c-1.6-0.93-3.33-1.64-4.76-2.87c-0.52-0.45-1.18-0.76-1.8-1.06c-2.43-1.17-4.74-2.5-6.91-4.09c-0.75-0.55-1.6-0.91-2.52-1.15
			c-2.11-0.56-3.98-1.67-5.86-2.71c-0.99-0.54-1.01-0.93-0.57-1.97c0.14-0.33,0.3-0.62,0.22-0.99c-0.4-1.84-0.91-3.67-1.18-5.53
			c-0.48-3.29-1.63-6.43-2-9.74c-0.18-1.58-0.42-3.17-0.27-4.76c0.23-2.42-0.52-4.66-1.1-6.94c-0.08-0.3-0.24-0.53-0.51-0.67
			c-1.77-0.9-2.43-2.57-3.03-4.27c-0.57-1.63-1.17-3.24-1.7-4.88c-0.97-2.95-2.59-5.47-4.64-7.84c-2.41-2.79-5.19-5.19-7.69-7.87
			c-1.19-1.27-2.24-2.65-3.39-3.95c-0.7-0.78-1.44-1.53-2.2-2.25c-0.51-0.49-0.59-0.96-0.19-1.53c0.06-0.09,0.07-0.23,0.14-0.31
			c2.2-2.3,4.54-4.31,8.02-4.39c1.88-0.04,3.56,0.61,4.71,1.9c1.23,1.38,2.65,2.59,3.77,4.1c1.21,1.64,2.19,3.4,3.18,5.15
			c0.88,1.54,1.93,3.03,2.3,4.81c0.42,2.04,1.37,3.9,1.98,5.87c0.19,0.61,0.47,1.18,0.98,1.61c0.62,0.54,1.17,1.14,1.45,1.93
			c0.18,0.5,0.6,0.67,1.02,0.88c1.99,1.01,3.78,2.28,5.37,3.84c0.5,0.49,0.96,1,1.32,1.61c1.1,1.9,2.65,3.52,3.49,5.58
			c0.76,1.87,1.53,3.73,2.3,5.59c1.15,2.76,2.44,5.48,3.35,8.33c0.58,1.8,1.06,3.64,1.61,5.45c0.3,0.99,0.66,1.93,1.44,2.73
			c1.09,1.11,1.73,2.58,2.81,3.72c0.35,0.37,0.32,0.86,0.29,1.32c-0.08,1,0.09,1.97,0.48,2.87c0.36,0.85,0.16,1.71,0.23,2.57
			c0.04,0.52,0.29,0.69,0.79,0.7c1.13,0.02,1.99-0.76,2.04-1.9C106.86,71.68,106.84,71.16,106.84,70.56z"/>
		<path d="M122.42,11.74c0.17,1.01-0.25,1.94-0.36,2.91c-0.46,3.82-1.27,7.54-2.91,11.09c-0.82,1.78-1.52,3.61-2.42,5.36
			c-0.05,0.1-0.16,0.21-0.16,0.31c0.04,1.57-0.79,2.97-0.89,4.52c-0.1,1.42-0.33,2.84-0.59,4.24c-0.12,0.64-0.1,1.26-0.12,1.9
			c-0.08,2.1-1.28,3.16-3.43,3.28c-2.06,0.12-3.41-0.59-4.38-2.46c-0.6-1.16-1.19-2.21-1.05-3.55c0.04-0.4,0.1-0.78,0.25-1.17
			c0.87-2.24,1.68-4.49,2.34-6.82c0.75-2.64,1.63-5.27,2.94-7.72c0.08-0.15,0.18-0.3,0.23-0.47c0.92-3.17,2.6-6.03,3.9-9.05
			c0.27-0.62,0.31-1.22,0.08-1.84c-0.49-1.31-1.3-1.64-2.61-1.06c-0.58,0.26-1.17,0.47-1.49,1.13c-1.34,2.76-2.92,5.4-4.02,8.27
			c-0.37,0.96-0.59,1.98-0.89,2.97c-0.42,1.38-1.24,2.47-2.45,3.28c-1.66,1.1-2.63,2.75-3.64,4.38c-0.23,0.37-0.28,0.75-0.28,1.16
			c0,0.62,0.29,1,0.93,1.03c0.65,0.03,1.29,0.02,1.94,0.03c0.56,0,0.75,0.37,0.64,0.81c-0.59,2.4-0.51,4.9-1.22,7.27
			c-0.29,0.96-0.18,1.95-0.16,2.93c0.01,0.67-0.16,1.26-0.53,1.79c-0.33,0.49-0.77,0.48-1.11-0.04c-0.22-0.34-0.4-0.71-0.55-1.08
			c-0.7-1.64-1.41-3.28-2.05-4.94c-0.61-1.56-1.79-2.84-2.23-4.48c-0.04-0.15-0.19-0.31-0.32-0.4c-1.33-0.87-2.32-2.07-3.41-3.18
			c-0.85-0.86-1.49-1.93-2.52-2.61c-0.59-0.39-1.12-0.79-1.5-1.42c-0.6-1-0.7-1.26,0.09-2.07c0.83-0.84,1.45-1.81,2.06-2.79
			c1.74-2.75,3.89-5.17,5.97-7.65c0.85-1.01,1.64-2.07,2.37-3.2c1.69-2.64,3.87-4.87,6.75-6.31c1.62-0.81,3.12-1.84,4.57-2.89
			c2.84-2.07,5.74-1.59,8.63-0.31c1.17,0.52,2.08,1.53,2.5,2.8C121.96,7.65,122.31,9.68,122.42,11.74z"/>
		<path d="M135.45,29.77c-0.05,2.71-0.34,5.38-1.39,7.9c-0.84,2.02-1.88,3.96-3.24,5.7c-1.1,1.41-2.27,2.74-3.19,4.3
			c-0.8,1.37-1.91,2.58-2.77,3.95c-0.35,0.55-1.09,0.85-1.59,1.32c-1.31,1.24-2.29,2.78-3.68,3.94c-0.35,0.29-0.34,0.72-0.49,1.08
			c-0.92,2.23-3.54,2.64-5.3,0.99c-2.07-1.95-1.15-5.21,0.62-6.46c1.12-0.79,1.79-1.98,2.65-2.98c0.91-1.06,1.88-2.06,2.87-3.03
			c1.12-1.1,1.92-2.26,1.77-3.93c-0.09-1.02,0.04-1.15,1.04-1.06c1.18,0.11,1.95-0.55,2.57-1.23c1.55-1.71,2.99-3.52,3.9-5.67
			c0.18-0.43,0.39-0.85,0.77-1.15c0.88-0.7,1.4-1.7,2.11-2.54c0.55-0.65,1.05-1.38,0.9-2.35c-0.05-0.31,0.14-0.67,0.28-0.98
			c0.17-0.36-0.32-1.15,0.76-0.95c1.24,0.23,1.4,0.25,1.43,1.23c0.01,0.35-0.02,0.69-0.03,1.04
			C135.44,29.19,135.45,29.48,135.45,29.77z"/>
		<path d="M124.83,65.24c0.08-2.08,0.59-4.07,1.25-6.03c0.39-1.14,0.75-2.29,0.87-3.5c0.03-0.28,0.1-0.58,0.25-0.81
			c1.04-1.72,1.91-3.57,3.4-5c0.77-0.73,1.3-1.6,1.87-2.48c1.27-1.98,2.3-4.14,4.06-5.8c0.59-0.55,0.75-0.52,1.09,0.24
			c0.14,0.3,0.3,0.57,0.16,0.97c-0.47,1.41-0.61,2.92-1.3,4.27c-0.16,0.31-0.34,0.62-0.3,0.98c0.09,0.85-0.19,1.61-0.67,2.28
			c-1.07,1.49-1.1,3.33-1.8,4.94c-0.09,0.2-0.08,0.57-0.21,0.62c-1.02,0.41-0.9,1.27-0.86,2.06c0.1,1.73-0.14,3.33-1.5,4.6
			c-0.34,0.31-0.25,0.75-0.27,1.15c-0.02,0.69-0.13,1.35-0.28,2.03c-0.35,1.53-1.59,2.18-2.66,3.01c-0.16,0.12-0.45,0.14-0.67,0.1
			c-1.55-0.28-2.39-1.31-2.44-2.93C124.82,65.7,124.83,65.47,124.83,65.24z"/>
		<path d="M129.82,22.61c-0.03,0.39,0,0.58-0.05,0.73c-0.72,1.95-0.7,4.06-1.34,6.02c-0.48,1.47-1.02,2.9-2.21,4
			c-1.2,1.11-1.82,2.66-3.01,3.8c-0.44,0.42-0.77,1.02-1.25,1.43c-0.65,0.56-1.07,1.15-1.03,2.07c0.04,0.69-0.39,0.9-1.18,0.77
			c-0.71-0.11-0.57-0.61-0.51-1.06c0.52-3.47,1.78-6.75,2.83-10.07c0.85-2.68,1.9-5.3,2.7-8c0.43-1.44,1.36-2.67,1.55-4.19
			c0.09-0.72,0.99-0.73,1.45-1.15c0.12-0.11,0.23,0.15,0.31,0.29C128.98,19.03,129.3,20.96,129.82,22.61z"/>
		<path d="M108.44,49.09c0.53,0,1.05-0.01,1.58,0c0.4,0.01,0.8,0.07,1.2,0.11c-0.09,0.42-0.6,0.43-0.77,0.8
			c-1.13,2.32-3.4,3.57-5.16,5.3c-0.61,0.6-1.16,0.52-1.86,0.01c-2.09-1.51-1.24-3.77,0.23-5.15c0.77-0.72,1.69-1.2,2.85-1.07
			c0.63,0.07,1.28,0.01,1.93,0.01C108.44,49.1,108.44,49.09,108.44,49.09z"/>
	</g>
</g>
</svg>
