<?xml version="1.0" encoding="utf-8"?>
<!-- Generator: Adobe Illustrator 24.0.0, SVG Export Plug-In . SVG Version: 6.00 Build 0)  -->
<svg version="1.1" id="Layer_1" xmlns="http://www.w3.org/2000/svg" xmlns:xlink="http://www.w3.org/1999/xlink" x="0px" y="0px"
	 viewBox="0 0 798.64 829.28" enable-background="new 0 0 798.64 829.28" xml:space="preserve">
<g>
	<path fill="#FFFFFF" d="M348.97,667.5c-23.36-24.41-38.67-55.23-63.08-78.83c-1.12-1.08-2.05-2.29-2.84-3.6
		c-3.35,0.82-6.67,1.77-9.94,2.88c-0.38,2.96-1.37,5.7-3.25,8.73c-14.35,23.05-31.61,43.97-47.07,66.19
		c-22.83,32.82-46.94,64.81-69.09,98c-21.62,32.4-45.2,63.38-67.05,95.6c-33.92,49.99-70.7,98.13-105.47,147.63
		c68.52-2.15,137.03-4.3,205.55-6.45c55.77-106.92,111.54-213.84,167.42-320.98C352.59,673.85,351.42,670.06,348.97,667.5z"/>
	<path fill="#FFFFFF" d="M376.98,308.8c5.33-1.94,61.18-136.32,86.73-187.63c19.15,0.56,38.44,1.12,58.95,1.73
		c-17.62-33.35-70.71-41.81-103.61-23.72c-20.37,11.21-31.51,29.07-39.98,49.09c-5.07,11.98-15.48,21.75-14.86,34.89
		c-23.72,27.71-46.75,54.6-70.3,82.1c-2.09-2.56-3.18-3.76-4.13-5.07c-16.29-22.33-20.03-49.15-26.86-74.89
		c-8.81-33.21-12.93-68.08-40-94.02c-25.62-24.54-51.66-37.23-61.01-40.55c-31.56-11.2-58.88-9.04-72.21-7.1
		c-2.37,1.24-6.69,3.89-10.24,8.88c-0.71,0.99-5.42,7.79-5.36,16.95c0.05,6.95,2.93,13.86,8.63,21.15
		c18.21,23.29,34.68,48.01,50.86,72.8c9.49,14.54,15.72,30.62,18.89,48.15c3.14,17.35,2.9,34.83,4.86,52.2
		c3.47,30.74,6.61,61.55,8.53,92.42c0.46,7.39,2.33,12.36,5.52,15.02c11.9,32.41,22.96,62.56,34.02,92.7
		c2.05,1.93,0.86,4.76,1.69,6.74c10.76,25.39,16.62,52.91,32.65,76.02c9.88,14.25,19.76,28.49,29.71,42.7
		c1.69-2.09,3.44-4.13,5.26-6.11c-1.77-1.49-3.43-3.29-4.99-5.36c-8.68-11.48-13.79-24.89-21.89-36.6
		c-9.43-13.64-17.39-27.75-22.18-44.04c-2.09-7.1-3.91-14.77-7.53-21.95c-7.64-15.14-12.44-31.72-18.3-47.74
		c-5.59-15.28-11.08-30.59-16.56-45.9c-4.64-13-11.5-25.72-13.27-39.11c-2.84-21.57-2.92-43.53-5.29-65.27
		c-1.68-15.46-3.67-31.11-3.87-46.49c-0.33-26.1-7.31-49.82-20.94-71.09c-19.35-30.18-40.66-59.1-61.27-88.76
		c2.62-1.62,3.7-3.76,6.73-2.96c26,30.34,52.26,60.98,78.12,91.16c13.15-6.6,22.07-15.01,31.01-23.61c1.45,2.35,2.24,3.04,2.28,3.77
		c2.18,38.05,10.67,75.36,13.46,113.28c1.57,21.3,6.64,42.06,7.79,63.3c1.02,18.9,5.79,36.14,17.11,51.63
		c13.05,17.87,22.42,38.17,32.66,57.5c15.15,28.61,34.87,54.56,46.16,84.79c37.36,5.84,73.23,11.54,109.24,14.44
		c2.85-3.79,1.37-7.34,0.36-9.94c-3.43-8.89-45.9-122.55-56.42-160.27c-1.1-3.96-6.01-21.92-13.42-46.46
		c-1.89-6.25-3.44-11.27-4.32-14.12C352.44,292.72,373.14,310.2,376.98,308.8z"/>
	<path fill="#FFFFFF" d="M399.83,1036.85l187.43-360.97l6.2,7.53c0,0-185.45,353.44-185.47,353.45L399.83,1036.85z"/>
	<path fill="#FFFFFF" d="M619.63,198.66c-1.83-0.96,1.28,8.27,0.51,6.68c-1.67-3.47-5.97-18.52-8.52-21.5
		c-3.43,1.01-5.8,1.32-5.49,5.64c1.05,14.45-6.41,24.19-16.71,33.91c-9.93,9.38-18.19,20.82-27.1,31.4
		c-17.06,20.26-33.84,40.7-51.72,60.29c-16.66,18.25-31.49,38.16-47.07,57.27c-12.99-8.13-25.63-16.03-39.75-24.86
		c35.37-63.73,70.3-126.68,105.01-189.21c17.74-9.14,35.56-7.79,53.83-2.49c16.89,4.9,37.62,26.81,38.4,41.85
		C620.55,197.99,620.09,198.32,619.63,198.66z"/>
	<path fill="#FFFFFF" d="M627.32,236.24c4.5-2.94,8.79-0.93,13.17,0.8c0.62-6.14,32.32,2.99,41.72,12.31
		c9.33,9.25,17.38,18.38,18.78,31.91c-0.37,1.27-1.19,1.85-2.53,1.62c-3.07-6.47-5.25-2.11-7.92,0.49
		c-21.48,20.84-43.2,41.43-64.52,62.43c-18.66,18.37-37.25,36.83-55.22,55.87c-11.48,12.17-21.55,18.01-37.11,18.3
		c-4.76-3.04-9.86-6.29-15.5-9.88c1.74-15.2,12.98-25.92,19.95-38.53c16.5-29.85,34.6-58.81,51.91-88.21
		c9.65-16.39,19.02-32.94,28.51-49.41C621.81,233.46,623.89,237.4,627.32,236.24z"/>
	<path fill="#FFFFFF" d="M704.5,322.02c13.84,2.7,28.14,4.06,39.83,13.17c9.64,7.5,17.6,16.21,19.56,28.94
		c-0.26,1.95-1.24,2.89-3.28,2.36c-9.73,0.49-14.97,7.44-20.29,14.18c-11.54,14.62-29.29,21.58-42.1,34.99
		c-18.29,19.15-42.61,31.58-60.43,52.73c-16.87-11.3-33.18-22.22-50.01-33.5c37.62-28.71,74.53-56.87,112.13-85.57
		c0.7-9.96-0.96-20.92,1.52-31.62C703.69,318.27,704.74,319.68,704.5,322.02z"/>
	<path fill="#FFFFFF" d="M496.25,649.5c15.59-63.69,42.11-123.76,64.03-190.08c23.24,20.8,44.04,39.43,66.21,59.27
		C582.63,562.74,539.44,606.12,496.25,649.5z"/>
	<path fill="#FFFFFF" d="M752.12,434.7c18.1-107.08-3.93,19.61-4.32,42.08c-10.43,0.87-108.24,143.47-154.28,206.62
		c0.2,1.26-0.31,1.7-1.52,1.3c-5.35-6.11-1.55-11.23,2.04-16.05c30.96-41.65,62.61-82.81,92.82-125
		c17.93-25.05,36.62-49.56,54.17-74.8c6.76-9.72,10.12-63.97,14.86-75.9C761.97,388.99,752.23,433.18,752.12,434.7z"/>
	<path fill="#FFFFFF" d="M760.61,366.48c1.09-0.79,2.19-1.58,3.28-2.36c4.99,14.02-3.78,25.9-6.04,38.8
		c-1.48,0.67-2.45-0.44-3.57-1.01C756.4,390.09,758.5,378.29,760.61,366.48z"/>
	<path fill="#FDFDFD" d="M627.32,236.24c-4.04,3.42-6.53,1.05-8.76-2.33c1.68-11.71,2.31-23.45,1.07-35.25
		c0.46-0.34,0.92-0.68,1.38-1.01c6.22,8.99,3.17,19.15,3.53,28.85C624.67,230.06,623.12,233.92,627.32,236.24z"/>
	<path fill="#FFFFFF" d="M704.85,324.22c-0.5-0.84-2.2,6.49-3.96-3.75c-1.64-9.49-3.42-36.58-2.42-37.6
		c0.84-0.54,1.69-1.08,2.53-1.62C702.12,283.37,705.95,325.71,704.85,324.22z"/>
</g>
</svg>
