<?xml version="1.0" encoding="utf-8"?>
<!-- Generator: Adobe Illustrator 24.0.0, SVG Export Plug-In . SVG Version: 6.00 Build 0)  -->
<svg version="1.1" id="Layer_1" xmlns="http://www.w3.org/2000/svg" xmlns:xlink="http://www.w3.org/1999/xlink" x="0px" y="0px"
	 viewBox="0 0 111.45 109.86" enable-background="new 0 0 111.45 109.86" xml:space="preserve">
<g>
	<path d="M-20.89,101.16c6.08-4.64,12.55-8.69,19.03-12.72c1.12-0.7,2.21-1.49,3.41-2c3.69-1.56,6.5-4.43,9.87-6.47
		c2.84-1.72,5.6-3.59,8.36-5.45c2.75-1.86,5.35-3.9,7.4-6.56c0.41-0.53,1.33-1.37,1.4-1.26c0.58,0.93,0.86,0,1.04-0.18
		c1.25-1.17,1.87-2.61,1.86-4.36c-0.01-3.18-1.54-5.78-2.95-8.48c-1.67-3.19-3.7-6.23-4.46-9.85c-0.36-1.7-0.03-3.43-0.34-5.11
		c-0.71-3.87-1.15-7.83-3.32-11.28c-1.89-3-4.54-5.08-7.77-6.45c-0.88-0.37-1.79-0.72-2.72-0.93c-0.96-0.22-1.05-0.63-0.63-1.42
		c1.14-2.18,2.73-3.7,5.34-3.8c3.78-0.13,7.46,0.03,10.76,2.31c2.63,1.82,4.51,4.16,5.46,7.17c0.86,2.71,2.3,4.96,4.41,6.84
		c2.05,1.83,3.76,4.03,6.05,5.61c0.1,0.07,0.16,0.19,0.27,0.24c2.38,1.06,4.37,2.69,6.29,4.42c0.46-0.55-0.34-0.76-0.02-1.31
		c4.16,2.21,6.33,6.2,8.86,9.87c-1.58-5.36-5.5-8.84-9.87-12.01c0.24-0.12,0.31-0.18,0.38-0.18c0.39-0.03,0.95,0.55,1.13,0
		c0.17-0.51-0.52-0.77-0.93-0.89c-1.21-0.35-2.45-0.6-3.72-0.89c0.25-0.8,0.98-0.91,1.47-1.25c2.91-2.03,5.38-4.56,7.77-7.11
		c2.32-2.48,4.96-3.72,8.27-3.91c4.13-0.25,8.16-1.31,12.29-1.67c2.3-0.2,5.15,1.25,5.88,3.43c0.48,1.43-0.08,2.85-0.57,4.19
		c-0.81,2.24-1.73,4.44-2.67,6.62c-0.25,0.58-0.07,1.3-0.71,1.81c-0.87-1.34-1.85-2.55-3.71-2.75c0.24,0.64,0.64,0.96,1.1,1.17
		c1.05,0.46,1.61,1.21,2.02,2.31c0.35,0.94-0.05,1.42-0.51,1.98c-0.51,0.63-1.08,0.17-1.6-0.03c-1.29-0.48-2.14-1.48-2.91-2.56
		c-0.22-0.31-0.45-0.62-0.72-0.99c-0.5,1.9,1.19,3.34,2.67,3.86c0.32,0.11,0.86,0.05,0.87,0.46c0.01,0.49-0.52,0.46-0.9,0.58
		c-0.98,0.32-1.99,0.54-2.9,1.06c-0.66,0.38-1.28,0.67-1.57-0.49c-0.11-0.44-0.53-0.84-0.93-1.19c-0.66-0.58-1.32-1.19-1.81-1.9
		c-1.2-1.78-1.07-1.5-2.94-0.72c-0.4,0.17-0.8,0.33-1.19,0.54c-0.97,0.51-2.11,0.91-1.69,2.56c-0.69-0.33-0.76-0.67-0.72-1.21
		c0.14-1.79,1.01-3.18,2.35-4.27c2.12-1.72,4.03-3.8,6.94-4.25c0.22-0.03,0.55-0.16,0.54-0.51c-0.06-0.23-0.25-0.19-0.39-0.23
		c-0.62-0.17-1.51,0.5-1.85-0.26c-0.39-0.88-0.5-1.92-0.1-2.9c0.31-0.76,0.54-1.54,0.42-2.39c-1.01,1.3-2.42,2.41-1.74,4.43
		c0.18,0.53,0.58,1.24-0.2,1.72c-0.69,0.43-1.26,0.11-1.87-0.25c-0.93-0.55-1.4-1.38-1.63-2.39c-0.08-0.37-0.17-0.74-0.33-1.41
		c-0.6,1.78,0.5,2.89,0.98,4.5c-1.18-1-2.06-1.74-2.95-2.49c0.64,1.48,1.92,2.44,2.93,3.87c-1.17-0.25-1.37,0.16-1.17,1.09
		c0.17,0.8-0.49,1.29-1.04,1.76c-0.46,0.39-0.62-0.07-0.84-0.31c-0.41-0.42-0.48-1.1-1.21-1.43c0.2,1.17,0.38,2.25,0.56,3.33
		c-2.29-1.43-2.01-4.33-3.73-6.18c-0.19,0.56-0.01,1.03,0.13,1.43c1.36,3.61,2.6,7.29,4.43,10.71c0.04,0.07,0.04,0.18,0.09,0.22
		c2.19,1.59,3.32,3.98,4.66,6.21c0.33,0.55,0.92,0.83,1.71,1.18c-0.54-1.79-2.56-2.89-1.65-5.09c0.29,0.41,0.65,0.7,0.73,1.06
		c0.61,2.74,2.4,4.64,4.29,6.55c1.22,1.23,2.17,2.73,3.21,4.13c0.54,0.73,0.94,1.56,1.74,2.09c0.3,0.2,0.88,0.47,0.16,0.97
		c-0.18,0.12,0.19,0.48,0.39,0.66c2.38,2.23,4.27,4.93,6.77,7.05c0.78,0.66,1.84,0.92,2.61,1.79c-0.82,0.4-1.46,0.24-2.1-0.14
		c-0.25-0.15-0.57-0.26-0.75,0.02c-0.19,0.29,0.11,0.5,0.32,0.68c0.12,0.1,0.22,0.23,0.36,0.3c0.7,0.36,2.59,0.59,0.09,1.22
		c-0.59,0.15,0.21,0.59-0.15,1.02c-1.26-1.14-2.31-2.59-4-3.15c0.21,0.6,1.23,1.87,2.14,2.66c0.18,0.16,0.37,0.3,0.54,0.46
		c1.51,1.5,1.41,2.24-0.45,3.23c-0.24,0.13-0.58,0.2-0.63,0.5c-0.35,2.11-2.17,2.98-3.61,4.05c-2.84,2.1-5.43,4.52-8.49,6.33
		c-2.34,1.38-4.58,2.98-7.41,3.23c-0.2,0.02-0.55,0.01-0.57,0.09c-0.41,1.55-1.54,0.7-2.39,0.75c-0.26,0.02-0.56-0.29-0.77,0.04
		c-0.19,0.29,0.06,0.53,0.23,0.74c0.61,0.75,0.17,0.85-0.5,0.87c-0.53,0.02-0.98,0.19-0.4,0.74c0.58,0.55,0.06,0.79-0.24,1.01
		c-2.62,1.85-4.85,4.15-7.17,6.32c-1.89,1.77-3.63,3.7-5.47,5.52c-1.07,1.05-2.05,2.38-3.35,2.97c-2.83,1.29-5.03,3.36-7.34,5.29
		c-4.07,3.41-8.01,6.98-11.86,10.65c-12.96,0-25.92-0.01-38.88,0.02c-0.82,0-0.99-0.16-0.98-0.98
		C-20.87,117.48-20.89,109.32-20.89,101.16z M49.39,36.13c0.01,1.33,0.89,2.14,1.5,3.1c1.67,2.67,3.47,5.24,5.75,7.46
		c2.23,2.18,3.51,4.98,4.89,7.71c0.17,0.33,0.1,0.45-0.09,0.39c-0.97-0.29-0.49,0.38-0.35,0.59c0.53,0.8,0.53,1.67,0.37,2.54
		c-0.44,2.33-0.68,4.71-1.58,6.93c-0.1,0.24-0.29,0.5,0.07,0.87c1.6-1.22,2.25-2.95,2.73-4.8c0.52-1.99-0.03-3.79-1.17-5.76
		c1.12,0.59,1.09,1.6,1.72,2.18c0.42-0.64-0.17-1.03-0.23-1.5c-0.03-0.24-0.16-0.51,0.09-0.65c0.29-0.17,0.43,0.13,0.55,0.3
		c0.49,0.71,0.91,1.47,1.25,2.27c0.73,1.73,0.93,3.59,1.43,5.37c0.4,1.44,1.04,2.78,2.18,3.98c0.47-3.7-4.57-14.68-9.04-19.92
		c-0.4,0.14,0.07,0.61-0.22,0.73C55.33,44.48,52.61,40.1,49.39,36.13z M46.63,85.27c-0.26-0.34-0.4-0.59-0.6-0.77
		c-0.24-0.22-0.43,0.02-0.61,0.16c-1.92,1.54-3.86,3.05-5.74,4.63c-1.49,1.25-2.94,2.57-4.65,3.5c-1.33,0.72-2.46,1.73-3.73,2.53
		c-0.31,0.2-0.75,0.53-0.4,0.97c0.31,0.39,0.73-0.07,0.91-0.21c1.44-1.13,3.08-1.93,4.58-2.94c3.3-2.22,6.06-5.15,9.45-7.26
		C46.11,85.7,46.35,85.48,46.63,85.27z M33.58,90.31c0.37-0.14,0.78-0.21,1.1-0.42c2.13-1.36,4.26-2.73,6.36-4.14
		c0.99-0.66,2.04-1.19,3.1-1.7c0.3-0.14,0.6-0.31,0.59-0.67c-0.01-0.41-0.34-0.56-0.66-0.75c-0.5-0.29-0.86-0.19-1.29,0.14
		c-1.86,1.43-3.71,2.87-5.63,4.21C35.81,87.94,34.6,89,33.58,90.31z M55.58,55.06c1.36-3.13-2.25-10.56-6.39-13.19
		C52.33,45.77,54.27,50.26,55.58,55.06z M58.06,49.98c1.53,6.16,0.95,11.95-3.02,17.17C58.91,64.61,61.6,54.89,58.06,49.98z
		 M71.29,62.85c1.41,3.36,4.91,6.7,7.3,6.77C75.9,67.36,74.04,64.64,71.29,62.85z M32.52,97.74c2.07-0.45,8.59-5.66,9.31-7.36
		C38.61,92.63,35.57,95.06,32.52,97.74z M45.03,90.27c1.11-0.3,2.22-1.18,3.51-1.68c0.31-0.12,0.94-0.39,0.58-0.91
		c-0.36-0.52-0.91-1.16-1.64-0.59c-1.03,0.81-1.98,1.73-2.95,2.62c-0.1,0.09-0.15,0.28-0.13,0.41
		C44.43,90.32,44.63,90.3,45.03,90.27z M65.74,55.8c0.55,2.36,5.67,9.74,7.21,10.38C70.17,62.98,68.13,59.26,65.74,55.8z
		 M58.21,70.22c-1.14,0.15-2.23,0.48-3.44,1.19C56.3,71.65,57.22,70.84,58.21,70.22z M56.75,69.4c1.62-0.39,2.3-0.87,2.91-2.03
		C58.69,68.09,57.59,68.36,56.75,69.4z"/>
	<path d="M84.24,28.75c2.23,0.02,3.45,1.43,4.28,3.18c0.88,1.85,0.72,3.71-0.48,5.45c-1.61,2.32-2.77,4.9-4.06,7.4
		c-0.72,1.39-1.38,2.81-2.07,4.22c-0.16,0.33-0.33,0.68-0.68,0.81c-2.14,0.77-4.13,2.02-6.52,2.02c-0.44,0-0.7-0.06-1.03-0.34
		c-1.23-1.07-2.29-2.29-3.08-3.71c-0.5-0.89-1.14-1.16-2.08-0.62c-1,0.58-2.31,0.72-2.7,2.09c-0.05,0.18-0.25,0.36-0.47,0.26
		c-0.38-0.18-0.4-0.59-0.41-0.93c-0.06-1.62,1.1-3.15,2.68-3.71c2.09-0.75,4.17-1.54,6.24-2.35c0.8-0.31,1.39-0.85,1.72-1.69
		c1.39-3.52,2.82-7.02,4.19-10.54c0.29-0.75,0.62-1.15,1.53-1.13C82.28,29.16,83.26,28.89,84.24,28.75z M77.8,45.54
		c-0.56,0.88-0.14,1.61,0.44,2.19c0.47,0.46,0.95,1.26,1.93,0.57C79.24,47.47,77.8,47.12,77.8,45.54z M82.55,45.54
		c-0.28-1.28-1.21-2.27-2.29-2.48C81.11,43.98,81.83,44.76,82.55,45.54z"/>
	<path d="M71.7,57.38c-1.17-0.82-0.81-1.79-0.61-2.69c0.17-0.8,0.78-1.1,1.56-1.26c2.66-0.57,5.37-0.87,7.8-2.4
		c1.82-1.15,2.81-2.81,3.8-4.55c1.36-2.39,2.69-4.8,4.01-7.21c0.47-0.85,1.2-0.91,1.94-0.56c1.7,0.81,2.48,2.43,3.24,4
		c0.83,1.73,0.49,3.27-0.7,4.85c-1.82,2.43-3.89,4.63-5.91,6.88c-1.88,2.09-4.54,2.86-7,3.93c-0.49,0.21-0.94-0.06-1.25-0.48
		c-0.65-0.86-1.31-1.71-1.91-2.6c-1.06-1.59-1.3-1.67-3.63-1.16c-1.39,0.3-1.12,1.46-1.33,2.38C71.66,56.74,71.7,56.98,71.7,57.38z
		 M81.97,53.95c-0.6-0.03-0.33-0.8-0.79-1.04c-0.06,1.58,0.53,2.39,1.77,2.48c0.03-0.42-0.44-0.53-0.54-0.86
		c0.38,0.19,0.75,0.42,1.15,0.57c0.38,0.14,0.83,0.21,1.06-0.23c0.3-0.54-0.29-0.75-0.55-0.87c-0.85-0.4-1.25-1.04-1.38-1.93
		c-0.04-0.32-0.16-0.71-0.53-0.67c-0.4,0.04-0.58,0.41-0.52,0.8C81.73,52.78,81.86,53.37,81.97,53.95z M85.53,54.1
		c0.52-1.08-0.03-1.88-1.39-2.16C84.62,52.67,85.48,53.05,85.53,54.1z"/>
	<path d="M82.1,66.29c1.06-0.74,1.1-1.06,0.32-2.79c-0.4-0.9-0.96-1.74-1.14-2.75c-0.06-0.31-0.22-0.69-0.63-0.57
		c-1.46,0.44-3.24,0.18-4.12,1.92c-0.22-0.98,0.14-1.53,1.25-1.95c1.56-0.59,3.15-1.1,4.73-1.61c2.91-0.94,4.99-2.86,6.86-5.13
		c0.38-0.46,0.79-0.9,1.22-1.31c1.38-1.33,3.29-0.94,4.06,0.86c0.55,1.29,0.81,2.68,1.04,4.05c0.19,1.13-0.53,1.96-1.16,2.78
		c-3.01,3.94-7.2,5.81-11.92,6.72c-0.11,0.02-0.24-0.02-0.35-0.05C82.21,66.42,82.16,66.35,82.1,66.29z M88.03,64.13
		c-0.46-0.55-0.8-1.22-1.73-1.59C86.65,63.53,87.04,64.14,88.03,64.13z"/>
	<path d="M59.71,41.52c-0.1-0.5,0.18-0.81,0.61-1.01c0.72-0.33,1.46-0.61,2.17-0.96c0.55-0.27,0.89-0.04,1.22,0.37
		c0.82,1.03,1.5,2.16,2.55,3c0.61,0.49,0.17,1.11-0.31,1.38c-0.93,0.54-1.91,1.55-3.03,0.99C61.4,44.52,59.76,43.66,59.71,41.52z"/>
	<path d="M69.16,53.15c-0.89-0.03-2.68-1.97-2.64-2.9c0.03-0.8,1.64-2.09,2.64-2.12c0.34-0.01,0.59,0.12,0.82,0.4
		c0.86,1.04,1.53,2.24,2.52,3.17c0.24,0.23,0.35,0.52-0.07,0.63C71.35,52.6,70.32,53.05,69.16,53.15z"/>
	<path d="M80.09,87.04c-1.4-0.05-2.45-1.18-2.39-2.59c0.06-1.34,1.16-2.39,2.5-2.37c1.39,0.02,2.48,1.15,2.45,2.55
		C82.62,86.01,81.48,87.09,80.09,87.04z"/>
	<path d="M88.85,78.32c0.03,1.4-1.05,2.51-2.46,2.52c-1.37,0.01-2.43-1-2.49-2.36c-0.06-1.41,1-2.54,2.4-2.58
		C87.71,75.85,88.82,76.91,88.85,78.32z"/>
	<path d="M92.52,69.79c1.27-0.03,2.39,1.06,2.41,2.32c0.02,1.31-1.01,2.38-2.31,2.4c-1.3,0.02-2.37-1.01-2.4-2.31
		C90.2,70.92,91.24,69.82,92.52,69.79z"/>
	<path d="M86.4,86.93c-1.27,0.02-2.37-1.05-2.39-2.34c-0.02-1.28,1.04-2.37,2.33-2.39c1.29-0.02,2.38,1.04,2.4,2.33
		C88.76,85.8,87.68,86.91,86.4,86.93z"/>
	<path d="M86.34,74.74c-1.08-0.07-1.9-0.57-2.32-1.58c-0.28-0.68-0.52-1.33,0.65-1.58c0.77-0.16,1.28-0.99,2-1.41
		c0.68-0.4,1.12-0.23,1.56,0.26c0.73,0.82,0.91,1.76,0.47,2.77C88.26,74.19,87.44,74.68,86.34,74.74z"/>
	<path d="M76.32,90.79c-0.01,1.31-1.05,2.33-2.37,2.32c-1.29-0.01-2.36-1.09-2.34-2.37c0.02-1.29,1.09-2.33,2.39-2.32
		C75.31,88.43,76.33,89.47,76.32,90.79z"/>
	<path d="M94.85,78.36c0.01,1.26-1,2.3-2.25,2.32c-1.24,0.01-2.31-1.01-2.34-2.25c-0.04-1.29,1.04-2.38,2.33-2.38
		C93.85,76.06,94.85,77.08,94.85,78.36z"/>
	<path d="M82.49,90.73c0.01,1.26-0.99,2.29-2.26,2.31c-1.32,0.03-2.38-1.01-2.36-2.32c0.02-1.25,1.05-2.27,2.31-2.27
		C81.42,88.46,82.48,89.5,82.49,90.73z"/>
	<path d="M72.74,56.49c-0.01-0.48-0.13-1.07,0.5-1.19c0.74-0.14,1.52-0.66,2.27-0.02c1.06,0.9,1.5,2.23,2.3,3.31
		c0.2,0.28,0.03,0.38-0.26,0.46c-0.76,0.22-1.5,0.5-2.25,0.74c-0.14,0.04-0.32,0.03-0.46-0.03C74.06,59.45,72.73,57.35,72.74,56.49z
		"/>
	<path d="M77.49,62.86c0-0.75,1.39-1.52,2.69-1.49c0.47,0.01,1.76,2.42,1.81,3.39c0.03,0.6-1.27,1.39-2.34,1.42
		C78.41,66.22,77.49,64.8,77.49,62.86z"/>
	<path d="M70.13,90.57c0,1.29-0.69,2.2-1.75,2.47c-1.09,0.28-2-0.07-2.58-1.01c-0.46-0.74-0.76-1.55,0.39-2.06
		c0.28-0.12,0.49-0.4,0.71-0.63c0.57-0.58,1.24-0.96,2.03-0.62C69.76,89.09,70.1,89.86,70.13,90.57z"/>
	<path d="M86.43,92.95c-1.2,0.03-2.21-0.95-2.22-2.16c-0.01-1.19,0.87-2.13,2.05-2.19c1.22-0.06,2.24,0.86,2.29,2.08
		C88.6,91.87,87.63,92.92,86.43,92.95z"/>
	<path d="M94.95,65.98c0,1.28-1.08,2.35-2.37,2.35c-1.02,0-2.16-0.81-2.16-1.53c0-0.82,1.91-3.06,2.64-3.1
		C93.93,63.65,94.96,64.89,94.95,65.98z"/>
	<path d="M90.56,84.29c-0.04-1.03,0.75-1.82,1.87-1.89c1.24-0.07,2.27,0.83,2.33,2.05c0.06,1.19-0.92,2.26-2.11,2.29
		C91.31,86.79,90.62,85.98,90.56,84.29z"/>
	<path d="M100.92,72.15c0.01,1.18-0.93,2.14-2.11,2.16c-1.24,0.02-2.21-0.95-2.18-2.19c0.02-1.18,0.99-2.12,2.16-2.12
		C99.93,70.01,100.92,71,100.92,72.15z"/>
	<path d="M76.12,96.9c0.03,1.19-0.88,2.15-2.06,2.2c-1.21,0.05-2.25-0.95-2.25-2.15c0.01-1.17,0.97-2.13,2.14-2.14
		C75.14,94.8,76.09,95.71,76.12,96.9z"/>
	<path d="M69.91,97c-0.02,1.19-0.96,2.11-2.15,2.11c-1.17,0-2.14-0.97-2.15-2.13c-0.01-1.21,1.01-2.2,2.23-2.16
		C69.04,94.86,69.93,95.8,69.91,97z"/>
	<path d="M100.92,65.93c0.02,1.19-0.9,2.14-2.08,2.17c-1.2,0.03-2.15-0.85-2.2-2.04c-0.05-1.23,0.92-2.25,2.13-2.26
		C99.91,63.79,100.9,64.77,100.92,65.93z"/>
	<path d="M61.59,99.06c-1.2,0.01-2.13-0.92-2.12-2.11c0.01-1.14,0.89-2.05,2.03-2.08c1.2-0.04,2.15,0.86,2.17,2.05
		C63.7,98.12,62.79,99.05,61.59,99.06z"/>
	<path d="M98.81,61.87c-1.2,0.02-2.13-0.88-2.15-2.08c-0.01-1.19,0.91-2.12,2.11-2.11c1.16,0,2.04,0.86,2.08,2.02
		C100.9,60.9,100.01,61.84,98.81,61.87z"/>
	<path d="M82.28,97c-0.03,1.16-1.03,2.09-2.21,2.03c-1.12-0.05-2.02-1-1.99-2.12c0.03-1.17,1.02-2.08,2.2-2.03
		C81.39,94.93,82.3,95.9,82.28,97z"/>
	<path d="M100.84,78.42c-0.03,1.13-0.95,2.05-2.06,2.05c-1.16,0-2.11-0.99-2.08-2.16c0.03-1.13,0.96-2.04,2.07-2.05
		C99.93,76.26,100.86,77.24,100.84,78.42z"/>
	<path d="M82.81,78.13c-0.02,2.22-2.13,3.49-3.85,2.59c-0.61-0.32-0.79-0.68-0.36-1.3c0.51-0.74,1.27-1.21,1.87-1.84
		c0.08-0.09,0.16-0.2,0.26-0.24c0.52-0.18,0.42-1.26,1.05-0.98C82.54,76.69,82.8,77.53,82.81,78.13z"/>
	<path d="M100.8,53.55c0.01,1.14-0.9,2.06-2.04,2.05c-1.13-0.01-2.05-0.94-2.03-2.07c0.02-1.07,0.92-1.97,1.99-2
		C99.83,51.49,100.79,52.42,100.8,53.55z"/>
	<path d="M76.55,84.52c-0.09,1.22-0.63,2.05-1.71,2.44c-1.02,0.36-1.96,0.15-2.72-0.65c-0.28-0.29-0.61-0.65-0.03-0.94
		c1.02-0.51,1.67-1.44,2.55-2.11c0.99-0.76,1.38-0.68,1.76,0.53C76.48,84.05,76.51,84.33,76.55,84.52z"/>
	<path d="M90.51,90.82c-0.03-1.11,0.88-2.07,1.99-2.11c1.11-0.04,2.11,0.9,2.12,1.98c0,0.58-1.54,2.13-2.11,2.12
		C91.47,92.8,90.55,91.88,90.51,90.82z"/>
	<path d="M80.75,68.32c0.51,0.05,0.84,0.41,1.24,0.64c0.23,0.14,0.46,0.34,0.73,0.04c0.22-0.24,0.1-0.43-0.06-0.62
		c-0.52-0.61-0.16-0.79,0.42-0.89c1.29-0.23,2.57-0.49,3.86-0.72c0.31-0.05,0.62,0.03,0.88,0.23c-0.14,0.65-0.66,0.28-0.97,0.43
		c-0.27,0.14-0.7,0.22-0.28,0.63c0.63,0.6,0.1,0.88-0.31,1.18C84.55,70.54,81.19,70.07,80.75,68.32z"/>
	<path d="M75.88,103.13c0.01,1.13-0.82,1.99-1.93,1.98c-0.99-0.01-1.9-0.92-1.92-1.92c-0.02-1.07,0.9-1.99,1.96-1.98
		C75.03,101.23,75.87,102.09,75.88,103.13z"/>
	<path d="M106.88,66c-0.02,1.06-0.85,1.88-1.92,1.87c-1.05,0-1.92-0.85-1.93-1.88c-0.01-1.07,0.94-2,2-1.96
		C106.07,64.07,106.89,64.95,106.88,66z"/>
	<path d="M69.68,103.14c0.01,1.07-0.8,1.9-1.87,1.92c-1.05,0.02-1.94-0.8-1.98-1.83c-0.04-1.06,0.88-2.02,1.95-2.01
		C68.82,101.22,69.67,102.09,69.68,103.14z"/>
	<path d="M105.01,74.08c-1.05,0.02-1.94-0.8-1.98-1.84c-0.05-1.06,0.88-2.02,1.95-2.01c0.91,0,1.88,0.84,1.93,1.67
		C106.97,72.96,106.02,74.06,105.01,74.08z"/>
	<path d="M100.68,47.4c-0.01,1.02-0.89,1.9-1.91,1.9c-1.08,0-1.95-0.91-1.91-2.01c0.04-1.04,0.91-1.85,1.95-1.82
		C99.86,45.5,100.69,46.36,100.68,47.4z"/>
	<path d="M63.45,103.11c0.02,1.07-0.8,1.91-1.85,1.92c-1.02,0.01-1.83-0.75-1.88-1.77c-0.05-1.07,0.74-1.95,1.79-1.99
		C62.55,101.23,63.42,102.06,63.45,103.11z"/>
	<path d="M105,57.9c1.06,0.02,1.86,0.86,1.83,1.94c-0.03,1-0.84,1.8-1.85,1.81c-1.06,0.01-1.91-0.83-1.9-1.88
		C103.09,58.7,103.93,57.88,105,57.9z"/>
	<path d="M55.37,104.99c-0.97-0.01-1.82-0.86-1.82-1.83c0.01-0.99,0.83-1.8,1.84-1.79c1.02,0,1.81,0.8,1.8,1.81
		C57.18,104.18,56.36,104.99,55.37,104.99z"/>
	<path d="M106.79,53.6c-0.02,1.01-0.84,1.78-1.85,1.77c-1.01-0.02-1.79-0.82-1.77-1.84c0.02-1,0.85-1.81,1.84-1.78
		C105.99,51.77,106.81,52.62,106.79,53.6z"/>
	<path d="M84.39,97.01c0-0.84,0.37-1.46,1.11-1.84c0.71-0.36,1.4-0.27,2.03,0.19c0.97,0.71,0.97,1.32,0.02,2.05
		c-0.32,0.24-0.61,0.54-0.96,0.7c-0.43,0.19-0.67,0.89-1.33,0.52C84.82,98.37,84.41,97.65,84.39,97.01z"/>
	<path d="M96.77,84.65c-0.01-1.31,1.12-2.25,2.34-2.04c1.28,0.22,1.6,0.95,0.86,2c-0.23,0.32-0.44,0.67-0.72,0.95
		c-0.34,0.36-0.4,1.17-1.2,0.86C97.24,86.09,96.83,85.44,96.77,84.65z"/>
	<path d="M55.32,99c-0.59-0.02-1.1-0.24-1.46-0.7c-0.34-0.44-0.91-0.89,0.23-1.24c0.62-0.19,1.13-0.85,1.6-1.38
		c0.6-0.67,1.01-0.42,1.38,0.18c0.41,0.66,0.44,1.35,0.09,2.04C56.82,98.59,56.09,99.01,55.32,99z"/>
	<path d="M98.74,42.91c-0.97-0.02-1.75-0.81-1.73-1.76c0.02-0.95,0.83-1.72,1.79-1.7c0.97,0.02,1.75,0.8,1.73,1.76
		C100.51,42.16,99.71,42.92,98.74,42.91z"/>
	<path d="M92.51,36.69c-0.97-0.03-1.7-0.82-1.65-1.8c0.05-0.91,0.8-1.63,1.71-1.63c0.94,0,1.74,0.81,1.72,1.75
		C94.28,35.96,93.48,36.72,92.51,36.69z"/>
	<path d="M105.02,49.08c-0.95,0.03-1.77-0.77-1.77-1.71c0-0.91,0.75-1.66,1.67-1.69c0.93-0.03,1.7,0.66,1.76,1.58
		C106.73,48.22,105.98,49.05,105.02,49.08z"/>
	<path d="M100.34,34.94c0.02,0.88-0.67,1.61-1.53,1.64c-0.86,0.02-1.6-0.68-1.63-1.55c-0.03-0.88,0.66-1.6,1.54-1.62
		C99.62,33.38,100.32,34.05,100.34,34.94z"/>
	<path d="M50.89,103.02c0,1.11-0.8,1.89-1.77,1.83c-0.85-0.05-1.42-0.51-1.6-1.35c-0.07-0.33,1.73-2.05,2.06-1.98
		C50.43,101.72,50.83,102.31,50.89,103.02z"/>
	<path d="M104.96,42.76c-0.86,0-1.59-0.75-1.55-1.62c0.05-0.94,0.6-1.45,1.51-1.53c0.86-0.07,1.61,0.68,1.62,1.55
		C106.56,42.01,105.81,42.76,104.96,42.76z"/>
	<path d="M94.08,28.91c-0.1,0.81-0.6,1.35-1.53,1.4c-0.8,0.04-1.52-0.74-1.52-1.54c0.01-0.82,0.73-1.52,1.55-1.51
		C93.41,27.26,94.1,27.97,94.08,28.91z"/>
	<path d="M24.45,64.44c0.86,0.14,1.46,0.61,1.43,1.55c-0.02,0.93-0.62,1.49-1.53,1.47c-0.91-0.02-1.49-0.61-1.47-1.53
		C22.91,65.03,23.49,64.53,24.45,64.44z"/>
	<path d="M25.89,59.77c0,0.82-0.72,1.52-1.53,1.5c-0.81-0.02-1.54-0.77-1.46-1.57c0.08-0.87,0.62-1.37,1.47-1.44
		C25.16,58.2,25.89,58.96,25.89,59.77z"/>
	<path d="M81.64,22.53c0.03,0.84-0.65,1.59-1.47,1.53c-0.86-0.06-1.39-0.56-1.46-1.43c-0.07-0.82,0.65-1.54,1.47-1.54
		C80.95,21.09,81.61,21.75,81.64,22.53z"/>
	<path d="M47.61,28.76c0.09-0.86,0.54-1.47,1.49-1.52c0.81-0.05,1.39,0.35,1.56,1.17c0.08,0.39-1.43,1.86-1.85,1.86
		C48.28,30.28,47.62,29.47,47.61,28.76z"/>
	<path d="M44.43,28.81c-0.11,0.86-0.57,1.39-1.47,1.38c-0.89-0.02-1.42-0.55-1.4-1.43c0.01-0.88,0.58-1.41,1.45-1.4
		C43.87,27.36,44.36,27.91,44.43,28.81z"/>
	<path d="M22.96,53.55c0.09-0.86,0.56-1.39,1.46-1.38c0.85,0.01,1.35,0.54,1.38,1.35c0.03,0.88-0.51,1.46-1.39,1.47
		C23.54,55,23.03,54.47,22.96,53.55z"/>
	<path d="M55.34,21.16c0.92,0.06,1.45,0.56,1.45,1.43c0,0.89-0.6,1.4-1.46,1.39c-0.81-0.01-1.34-0.51-1.36-1.36
		C53.96,21.72,54.48,21.25,55.34,21.16z"/>
	<path d="M105.08,36.4c-0.97-0.06-1.52-0.54-1.53-1.42c0-0.88,0.54-1.44,1.43-1.43c0.8,0.01,1.35,0.48,1.38,1.34
		C106.4,35.82,105.86,36.26,105.08,36.4z"/>
	<path d="M86.28,21.17c0.94,0.06,1.47,0.51,1.5,1.34c0.03,0.88-0.5,1.44-1.4,1.45c-0.83,0.01-1.37-0.48-1.4-1.32
		C84.94,21.73,85.49,21.27,86.28,21.17z"/>
	<path d="M100.17,28.78c-0.1,0.82-0.5,1.36-1.37,1.37c-0.92,0-1.42-0.52-1.4-1.43c0.02-0.86,0.56-1.32,1.4-1.31
		C99.66,27.41,100.07,27.96,100.17,28.78z"/>
	<path d="M49.27,23.92c-0.92-0.05-1.43-0.53-1.42-1.35c0-0.81,0.51-1.34,1.37-1.33c0.8,0.01,1.27,0.51,1.3,1.27
		C50.54,23.35,50.05,23.83,49.27,23.92z"/>
	<path d="M41.34,35.07c-0.03-0.89,0.69-1.7,1.53-1.72c0.68-0.02,1.3,0.21,1.5,0.91c0.14,0.48-1.45,1.59-2.24,1.68
		C41.37,36.03,41.48,35.44,41.34,35.07z"/>
	<path d="M93.88,22.49c-0.06,0.82-0.45,1.33-1.24,1.37c-0.8,0.05-1.31-0.42-1.36-1.19c-0.06-0.83,0.44-1.37,1.28-1.4
		C93.34,21.26,93.75,21.77,93.88,22.49z"/>
	<path d="M36.83,27.48c0.8,0.13,1.27,0.58,1.22,1.38c-0.04,0.73-0.52,1.21-1.26,1.19c-0.78-0.01-1.29-0.48-1.27-1.29
		C35.53,27.95,36.05,27.56,36.83,27.48z"/>
	<path d="M69.07,16.4c-0.15,0.77-0.55,1.28-1.36,1.23c-0.79-0.05-1.24-0.55-1.19-1.34c0.05-0.73,0.53-1.17,1.26-1.16
		C68.56,15.14,68.98,15.64,69.07,16.4z"/>
	<path d="M74.01,15.11c0.79,0.12,1.26,0.57,1.2,1.36c-0.06,0.78-0.57,1.23-1.36,1.16c-0.72-0.06-1.15-0.53-1.13-1.27
		C72.75,15.55,73.26,15.18,74.01,15.11z"/>
	<path d="M106.24,28.77c-0.11,0.77-0.52,1.28-1.32,1.25c-0.73-0.03-1.2-0.5-1.19-1.23c0-0.79,0.5-1.27,1.29-1.25
		C105.75,27.55,106.13,28.05,106.24,28.77z"/>
	<path d="M18.23,64.69c0.74,0.12,1.24,0.52,1.21,1.33c-0.04,0.8-0.55,1.24-1.32,1.21c-0.72-0.03-1.17-0.52-1.17-1.25
		C16.94,65.19,17.42,64.77,18.23,64.69z"/>
	<path d="M61.58,17.64c-0.8-0.09-1.27-0.55-1.24-1.33c0.03-0.73,0.51-1.17,1.25-1.17c0.74,0,1.21,0.46,1.23,1.19
		C62.84,17.13,62.35,17.55,61.58,17.64z"/>
	<path d="M19.46,72.15c-0.07,0.81-0.5,1.27-1.29,1.26c-0.73-0.01-1.2-0.45-1.22-1.18c-0.02-0.77,0.41-1.29,1.21-1.31
		C18.95,70.9,19.37,71.38,19.46,72.15z"/>
	<path d="M18.2,61.04c-0.71-0.1-1.21-0.45-1.24-1.2c-0.03-0.8,0.43-1.31,1.22-1.31c0.78,0,1.26,0.48,1.24,1.29
		C19.41,60.57,18.91,60.93,18.2,61.04z"/>
	<path d="M54.55,109.69c-0.72,0.11-0.84-0.19-0.74-0.68c0.23-1.12,1.65-1.63,2.55-0.91c0.36,0.28,0.65,0.66,0.57,1.12
		c-0.1,0.6-0.64,0.28-0.98,0.34C55.44,109.65,54.92,109.66,54.55,109.69z"/>
	<path d="M80.29,17.64c-0.8-0.07-1.28-0.43-1.34-1.18c-0.05-0.75,0.37-1.24,1.11-1.29c0.79-0.06,1.3,0.36,1.33,1.19
		C81.41,17.13,80.91,17.48,80.29,17.64z"/>
	<path d="M44.21,22.61c-0.09,0.76-0.51,1.21-1.25,1.19c-0.73-0.01-1.2-0.45-1.21-1.21c0-0.82,0.51-1.28,1.29-1.24
		C43.77,21.39,44.19,21.87,44.21,22.61z"/>
	<path d="M49.23,109.86c-0.49-0.32-1.46,0.42-1.5-0.66c-0.03-0.88,0.62-1.36,1.5-1.33c0.88,0.03,1.47,0.56,1.41,1.43
		C50.56,110.31,49.67,109.53,49.23,109.86z"/>
	<path d="M99.98,22.53c-0.07,0.75-0.45,1.23-1.2,1.24c-0.74,0-1.19-0.45-1.19-1.2c0-0.69,0.41-1.12,1.11-1.16
		C99.46,21.37,99.85,21.82,99.98,22.53z"/>
	<path d="M56.6,16.35c-0.13,0.8-0.55,1.27-1.28,1.22c-0.72-0.05-1.16-0.52-1.11-1.28c0.05-0.7,0.48-1.08,1.18-1.08
		C56.17,15.21,56.48,15.72,56.6,16.35z"/>
	<path d="M61.06,22.83c-0.66,0.19-1.04,0.21-0.97-0.35c0.09-0.81,0.59-1.33,1.4-1.39c0.81-0.05,1.64,0.47,1.5,1.19
		C62.74,23.52,61.45,22.35,61.06,22.83z"/>
	<path d="M87.57,16.33c-0.06,0.75-0.47,1.23-1.21,1.22c-0.66-0.01-1.14-0.41-1.15-1.12c-0.01-0.76,0.42-1.2,1.18-1.21
		C87.1,15.22,87.45,15.67,87.57,16.33z"/>
	<path d="M87.68,29.74c-0.75-0.68-1.34-1.36-2.29-1.58c-0.72-0.17-0.21-0.53,0.03-0.7c0.65-0.46,1.36-0.45,1.97,0.06
		C88.09,28.1,88.24,28.82,87.68,29.74z"/>
	<path d="M111.45,47.39c-0.33,0.49,0.32,1.35-0.51,1.4c-0.81,0.06-1.27-0.62-1.26-1.45c0.01-0.77,0.43-1.44,1.19-1.38
		C111.81,46.05,111.02,47,111.45,47.39z"/>
	<path d="M111.2,53.5c-0.02,0.2,0,0.41-0.06,0.59c-0.11,0.34,0.24,0.91-0.33,0.98c-0.5,0.06-0.86-0.36-1.08-0.8
		c-0.09-0.17-0.13-0.38-0.14-0.57c-0.07-0.82,0.64-1.72,1.32-1.7C111.34,52.01,111.34,52.01,111.2,53.5z"/>
	<path d="M18.13,46.23c0.7,0.09,1.14,0.42,1.15,1.14c0.01,0.65-0.38,1.06-1.01,1.1c-0.68,0.04-1.15-0.35-1.19-1.04
		C17.04,46.72,17.5,46.37,18.13,46.23z"/>
	<path d="M49.29,17.48c-0.77-0.03-1.21-0.4-1.22-1.09c0-0.68,0.41-1.12,1.12-1.12c0.65,0,1.05,0.42,1.09,1.03
		C50.34,16.99,49.92,17.39,49.29,17.48z"/>
	<path d="M36.79,23.67c-0.7-0.1-1.08-0.47-1.07-1.12c0.01-0.66,0.41-1.05,1.06-1.05c0.71,0.01,1.13,0.45,1.08,1.15
		C37.82,23.3,37.38,23.62,36.79,23.67z"/>
	<path d="M93.65,16.36c-0.04,0.63-0.35,1.05-1.02,1.08c-0.66,0.03-1.09-0.34-1.13-0.98c-0.05-0.71,0.39-1.15,1.08-1.16
		C93.21,15.29,93.58,15.69,93.65,16.36z"/>
	<path d="M18.03,52.47c0.61,0.17,0.65,0.84,1.02,1.22c0.34,0.36-0.08,0.97-0.7,1.05c-0.61,0.08-1.05-0.11-1.14-0.85
		C17.12,53.16,17.56,52.82,18.03,52.47z"/>
	<path d="M92.32,39.32c1.53,0.02,2.51,1.12,2.11,2.31c-0.09,0.26-0.32,0.8-0.57,0.26C93.44,40.99,92.46,40.46,92.32,39.32z"/>
	<path d="M13,65.92c-0.02,0.67-0.38,1.07-1.02,1.06c-0.57,0-0.97-0.35-0.98-0.97c-0.01-0.67,0.37-1.05,1.01-1.05
		C12.6,64.96,12.94,65.32,13,65.92z"/>
	<path d="M66.74,10.14c0.13-0.62,0.47-1.01,1.14-0.95c0.61,0.06,0.94,0.46,0.9,1.04c-0.04,0.64-0.45,1.01-1.12,0.95
		C67.06,11.12,66.8,10.71,66.74,10.14z"/>
	<path d="M75,10.18c-0.07,0.58-0.35,0.97-0.96,1c-0.66,0.03-1.06-0.34-1.06-0.99c0-0.66,0.4-1.01,1.06-1
		C74.64,9.21,74.92,9.6,75,10.18z"/>
	<path d="M11.97,73.18C11.38,73.11,11,72.81,11,72.2c-0.01-0.66,0.36-1.04,1.02-1.04c0.59,0.01,0.95,0.36,0.97,0.97
		C13,72.8,12.61,73.12,11.97,73.18z"/>
	<path d="M62.59,10.13c-0.09,0.6-0.36,1.01-0.98,1.03c-0.62,0.02-1-0.36-1.02-0.95c-0.02-0.58,0.33-0.99,0.95-1.01
		C62.17,9.18,62.47,9.58,62.59,10.13z"/>
	<path d="M11.99,60.78c-0.6-0.09-0.98-0.4-0.97-1.02c0.01-0.62,0.4-0.98,0.99-0.98c0.59,0.01,0.97,0.38,0.97,1
		C12.97,60.41,12.56,60.69,11.99,60.78z"/>
	<path d="M18.15,42.17c-0.63-0.08-0.96-0.43-0.94-1.03c0.02-0.6,0.37-0.96,0.98-0.95c0.67,0.01,1.03,0.42,0.98,1.07
		C19.13,41.86,18.74,42.16,18.15,42.17z"/>
	<path d="M99.76,16.4c-0.11,0.57-0.42,0.97-1.02,0.96c-0.59-0.02-0.96-0.41-0.95-0.99c0.02-0.59,0.38-0.95,0.99-0.93
		C99.41,15.44,99.68,15.84,99.76,16.4z"/>
	<path d="M43.01,15.39c0.61,0.08,0.97,0.4,0.95,1.02c-0.02,0.6-0.37,0.98-0.97,0.97c-0.66,0-1.04-0.41-1-1.06
		C42.03,15.71,42.43,15.42,43.01,15.39z"/>
	<path d="M81.16,10.24c-0.09,0.59-0.42,0.96-1.03,0.92c-0.61-0.04-0.96-0.41-0.93-1.02c0.03-0.6,0.41-0.95,1.02-0.92
		C80.83,9.24,81.13,9.63,81.16,10.24z"/>
	<path d="M63.01,108.57c-0.87,0.18-1.6,0.34-2.33,0.47c-0.21,0.04-0.5,0.16-0.62-0.12c-0.1-0.24,0.11-0.45,0.25-0.63
		C61,107.43,62.02,107.5,63.01,108.57z"/>
	<path d="M56.36,10.15c-0.12,0.63-0.44,1.02-1.05,0.98c-0.54-0.04-0.88-0.4-0.86-0.96c0.02-0.62,0.39-0.95,1.01-0.92
		C56.03,9.27,56.26,9.69,56.36,10.15z"/>
	<path d="M87.31,10.09c-0.06,0.6-0.34,0.98-0.88,1.01c-0.61,0.03-0.98-0.34-0.97-0.94c0.01-0.55,0.36-0.88,0.91-0.89
		C86.94,9.25,87.19,9.64,87.31,10.09z"/>
	<path d="M60.39,92.64c0.82-0.68,2.02-0.41,2.8-1.14c0.13-0.12,0.34-0.05,0.39,0.1c0.04,0.12-0.02,0.31-0.08,0.44
		C62.98,93.06,61.6,93.33,60.39,92.64z"/>
	<path d="M78.22,103.31c0.58-1.89,1.29-2.27,2.91-1.73C80.32,102.35,79.28,102.58,78.22,103.31z"/>
	<path d="M30.16,60.55c-0.01,0.21,0.05,0.56-0.22,0.69c-0.3,0.14-0.48-0.18-0.66-0.37c-0.25-0.27-0.4-0.61-0.41-0.97
		c-0.01-0.52,0.05-1.2,0.61-1.27c0.52-0.06,0.26,0.63,0.4,0.96C29.99,59.88,30.05,60.19,30.16,60.55z"/>
	<path d="M12.01,48.25c-0.53-0.05-0.89-0.34-0.89-0.89c0-0.5,0.33-0.83,0.82-0.85c0.55-0.02,0.91,0.32,0.91,0.88
		C12.86,47.87,12.53,48.17,12.01,48.25z"/>
	<path d="M49.2,11.07c-0.53-0.08-0.9-0.36-0.88-0.92c0.01-0.49,0.35-0.83,0.84-0.83c0.55,0,0.9,0.35,0.89,0.9
		C50.04,10.71,49.69,10.99,49.2,11.07z"/>
	<path d="M19.05,34.96c-0.06,0.53-0.32,0.86-0.83,0.87c-0.56,0.02-0.91-0.32-0.9-0.87c0.01-0.56,0.37-0.87,0.93-0.83
		C18.77,34.16,19.01,34.5,19.05,34.96z"/>
	<path d="M36.74,15.5c0.55,0.04,0.9,0.32,0.91,0.88c0,0.5-0.29,0.82-0.8,0.84c-0.5,0.02-0.84-0.22-0.89-0.74
		C35.89,15.92,36.19,15.61,36.74,15.5z"/>
	<path d="M12.71,53.62c0.13,0.56-0.14,0.86-0.66,0.9c-0.48,0.04-0.97-0.22-0.93-0.71c0.04-0.57,0.61-0.97,1.1-1.07
		C12.81,52.64,12.62,53.28,12.71,53.62z"/>
	<path d="M103.33,79.46c-0.38-1.89-0.07-2.44,1.6-3C104.38,77.48,103.93,78.34,103.33,79.46z"/>
	<path d="M92.58,11.02c-0.5-0.05-0.84-0.31-0.85-0.82c-0.01-0.51,0.33-0.84,0.82-0.85c0.49-0.01,0.83,0.28,0.84,0.82
		C93.4,10.69,93.09,10.96,92.58,11.02z"/>
	<path d="M42.03,109.01c1.02-1.13,1.69-1.21,2.15-0.3c0.19,0.38,0.25,0.72-0.36,0.65C43.25,109.29,42.63,109.42,42.03,109.01z"/>
	<path d="M104.95,23.63c-0.57-0.05-0.94-0.37-1.02-0.95c-0.06-0.43,0.14-0.98,0.52-0.92c0.66,0.09,0.68,0.87,0.94,1.37
		C105.59,23.51,105.27,23.59,104.95,23.63z"/>
	<path d="M110.61,58.3c0,0.93-0.15,1.79-0.48,2.68C109.14,59.8,109.29,58.99,110.61,58.3z"/>
	<path d="M94.51,46.72c0.11,1.83-0.42,2.49-1.84,2.57C92.88,48.23,93.93,47.85,94.51,46.72z"/>
	<path d="M110.58,40.06c0.21,0.76,0.43,1.52,0.24,2.33C109.53,41.79,109.44,40.86,110.58,40.06z"/>
	<path d="M58.61,42.48c0.81,1.13,1.9,1.99,2.67,3.13C59.94,44.94,59.04,43.9,58.61,42.48z"/>
	<path d="M6.54,66c-0.07,0.47-0.35,0.75-0.8,0.7c-0.44-0.04-0.73-0.32-0.69-0.8c0.04-0.46,0.35-0.72,0.8-0.7
		C6.3,65.24,6.52,65.56,6.54,66z"/>
	<path d="M5.75,79.09c-0.45-0.08-0.73-0.35-0.68-0.82c0.05-0.4,0.34-0.65,0.75-0.62c0.47,0.03,0.73,0.33,0.68,0.81
		C6.45,78.87,6.17,79.08,5.75,79.09z"/>
	<path d="M68.86,21.7c-0.61,0.33-1.35,0.05-1.93,0.44c-0.08,0.05-0.35-0.03-0.39-0.12c-0.05-0.1,0.02-0.3,0.1-0.42
		C67.13,20.89,68.05,20.92,68.86,21.7z"/>
	<path d="M12.74,41.11c-0.01,0.47-0.22,0.77-0.7,0.8c-0.47,0.03-0.77-0.22-0.8-0.69c-0.03-0.47,0.21-0.77,0.69-0.8
		C12.41,40.39,12.68,40.64,12.74,41.11z"/>
	<path d="M6.53,72.14c-0.02,0.47-0.26,0.75-0.72,0.76c-0.45,0-0.75-0.25-0.76-0.72c-0.01-0.46,0.27-0.74,0.73-0.76
		C6.24,71.4,6.47,71.69,6.53,72.14z"/>
	<path d="M43.73,10.21c-0.05,0.45-0.29,0.74-0.77,0.72c-0.47-0.02-0.74-0.3-0.74-0.77c0.01-0.47,0.29-0.73,0.76-0.73
		C43.47,9.45,43.71,9.73,43.73,10.21z"/>
	<path d="M5.04,59.83c0.02-0.48,0.26-0.77,0.72-0.79c0.39-0.02,0.69,0.21,0.74,0.63c0.06,0.48-0.2,0.8-0.64,0.85
		C5.43,60.55,5.12,60.29,5.04,59.83z"/>
	<path d="M80.12,3.25c0.45,0.03,0.74,0.24,0.77,0.71c0.02,0.41-0.2,0.68-0.6,0.74c-0.46,0.07-0.78-0.18-0.83-0.62
		C79.4,3.62,79.67,3.35,80.12,3.25z"/>
	<path d="M73.95,4.72c-0.46-0.05-0.74-0.31-0.73-0.76c0.02-0.45,0.31-0.73,0.77-0.72c0.47,0.01,0.72,0.3,0.71,0.76
		C74.69,4.47,74.41,4.71,73.95,4.72z"/>
	<path d="M68.54,3.98c-0.07,0.45-0.3,0.74-0.77,0.74c-0.47,0-0.75-0.29-0.75-0.74c0-0.44,0.29-0.74,0.75-0.75
		C68.25,3.23,68.47,3.54,68.54,3.98z"/>
	<path d="M62.33,3.94c-0.05,0.45-0.26,0.75-0.74,0.77c-0.42,0.01-0.7-0.24-0.74-0.63c-0.05-0.45,0.18-0.78,0.66-0.83
		C61.99,3.2,62.22,3.5,62.33,3.94z"/>
	<path d="M30.56,17.11c-0.45-0.08-0.72-0.35-0.68-0.8c0.04-0.38,0.31-0.64,0.73-0.63c0.42,0.01,0.67,0.27,0.68,0.67
		C31.31,16.81,31.02,17.06,30.56,17.11z"/>
	<path d="M11.62,79.23c-0.58-0.33-0.62-0.61-0.61-0.88c0.03-0.6,0.37-0.95,0.97-0.96c0.3-0.01,0.8,0.09,0.66,0.44
		C12.43,78.35,11.98,78.77,11.62,79.23z"/>
	<path d="M18.92,28.74c-0.03,0.41-0.24,0.68-0.64,0.72c-0.46,0.05-0.76-0.17-0.79-0.66c-0.02-0.42,0.23-0.69,0.61-0.73
		C18.56,28.02,18.82,28.3,18.92,28.74z"/>
	<path d="M6.48,53.53c-0.01,0.44-0.26,0.7-0.66,0.73c-0.41,0.03-0.69-0.24-0.72-0.65c-0.02-0.41,0.22-0.68,0.65-0.71
		C6.18,52.88,6.41,53.12,6.48,53.53z"/>
	<path d="M55.34,3.28c0.42,0.03,0.69,0.26,0.72,0.64c0.03,0.45-0.24,0.75-0.71,0.74c-0.4-0.01-0.65-0.26-0.65-0.68
		C54.71,3.57,54.97,3.36,55.34,3.28z"/>
	<path d="M12.65,35.03c-0.12,0.38-0.33,0.66-0.77,0.58c-0.34-0.06-0.58-0.31-0.54-0.68c0.05-0.42,0.33-0.64,0.75-0.58
		C12.45,34.41,12.63,34.66,12.65,35.03z"/>
	<path d="M24.4,48.72c-1.43-0.56-1.59-0.97-1.02-2.19C23.71,47.22,24.01,47.88,24.4,48.72z"/>
	<path d="M86.38,3.3c0.4,0.09,0.69,0.3,0.66,0.72c-0.03,0.39-0.29,0.67-0.7,0.64c-0.4-0.02-0.66-0.29-0.63-0.7
		C85.73,3.55,85.99,3.33,86.38,3.3z"/>
	<path d="M36.77,10.84c-0.44-0.1-0.67-0.35-0.61-0.77c0.06-0.35,0.31-0.58,0.67-0.53c0.4,0.05,0.64,0.33,0.58,0.75
		C37.36,10.64,37.09,10.81,36.77,10.84z"/>
	<path d="M49.81,3.96c-0.01,0.34-0.19,0.6-0.54,0.64c-0.41,0.05-0.69-0.2-0.7-0.61c-0.01-0.36,0.23-0.59,0.59-0.61
		C49.52,3.35,49.73,3.58,49.81,3.96z"/>
	<path d="M80.82,28.45c-0.31,0.07-0.52-0.16-0.42-0.62c0.05-0.23-0.09-0.67,0.36-0.61c0.46,0.06,0.84,0.37,0.91,0.84
		C81.73,28.61,81.29,28.42,80.82,28.45z"/>
	<path d="M6.42,47.43C6.34,47.79,6.13,48,5.76,47.98c-0.37-0.02-0.59-0.25-0.57-0.62c0.02-0.42,0.28-0.67,0.7-0.6
		C6.22,46.81,6.42,47.07,6.42,47.43z"/>
</g>
</svg>
