<?xml version="1.0" encoding="utf-8"?>
<!-- Generator: Adobe Illustrator 24.0.0, SVG Export Plug-In . SVG Version: 6.00 Build 0)  -->
<svg version="1.1" id="Layer_1" xmlns="http://www.w3.org/2000/svg" xmlns:xlink="http://www.w3.org/1999/xlink" x="0px" y="0px"
	 viewBox="0 0 398.7 406.82" enable-background="new 0 0 398.7 406.82" xml:space="preserve">
<g>
	<g>
		<path d="M71.41,36.93c2.43-2.28,4.87-4.56,7.3-6.83c0.77-0.26,1.58-0.42,2.29-0.79c13.61-6.91,26.98-6.54,39.81,1.76
			c15.83,10.23,26.48,24.47,31.92,42.57c3.35,11.14,6.23,22.43,10.9,33.14c2.21,5.07,4.81,9.85,8.77,13.81
			c2.84,2.84,4.96,3.04,8.17-0.18c16.69-16.75,34.04-32.78,52.01-48.17c11.29-9.67,23.28-12.09,37.04-7.63
			c4.38,1.42,8.64,3.18,12.95,4.79c1.59,1.7,3.19,3.41,4.78,5.11c0.57,4.9,1.19,9.79,1.7,14.69c0.48,4.59,2.78,7.78,7.18,9.14
			c6.12,1.9,12.29,3.59,18.45,5.37c1.14,1.22,2.28,2.43,3.42,3.65c1.26,5.05,1.52,10.21,1.36,15.36
			c-0.22,7.44,3.22,11.91,9.87,15.06c15.66,7.41,19.52,4.96,17.83,29.79c-0.49,7.24,1.47,12.93,6.97,17.72
			c2.95,2.58,6.4,5.23,7.11,9.39c2.31,13.45,1.8,26.62-6.09,38.39c-3.59,5.35-7.98,10.16-12,15.21
			c-10.71,10.02-21.42,20.04-32.13,30.07c-1.84,0.53-3.15,1.87-4.48,3.1c-27.74,25.86-60.61,44.44-92.08,64.99
			c-2.07,1.35-3.6,1.45-5.53-0.62c-29.99-32.18-60.04-64.3-90.16-96.36c-2.15-2.29-2-3.77,0.31-5.64c4.87-3.93,6.72-9.34,7.21-15.37
			c0.36-4.5,0.24-8.98-0.31-13.46c-2.39-19.49-8.26-38.07-15.73-56.08c-4.99-12.03-6.28-23.95-3.71-36.59
			c2.18-10.72,0.85-21.19-3.33-31.33c-6.87-16.68-17.58-30.9-28.79-44.77C72.12,43.35,70.52,40.65,71.41,36.93z"/>
		<path d="M59.01,304.66c-2.77-7.67-0.78-13.7,5.41-19.1c9.04-7.88,17.56-16.35,26.36-24.49c6.97-6.44,14.58-6.23,21.06,0.68
			c28.84,30.75,57.64,61.53,86.41,92.34c6.46,6.92,6.15,14.57-0.71,21.05c-8.6,8.12-17.5,15.94-25.82,24.35
			c-5.87,5.93-12.08,7.88-19.78,4.48C120.96,370.85,89.99,337.75,59.01,304.66z"/>
	</g>
</g>
</svg>
